<svg width="2000" height="1160" viewBox="0 0 2000 1160" fill="none" xmlns="http://www.w3.org/2000/svg">
<g filter="url(#filter0_d_0_1)">
<path d="M997.36 250.038C999.707 245.8 1005.85 245.947 1007.99 250.293L1035.37 305.864C1036.2 307.54 1037.75 308.735 1039.59 309.098L1100.64 321.203C1105.42 322.149 1107.14 328.081 1103.61 331.435L1058.16 374.689C1056.59 376.179 1055.95 378.396 1056.47 380.493L1072.6 444.94C1073.88 450.052 1068.42 454.212 1063.83 451.622L1005.87 418.906C1004.04 417.872 1001.8 417.872 999.97 418.906L941.071 452.15C936.629 454.657 931.283 450.831 932.224 445.818L944.535 380.228C944.903 378.272 944.276 376.261 942.862 374.86L898.988 331.371C895.579 327.993 897.32 322.178 902.024 321.229L962.249 309.071C963.974 308.723 965.458 307.635 966.311 306.096L997.36 250.038Z" fill="#E9E9E9"/>
<path d="M989.486 245.677C995.354 235.082 1010.71 235.451 1016.06 246.315L1042.79 300.557L1102.39 312.374C1114.32 314.739 1118.63 329.572 1109.82 337.955L1065.63 380.004L1081.33 442.755C1084.53 455.535 1070.88 465.935 1059.41 459.46L1002.92 427.575L945.494 459.988C934.391 466.255 921.027 456.69 923.379 444.158L935.396 380.131L892.651 337.764C884.13 329.317 888.482 314.78 900.243 312.406L959.108 300.523L989.486 245.677Z" stroke="#F3F3F3" stroke-width="18"/>
</g>
<g filter="url(#filter1_d_0_1)">
<path d="M680.304 310.639C681.724 298.611 696.077 293.139 705.145 301.168L750.416 341.253L810.058 329.624C821.995 327.296 831.595 339.395 826.615 350.49L801.633 406.14L839.927 458.273C847.726 468.891 839.03 483.685 825.96 482.035L761.604 473.911L720.726 525.652C712.822 535.657 696.831 531.863 694.264 519.374L681.145 455.563L625.542 432.533C614.457 427.941 612.982 412.839 622.968 406.189L672.953 372.904L680.304 310.639Z" stroke="#F3F3F3" stroke-width="18" shape-rendering="crispEdges"/>
</g>
<g filter="url(#filter2_di_0_1)">
<path d="M688.57 317.392C689.422 310.176 698.034 306.892 703.475 311.709L744.451 347.992C746.549 349.849 749.391 350.624 752.14 350.088L806.1 339.566C813.262 338.17 819.022 345.429 816.033 352.085L793.423 402.454C792.096 405.412 792.461 408.855 794.381 411.468L828.542 457.975C833.221 464.345 828.003 473.222 820.161 472.232L762.733 464.982C759.605 464.587 756.498 465.858 754.543 468.332L717.66 515.016C712.917 521.019 703.323 518.743 701.782 511.249L689.909 453.495C689.338 450.713 687.487 448.365 684.916 447.159L634.646 423.575C628.186 420.544 627.654 411.559 633.712 407.787L677.731 380.376C680.053 378.931 681.591 376.508 681.912 373.792L688.57 317.392Z" fill="#FFCB71"/>
<path d="M688.57 317.392C689.422 310.176 698.034 306.892 703.475 311.709L744.451 347.992C746.549 349.849 749.391 350.624 752.14 350.088L806.1 339.566C813.262 338.17 819.022 345.429 816.033 352.085L793.423 402.454C792.096 405.412 792.461 408.855 794.381 411.468L828.542 457.975C833.221 464.345 828.003 473.222 820.161 472.232L762.733 464.982C759.605 464.587 756.498 465.858 754.543 468.332L717.66 515.016C712.917 521.019 703.323 518.743 701.782 511.249L689.909 453.495C689.338 450.713 687.487 448.365 684.916 447.159L634.646 423.575C628.186 420.544 627.654 411.559 633.712 407.787L677.731 380.376C680.053 378.931 681.591 376.508 681.912 373.792L688.57 317.392Z" stroke="#F9B300" stroke-width="11"/>
</g>
<path d="M750.85 359.087L753.835 358.765C756.878 358.437 759.802 360.049 761.148 362.799C763.189 366.965 760.861 371.951 756.357 373.062L746.682 375.449C741.578 376.709 736.218 374.77 733.101 370.538L725.198 359.809C722.96 356.77 723.521 352.505 726.47 350.149C729.172 347.99 733.044 348.117 735.598 350.45L741.818 356.13C744.265 358.365 747.555 359.442 750.85 359.087Z" fill="white"/>
<circle cx="771.964" cy="365.8" r="6.76531" transform="rotate(-22.2472 771.964 365.8)" fill="white"/>
<circle cx="730.499" cy="472.91" r="4.5102" transform="rotate(-22.2472 730.499 472.91)" fill="white"/>
<circle cx="738.28" cy="460.957" r="7.21633" transform="rotate(-22.2472 738.28 460.957)" fill="white"/>
<g filter="url(#filter3_d_0_1)">
<path d="M1322.96 310.639C1321.54 298.611 1307.19 293.139 1298.12 301.168L1252.85 341.253L1193.21 329.624C1181.27 327.296 1171.67 339.395 1176.65 350.49L1201.63 406.14L1163.34 458.273C1155.54 468.891 1164.24 483.685 1177.31 482.035L1241.66 473.911L1282.54 525.652C1290.45 535.657 1306.44 531.863 1309 519.374L1322.12 455.563L1377.73 432.533C1388.81 427.941 1390.29 412.839 1380.3 406.189L1330.31 372.904L1322.96 310.639Z" stroke="#F3F3F3" stroke-width="18" shape-rendering="crispEdges"/>
</g>
<g filter="url(#filter4_di_0_1)">
<path d="M1314.7 317.392C1313.85 310.176 1305.23 306.892 1299.79 311.709L1258.82 347.992C1256.72 349.849 1253.88 350.624 1251.13 350.088L1197.17 339.566C1190.01 338.17 1184.25 345.429 1187.23 352.085L1209.84 402.454C1211.17 405.412 1210.81 408.855 1208.89 411.468L1174.73 457.975C1170.05 464.345 1175.26 473.222 1183.11 472.232L1240.54 464.982C1243.66 464.587 1246.77 465.858 1248.72 468.332L1285.61 515.016C1290.35 521.019 1299.94 518.743 1301.49 511.249L1313.36 453.495C1313.93 450.713 1315.78 448.365 1318.35 447.159L1368.62 423.575C1375.08 420.544 1375.61 411.559 1369.56 407.787L1325.54 380.376C1323.21 378.931 1321.68 376.508 1321.36 373.792L1314.7 317.392Z" fill="#FFCB71"/>
<path d="M1314.7 317.392C1313.85 310.176 1305.23 306.892 1299.79 311.709L1258.82 347.992C1256.72 349.849 1253.88 350.624 1251.13 350.088L1197.17 339.566C1190.01 338.17 1184.25 345.429 1187.23 352.085L1209.84 402.454C1211.17 405.412 1210.81 408.855 1208.89 411.468L1174.73 457.975C1170.05 464.345 1175.26 473.222 1183.11 472.232L1240.54 464.982C1243.66 464.587 1246.77 465.858 1248.72 468.332L1285.61 515.016C1290.35 521.019 1299.94 518.743 1301.49 511.249L1313.36 453.495C1313.93 450.713 1315.78 448.365 1318.35 447.159L1368.62 423.575C1375.08 420.544 1375.61 411.559 1369.56 407.787L1325.54 380.376C1323.21 378.931 1321.68 376.508 1321.36 373.792L1314.7 317.392Z" stroke="#F9B300" stroke-width="11"/>
</g>
<path d="M1252.42 359.087L1249.43 358.765C1246.39 358.437 1243.47 360.049 1242.12 362.799C1240.08 366.965 1242.41 371.951 1246.91 373.062L1256.59 375.449C1261.69 376.709 1267.05 374.77 1270.17 370.538L1278.07 359.809C1280.31 356.77 1279.75 352.505 1276.8 350.149C1274.1 347.99 1270.22 348.117 1267.67 350.45L1261.45 356.13C1259 358.365 1255.71 359.442 1252.42 359.087Z" fill="white"/>
<circle cx="6.76531" cy="6.76531" r="6.76531" transform="matrix(-0.925559 -0.378604 -0.378604 0.925559 1240.13 362.1)" fill="white"/>
<circle cx="4.5102" cy="4.5102" r="4.5102" transform="matrix(-0.925559 -0.378604 -0.378604 0.925559 1278.65 470.443)" fill="white"/>
<circle cx="7.21633" cy="7.21633" r="7.21633" transform="matrix(-0.925559 -0.378604 -0.378604 0.925559 1274.4 457.01)" fill="white"/>
<g filter="url(#filter5_di_0_1)">
<path d="M994.325 255.057C997.846 248.7 1007.06 248.921 1010.27 255.44L1034.46 304.536C1035.7 307.048 1038.04 308.842 1040.78 309.386L1094.71 320.077C1101.87 321.496 1104.45 330.395 1099.16 335.425L1059.17 373.484C1056.82 375.719 1055.85 379.044 1056.64 382.189L1070.65 438.168C1072.57 445.836 1064.38 452.076 1057.5 448.19L1007.09 419.738C1004.34 418.188 1000.99 418.188 998.24 419.738L946.427 448.983C939.765 452.743 931.747 447.004 933.158 439.485L944.035 381.534C944.559 378.744 943.735 375.869 941.812 373.78L904.214 332.919C899.382 327.668 902.291 319.151 909.326 317.953L960.446 309.248C963.143 308.789 965.484 307.129 966.809 304.737L994.325 255.057Z" fill="#FFCB71"/>
<path d="M994.325 255.057C997.846 248.7 1007.06 248.921 1010.27 255.44L1034.46 304.536C1035.7 307.048 1038.04 308.842 1040.78 309.386L1094.71 320.077C1101.87 321.496 1104.45 330.395 1099.16 335.425L1059.17 373.484C1056.82 375.719 1055.85 379.044 1056.64 382.189L1070.65 438.168C1072.57 445.836 1064.38 452.076 1057.5 448.19L1007.09 419.738C1004.34 418.188 1000.99 418.188 998.24 419.738L946.427 448.983C939.765 452.743 931.747 447.004 933.158 439.485L944.035 381.534C944.559 378.744 943.735 375.869 941.812 373.78L904.214 332.919C899.382 327.668 902.291 319.151 909.326 317.953L960.446 309.248C963.143 308.789 965.484 307.129 966.809 304.737L994.325 255.057Z" stroke="#F9B300" stroke-width="11"/>
</g>
<path d="M1036.18 317.227L1039.07 318.059C1042.01 318.907 1044.1 321.506 1044.31 324.561C1044.62 329.19 1040.58 332.923 1035.99 332.247L1026.13 330.793C1020.93 330.026 1016.7 326.203 1015.42 321.105L1012.17 308.183C1011.25 304.522 1013.38 300.788 1017 299.723C1020.32 298.748 1023.85 300.332 1025.34 303.458L1028.94 311.07C1030.36 314.066 1033 316.308 1036.18 317.227Z" fill="white"/>
<circle cx="1053.18" cy="331.434" r="6.76531" fill="white"/>
<circle cx="974.254" cy="414.872" r="4.5102" fill="white"/>
<circle cx="985.98" cy="406.754" r="7.21633" fill="white"/>
<rect x="40" y="4" width="47.8906" height="30" rx="3" fill="#444444"/>
<rect x="40.5" y="4.5" width="46.8906" height="29" rx="2.5" stroke="white" stroke-opacity="0.0980392"/>
<path d="M49.5313 22.1094C49.0156 22.1094 48.556 22.0208 48.1523 21.8437C47.7513 21.6667 47.4323 21.4206 47.1953 21.1055C46.9609 20.7878 46.8333 20.4193 46.8125 20H47.7969C47.8177 20.2578 47.9063 20.4805 48.0625 20.668C48.2188 20.8529 48.4232 20.9961 48.6758 21.0977C48.9284 21.1992 49.2083 21.25 49.5156 21.25C49.8594 21.25 50.1641 21.1901 50.4297 21.0703C50.6953 20.9505 50.9036 20.7839 51.0547 20.5703C51.2057 20.3568 51.2813 20.1094 51.2813 19.8281C51.2813 19.5339 51.2083 19.2747 51.0625 19.0508C50.9167 18.8242 50.7031 18.6471 50.4219 18.5195C50.1406 18.3919 49.7969 18.3281 49.3906 18.3281H48.75V17.4687H49.3906C49.7083 17.4687 49.987 17.4115 50.2266 17.2969C50.4688 17.1823 50.6576 17.0208 50.793 16.8125C50.931 16.6042 51 16.3594 51 16.0781C51 15.8073 50.9401 15.5716 50.8203 15.3711C50.7005 15.1706 50.5313 15.0143 50.3125 14.9023C50.0964 14.7904 49.8411 14.7344 49.5469 14.7344C49.2708 14.7344 49.0104 14.7852 48.7656 14.8867C48.5234 14.9857 48.3255 15.1302 48.1719 15.3203C48.0182 15.5078 47.9349 15.7344 47.9219 16H46.9844C47 15.5807 47.1263 15.2135 47.3633 14.8984C47.6003 14.5807 47.9102 14.3333 48.293 14.1562C48.6784 13.9792 49.1016 13.8906 49.5625 13.8906C50.0573 13.8906 50.4818 13.9909 50.8359 14.1914C51.1901 14.3893 51.4622 14.651 51.6523 14.9766C51.8424 15.3021 51.9375 15.6536 51.9375 16.0313C51.9375 16.4818 51.819 16.8659 51.582 17.1836C51.3477 17.5013 51.0286 17.7214 50.625 17.8438V17.9062C51.1302 17.9896 51.5247 18.2044 51.8086 18.5508C52.0924 18.8945 52.2344 19.3203 52.2344 19.8281C52.2344 20.263 52.1159 20.6536 51.8789 21C51.6445 21.3437 51.3242 21.6146 50.918 21.8125C50.5117 22.0104 50.0495 22.1094 49.5313 22.1094ZM61.1914 17.3437L60.3633 17.5781C60.3112 17.4401 60.2344 17.306 60.1328 17.1758C60.0339 17.043 59.8984 16.9336 59.7266 16.8477C59.5547 16.7617 59.3346 16.7187 59.0664 16.7187C58.6992 16.7187 58.3932 16.8034 58.1484 16.9727C57.9063 17.1393 57.7852 17.3516 57.7852 17.6094C57.7852 17.8385 57.8685 18.0195 58.0352 18.1523C58.2018 18.2852 58.4622 18.3958 58.8164 18.4844L59.707 18.7031C60.2435 18.8333 60.6432 19.0326 60.9063 19.3008C61.1693 19.5664 61.3008 19.9089 61.3008 20.3281C61.3008 20.6719 61.2018 20.9792 61.0039 21.25C60.8086 21.5208 60.5352 21.7344 60.1836 21.8906C59.832 22.0469 59.4232 22.125 58.957 22.125C58.3451 22.125 57.8385 21.9922 57.4375 21.7266C57.0365 21.4609 56.7826 21.0729 56.6758 20.5625L57.5508 20.3437C57.6341 20.6667 57.7917 20.9089 58.0234 21.0703C58.2578 21.2318 58.5638 21.3125 58.9414 21.3125C59.3711 21.3125 59.7122 21.2214 59.9648 21.0391C60.2201 20.8542 60.3477 20.6328 60.3477 20.375C60.3477 20.1667 60.2747 19.9922 60.1289 19.8516C59.9831 19.7083 59.7591 19.6016 59.457 19.5312L58.457 19.2969C57.9076 19.1667 57.5039 18.9648 57.2461 18.6914C56.9909 18.4154 56.8633 18.0703 56.8633 17.6562C56.8633 17.3177 56.9583 17.0182 57.1484 16.7578C57.3411 16.4974 57.6029 16.293 57.9336 16.1445C58.2669 15.9961 58.6445 15.9219 59.0664 15.9219C59.6602 15.9219 60.1263 16.0521 60.4648 16.3125C60.806 16.5729 61.0482 16.9167 61.1914 17.3437ZM65.2979 16V16.7812H62.1885V16H65.2979ZM63.0947 14.5625H64.0166V20.2812C64.0166 20.5417 64.0544 20.737 64.1299 20.8672C64.208 20.9948 64.307 21.0807 64.4268 21.125C64.5492 21.1667 64.6781 21.1875 64.8135 21.1875C64.915 21.1875 64.9984 21.1823 65.0635 21.1719C65.1286 21.1589 65.1807 21.1484 65.2197 21.1406L65.4072 21.9687C65.3447 21.9922 65.2575 22.0156 65.1455 22.0391C65.0335 22.0651 64.8916 22.0781 64.7197 22.0781C64.4593 22.0781 64.2041 22.0221 63.9541 21.9102C63.7067 21.7982 63.501 21.6276 63.3369 21.3984C63.1755 21.1693 63.0947 20.8802 63.0947 20.5312V14.5625ZM68.4502 22.1406C68.07 22.1406 67.7249 22.069 67.415 21.9258C67.1051 21.7799 66.859 21.5703 66.6768 21.2969C66.4945 21.0208 66.4033 20.6875 66.4033 20.2969C66.4033 19.9531 66.471 19.6745 66.6064 19.4609C66.7419 19.2448 66.9229 19.0755 67.1494 18.9531C67.376 18.8307 67.626 18.7396 67.8994 18.6797C68.1755 18.6172 68.4528 18.5677 68.7314 18.5313C69.096 18.4844 69.3916 18.4492 69.6182 18.4258C69.8473 18.3997 70.014 18.3568 70.1182 18.2969C70.2249 18.237 70.2783 18.1328 70.2783 17.9844V17.9531C70.2783 17.5677 70.1729 17.2682 69.9619 17.0547C69.7536 16.8411 69.4372 16.7344 69.0127 16.7344C68.5726 16.7344 68.2275 16.8307 67.9775 17.0234C67.7275 17.2161 67.5518 17.4219 67.4502 17.6406L66.5752 17.3281C66.7314 16.9635 66.9398 16.6797 67.2002 16.4766C67.4632 16.2708 67.7497 16.1276 68.0596 16.0469C68.3721 15.9635 68.6794 15.9219 68.9814 15.9219C69.1742 15.9219 69.3955 15.9453 69.6455 15.9922C69.8981 16.0365 70.1416 16.1289 70.376 16.2695C70.613 16.4102 70.8096 16.6224 70.9658 16.9062C71.1221 17.1901 71.2002 17.5703 71.2002 18.0469V22H70.2783V21.1875H70.2314C70.1689 21.3177 70.0648 21.457 69.9189 21.6055C69.7731 21.7539 69.5791 21.8802 69.3369 21.9844C69.0947 22.0885 68.7992 22.1406 68.4502 22.1406ZM68.5908 21.3125C68.9554 21.3125 69.2627 21.2409 69.5127 21.0977C69.7653 20.9544 69.9554 20.7695 70.083 20.543C70.2132 20.3164 70.2783 20.0781 70.2783 19.8281V18.9844C70.2393 19.0312 70.1533 19.0742 70.0205 19.1133C69.8903 19.1497 69.7393 19.1823 69.5674 19.2109C69.3981 19.237 69.2327 19.2604 69.0713 19.2812C68.9124 19.2995 68.7835 19.3151 68.6846 19.3281C68.445 19.3594 68.221 19.4102 68.0127 19.4805C67.807 19.5482 67.6403 19.651 67.5127 19.7891C67.3877 19.9245 67.3252 20.1094 67.3252 20.3437C67.3252 20.6641 67.4437 20.9062 67.6807 21.0703C67.9202 21.2318 68.2236 21.3125 68.5908 21.3125ZM72.8828 22V16H73.7734V16.9062H73.8359C73.9453 16.6094 74.1432 16.3685 74.4297 16.1836C74.7161 15.9987 75.0391 15.9062 75.3984 15.9062C75.4661 15.9062 75.5508 15.9076 75.6523 15.9102C75.7539 15.9128 75.8307 15.9167 75.8828 15.9219V16.8594C75.8516 16.8516 75.7799 16.8398 75.668 16.8242C75.5586 16.806 75.4427 16.7969 75.3203 16.7969C75.0286 16.7969 74.7682 16.8581 74.5391 16.9805C74.3125 17.1003 74.1328 17.2669 74 17.4805C73.8698 17.6914 73.8047 17.9323 73.8047 18.2031V22H72.8828ZM81.2256 17.3437L80.3975 17.5781C80.3454 17.4401 80.2686 17.306 80.167 17.1758C80.068 17.043 79.9326 16.9336 79.7607 16.8477C79.5889 16.7617 79.3688 16.7187 79.1006 16.7187C78.7334 16.7187 78.4274 16.8034 78.1826 16.9727C77.9404 17.1393 77.8193 17.3516 77.8193 17.6094C77.8193 17.8385 77.9027 18.0195 78.0693 18.1523C78.236 18.2852 78.4964 18.3958 78.8506 18.4844L79.7412 18.7031C80.2777 18.8333 80.6774 19.0326 80.9404 19.3008C81.2035 19.5664 81.335 19.9089 81.335 20.3281C81.335 20.6719 81.236 20.9792 81.0381 21.25C80.8428 21.5208 80.5693 21.7344 80.2178 21.8906C79.8662 22.0469 79.4574 22.125 78.9912 22.125C78.3792 22.125 77.8727 21.9922 77.4717 21.7266C77.0706 21.4609 76.8167 21.0729 76.71 20.5625L77.585 20.3437C77.6683 20.6667 77.8258 20.9089 78.0576 21.0703C78.292 21.2318 78.598 21.3125 78.9756 21.3125C79.4053 21.3125 79.7464 21.2214 79.999 21.0391C80.2542 20.8542 80.3818 20.6328 80.3818 20.375C80.3818 20.1667 80.3089 19.9922 80.1631 19.8516C80.0173 19.7083 79.7933 19.6016 79.4912 19.5312L78.4912 19.2969C77.9417 19.1667 77.5381 18.9648 77.2803 18.6914C77.0251 18.4154 76.8975 18.0703 76.8975 17.6562C76.8975 17.3177 76.9925 17.0182 77.1826 16.7578C77.3753 16.4974 77.637 16.293 77.9678 16.1445C78.3011 15.9961 78.6787 15.9219 79.1006 15.9219C79.6943 15.9219 80.1605 16.0521 80.499 16.3125C80.8402 16.5729 81.0824 16.9167 81.2256 17.3437Z" fill="white"/>
<defs>
<filter id="filter0_d_0_1" x="863.891" y="213.644" width="274.905" height="272.641" filterUnits="userSpaceOnUse" color-interpolation-filters="sRGB">
<feFlood flood-opacity="0" result="BackgroundImageFix"/>
<feColorMatrix in="SourceAlpha" type="matrix" values="0 0 0 0 0 0 0 0 0 0 0 0 0 0 0 0 0 0 127 0" result="hardAlpha"/>
<feOffset/>
<feGaussianBlur stdDeviation="7.65"/>
<feComposite in2="hardAlpha" operator="out"/>
<feColorMatrix type="matrix" values="0 0 0 0 0 0 0 0 0 0 0 0 0 0 0 0 0 0 0.25 0"/>
<feBlend mode="normal" in2="BackgroundImageFix" result="effect1_dropShadow_0_1"/>
<feBlend mode="normal" in="SourceGraphic" in2="effect1_dropShadow_0_1" result="shape"/>
</filter>
<filter id="filter1_d_0_1" x="591.981" y="273.068" width="275.221" height="282.602" filterUnits="userSpaceOnUse" color-interpolation-filters="sRGB">
<feFlood flood-opacity="0" result="BackgroundImageFix"/>
<feColorMatrix in="SourceAlpha" type="matrix" values="0 0 0 0 0 0 0 0 0 0 0 0 0 0 0 0 0 0 127 0" result="hardAlpha"/>
<feOffset/>
<feGaussianBlur stdDeviation="7.65"/>
<feComposite in2="hardAlpha" operator="out"/>
<feColorMatrix type="matrix" values="0 0 0 0 0 0 0 0 0 0 0 0 0 0 0 0 0 0 0.25 0"/>
<feBlend mode="normal" in2="BackgroundImageFix" result="effect1_dropShadow_0_1"/>
<feBlend mode="normal" in="SourceGraphic" in2="effect1_dropShadow_0_1" result="shape"/>
</filter>
<filter id="filter2_di_0_1" x="619.969" y="296.93" width="225.859" height="235.018" filterUnits="userSpaceOnUse" color-interpolation-filters="sRGB">
<feFlood flood-opacity="0" result="BackgroundImageFix"/>
<feColorMatrix in="SourceAlpha" type="matrix" values="0 0 0 0 0 0 0 0 0 0 0 0 0 0 0 0 0 0 127 0" result="hardAlpha"/>
<feOffset dy="4"/>
<feGaussianBlur stdDeviation="2"/>
<feComposite in2="hardAlpha" operator="out"/>
<feColorMatrix type="matrix" values="0 0 0 0 0 0 0 0 0 0 0 0 0 0 0 0 0 0 0.25 0"/>
<feBlend mode="normal" in2="BackgroundImageFix" result="effect1_dropShadow_0_1"/>
<feBlend mode="normal" in="SourceGraphic" in2="effect1_dropShadow_0_1" result="shape"/>
<feColorMatrix in="SourceAlpha" type="matrix" values="0 0 0 0 0 0 0 0 0 0 0 0 0 0 0 0 0 0 127 0" result="hardAlpha"/>
<feOffset dx="10" dy="-7"/>
<feGaussianBlur stdDeviation="15"/>
<feComposite in2="hardAlpha" operator="arithmetic" k2="-1" k3="1"/>
<feColorMatrix type="matrix" values="0 0 0 0 0.977564 0 0 0 0 0.570246 0 0 0 0 0 0 0 0 1 0"/>
<feBlend mode="normal" in2="shape" result="effect2_innerShadow_0_1"/>
</filter>
<filter id="filter3_d_0_1" x="1136.06" y="273.068" width="275.225" height="282.602" filterUnits="userSpaceOnUse" color-interpolation-filters="sRGB">
<feFlood flood-opacity="0" result="BackgroundImageFix"/>
<feColorMatrix in="SourceAlpha" type="matrix" values="0 0 0 0 0 0 0 0 0 0 0 0 0 0 0 0 0 0 127 0" result="hardAlpha"/>
<feOffset/>
<feGaussianBlur stdDeviation="7.65"/>
<feComposite in2="hardAlpha" operator="out"/>
<feColorMatrix type="matrix" values="0 0 0 0 0 0 0 0 0 0 0 0 0 0 0 0 0 0 0.25 0"/>
<feBlend mode="normal" in2="BackgroundImageFix" result="effect1_dropShadow_0_1"/>
<feBlend mode="normal" in="SourceGraphic" in2="effect1_dropShadow_0_1" result="shape"/>
</filter>
<filter id="filter4_di_0_1" x="1163.44" y="296.93" width="225.857" height="235.018" filterUnits="userSpaceOnUse" color-interpolation-filters="sRGB">
<feFlood flood-opacity="0" result="BackgroundImageFix"/>
<feColorMatrix in="SourceAlpha" type="matrix" values="0 0 0 0 0 0 0 0 0 0 0 0 0 0 0 0 0 0 127 0" result="hardAlpha"/>
<feOffset dy="4"/>
<feGaussianBlur stdDeviation="2"/>
<feComposite in2="hardAlpha" operator="out"/>
<feColorMatrix type="matrix" values="0 0 0 0 0 0 0 0 0 0 0 0 0 0 0 0 0 0 0.25 0"/>
<feBlend mode="normal" in2="BackgroundImageFix" result="effect1_dropShadow_0_1"/>
<feBlend mode="normal" in="SourceGraphic" in2="effect1_dropShadow_0_1" result="shape"/>
<feColorMatrix in="SourceAlpha" type="matrix" values="0 0 0 0 0 0 0 0 0 0 0 0 0 0 0 0 0 0 127 0" result="hardAlpha"/>
<feOffset dx="10" dy="-7"/>
<feGaussianBlur stdDeviation="15"/>
<feComposite in2="hardAlpha" operator="arithmetic" k2="-1" k3="1"/>
<feColorMatrix type="matrix" values="0 0 0 0 0.977564 0 0 0 0 0.570246 0 0 0 0 0 0 0 0 1 0"/>
<feBlend mode="normal" in2="shape" result="effect2_innerShadow_0_1"/>
</filter>
<filter id="filter5_di_0_1" x="892.322" y="237.917" width="225.15" height="225.765" filterUnits="userSpaceOnUse" color-interpolation-filters="sRGB">
<feFlood flood-opacity="0" result="BackgroundImageFix"/>
<feColorMatrix in="SourceAlpha" type="matrix" values="0 0 0 0 0 0 0 0 0 0 0 0 0 0 0 0 0 0 127 0" result="hardAlpha"/>
<feOffset dy="4"/>
<feGaussianBlur stdDeviation="2"/>
<feComposite in2="hardAlpha" operator="out"/>
<feColorMatrix type="matrix" values="0 0 0 0 0 0 0 0 0 0 0 0 0 0 0 0 0 0 0.25 0"/>
<feBlend mode="normal" in2="BackgroundImageFix" result="effect1_dropShadow_0_1"/>
<feBlend mode="normal" in="SourceGraphic" in2="effect1_dropShadow_0_1" result="shape"/>
<feColorMatrix in="SourceAlpha" type="matrix" values="0 0 0 0 0 0 0 0 0 0 0 0 0 0 0 0 0 0 127 0" result="hardAlpha"/>
<feOffset dx="10" dy="-7"/>
<feGaussianBlur stdDeviation="15"/>
<feComposite in2="hardAlpha" operator="arithmetic" k2="-1" k3="1"/>
<feColorMatrix type="matrix" values="0 0 0 0 0.977564 0 0 0 0 0.570246 0 0 0 0 0 0 0 0 1 0"/>
<feBlend mode="normal" in2="shape" result="effect2_innerShadow_0_1"/>
</filter>
</defs>
</svg>
