<svg width="2000" height="1160" viewBox="0 0 2000 1160" fill="none" xmlns="http://www.w3.org/2000/svg">
<g filter="url(#filter0_d_0_1)">
<path d="M997.36 250.038C999.707 245.8 1005.85 245.947 1007.99 250.293L1035.37 305.864C1036.2 307.54 1037.75 308.735 1039.59 309.098L1100.64 321.203C1105.42 322.149 1107.14 328.081 1103.61 331.435L1058.16 374.689C1056.59 376.179 1055.95 378.396 1056.47 380.493L1072.6 444.94C1073.88 450.052 1068.42 454.212 1063.83 451.622L1005.87 418.906C1004.04 417.872 1001.8 417.872 999.97 418.906L941.071 452.15C936.629 454.657 931.283 450.831 932.224 445.818L944.535 380.228C944.903 378.272 944.276 376.261 942.862 374.86L898.988 331.371C895.579 327.993 897.32 322.178 902.024 321.229L962.249 309.071C963.974 308.723 965.458 307.635 966.311 306.096L997.36 250.038Z" fill="#E9E9E9"/>
<path d="M989.486 245.677C995.354 235.082 1010.71 235.451 1016.06 246.315L1042.79 300.557L1102.39 312.374C1114.32 314.739 1118.63 329.572 1109.82 337.955L1065.63 380.004L1081.33 442.755C1084.53 455.535 1070.88 465.935 1059.41 459.46L1002.92 427.575L945.494 459.988C934.391 466.255 921.027 456.69 923.379 444.158L935.396 380.131L892.651 337.764C884.13 329.317 888.482 314.78 900.243 312.406L959.108 300.523L989.486 245.677Z" stroke="#F3F3F3" stroke-width="18"/>
</g>
<g filter="url(#filter1_d_0_1)">
<path d="M689.242 311.694C689.811 306.883 695.552 304.694 699.179 307.905L745.56 348.974C746.958 350.212 748.853 350.728 750.686 350.371L811.781 338.457C816.556 337.526 820.395 342.366 818.403 346.804L792.707 404.048C791.821 406.02 792.065 408.316 793.345 410.057L832.674 463.601C835.794 467.848 832.315 473.765 827.087 473.105L761.052 464.769C758.967 464.506 756.896 465.353 755.592 467.003L713.664 520.072C710.503 524.074 704.106 522.556 703.079 517.561L689.641 452.192C689.24 450.242 687.899 448.618 686.06 447.857L628.986 424.217C624.552 422.38 623.962 416.34 627.957 413.679L679.096 379.625C680.56 378.65 681.523 377.082 681.729 375.335L689.242 311.694Z" fill="#E9E9E9"/>
<path d="M680.304 310.638C681.724 298.611 696.077 293.138 705.145 301.167L750.416 341.253L810.058 329.623C821.995 327.296 831.595 339.395 826.615 350.489L801.633 406.139L839.927 458.273C847.726 468.89 839.03 483.684 825.96 482.034L761.604 473.91L720.726 525.652C712.822 535.656 696.831 531.862 694.264 519.373L681.145 455.562L625.542 432.532C614.457 427.941 612.982 412.838 622.968 406.188L672.953 372.903L680.304 310.638Z" stroke="#F3F3F3" stroke-width="18"/>
</g>
<g filter="url(#filter2_d_0_1)">
<path d="M1314.03 311.694C1313.46 306.883 1307.72 304.694 1304.09 307.905L1257.71 348.974C1256.31 350.212 1254.41 350.728 1252.58 350.371L1191.49 338.457C1186.71 337.526 1182.87 342.366 1184.86 346.804L1210.56 404.048C1211.45 406.02 1211.2 408.316 1209.92 410.057L1170.59 463.601C1167.47 467.848 1170.95 473.765 1176.18 473.105L1242.22 464.769C1244.3 464.506 1246.37 465.353 1247.68 467.003L1289.6 520.072C1292.77 524.074 1299.16 522.556 1300.19 517.561L1313.63 452.192C1314.03 450.242 1315.37 448.618 1317.21 447.857L1374.28 424.217C1378.72 422.38 1379.31 416.34 1375.31 413.679L1324.17 379.625C1322.71 378.65 1321.74 377.082 1321.54 375.335L1314.03 311.694Z" fill="#E9E9E9"/>
<path d="M1322.96 310.638C1321.54 298.611 1307.19 293.138 1298.12 301.167L1252.85 341.253L1193.21 329.623C1181.27 327.296 1171.67 339.395 1176.65 350.489L1201.63 406.139L1163.34 458.273C1155.54 468.89 1164.24 483.684 1177.31 482.034L1241.66 473.91L1282.54 525.652C1290.45 535.656 1306.44 531.862 1309 519.373L1322.12 455.562L1377.73 432.532C1388.81 427.941 1390.29 412.838 1380.3 406.188L1330.31 372.903L1322.96 310.638Z" stroke="#F3F3F3" stroke-width="18"/>
</g>
<rect x="43" y="43" width="42.0156" height="30" rx="3" fill="#444444"/>
<rect x="43.5" y="43.5" width="41.0156" height="29" rx="2.5" stroke="white" stroke-opacity="0.0980392"/>
<path d="M52.4375 61.1094C51.849 61.1094 51.3477 60.9492 50.9336 60.6289C50.5195 60.306 50.2031 59.8385 49.9844 59.2266C49.7656 58.612 49.6563 57.8698 49.6563 57C49.6563 56.1354 49.7656 55.3971 49.9844 54.7852C50.2057 54.1706 50.5234 53.7018 50.9375 53.3789C51.3542 53.0534 51.8542 52.8906 52.4375 52.8906C53.0208 52.8906 53.5195 53.0534 53.9336 53.3789C54.3503 53.7018 54.668 54.1706 54.8867 54.7852C55.1081 55.3971 55.2188 56.1354 55.2188 57C55.2188 57.8698 55.1094 58.612 54.8906 59.2266C54.6719 59.8385 54.3555 60.306 53.9414 60.6289C53.5273 60.9492 53.026 61.1094 52.4375 61.1094ZM52.4375 60.25C53.0208 60.25 53.474 59.9687 53.7969 59.4062C54.1198 58.8437 54.2813 58.0417 54.2813 57C54.2813 56.3073 54.207 55.7174 54.0586 55.2305C53.9128 54.7435 53.7018 54.3724 53.4258 54.1172C53.1523 53.862 52.8229 53.7344 52.4375 53.7344C51.8594 53.7344 51.4076 54.0195 51.082 54.5898C50.7565 55.1576 50.5938 55.9609 50.5938 57C50.5938 57.6927 50.6667 58.2812 50.8125 58.7656C50.9583 59.25 51.168 59.6185 51.4414 59.8711C51.7174 60.1237 52.0495 60.25 52.4375 60.25ZM64.0625 56.3437L63.2344 56.5781C63.1823 56.4401 63.1055 56.306 63.0039 56.1758C62.9049 56.043 62.7695 55.9336 62.5977 55.8477C62.4258 55.7617 62.2057 55.7187 61.9375 55.7187C61.5703 55.7187 61.2643 55.8034 61.0195 55.9727C60.7773 56.1393 60.6563 56.3516 60.6563 56.6094C60.6563 56.8385 60.7396 57.0195 60.9063 57.1523C61.0729 57.2852 61.3333 57.3958 61.6875 57.4844L62.5781 57.7031C63.1146 57.8333 63.5143 58.0326 63.7773 58.3008C64.0404 58.5664 64.1719 58.9089 64.1719 59.3281C64.1719 59.6719 64.0729 59.9792 63.875 60.25C63.6797 60.5208 63.4063 60.7344 63.0547 60.8906C62.7031 61.0469 62.2943 61.125 61.8281 61.125C61.2161 61.125 60.7096 60.9922 60.3086 60.7266C59.9076 60.4609 59.6536 60.0729 59.5469 59.5625L60.4219 59.3437C60.5052 59.6667 60.6628 59.9089 60.8945 60.0703C61.1289 60.2318 61.4349 60.3125 61.8125 60.3125C62.2422 60.3125 62.5833 60.2214 62.8359 60.0391C63.0911 59.8542 63.2188 59.6328 63.2188 59.375C63.2188 59.1667 63.1458 58.9922 63 58.8516C62.8542 58.7083 62.6302 58.6016 62.3281 58.5312L61.3281 58.2969C60.7786 58.1667 60.375 57.9648 60.1172 57.6914C59.862 57.4154 59.7344 57.0703 59.7344 56.6562C59.7344 56.3177 59.8294 56.0182 60.0195 55.7578C60.2122 55.4974 60.474 55.293 60.8047 55.1445C61.138 54.9961 61.5156 54.9219 61.9375 54.9219C62.5313 54.9219 62.9974 55.0521 63.3359 55.3125C63.6771 55.5729 63.9193 55.9167 64.0625 56.3437ZM68.1689 55V55.7812H65.0596V55H68.1689ZM65.9658 53.5625H66.8877V59.2812C66.8877 59.5417 66.9255 59.737 67.001 59.8672C67.0791 59.9948 67.1781 60.0807 67.2979 60.125C67.4202 60.1667 67.5492 60.1875 67.6846 60.1875C67.7861 60.1875 67.8695 60.1823 67.9346 60.1719C67.9997 60.1589 68.0518 60.1484 68.0908 60.1406L68.2783 60.9687C68.2158 60.9922 68.1286 61.0156 68.0166 61.0391C67.9046 61.0651 67.7627 61.0781 67.5908 61.0781C67.3304 61.0781 67.0752 61.0221 66.8252 60.9102C66.5778 60.7982 66.3721 60.6276 66.208 60.3984C66.0465 60.1693 65.9658 59.8802 65.9658 59.5312V53.5625ZM71.3213 61.1406C70.9411 61.1406 70.596 61.069 70.2861 60.9258C69.9762 60.7799 69.7301 60.5703 69.5479 60.2969C69.3656 60.0208 69.2744 59.6875 69.2744 59.2969C69.2744 58.9531 69.3421 58.6745 69.4775 58.4609C69.613 58.2448 69.7939 58.0755 70.0205 57.9531C70.2471 57.8307 70.4971 57.7396 70.7705 57.6797C71.0465 57.6172 71.3239 57.5677 71.6025 57.5313C71.9671 57.4844 72.2627 57.4492 72.4893 57.4258C72.7184 57.3997 72.8851 57.3568 72.9893 57.2969C73.096 57.237 73.1494 57.1328 73.1494 56.9844V56.9531C73.1494 56.5677 73.0439 56.2682 72.833 56.0547C72.6247 55.8411 72.3083 55.7344 71.8838 55.7344C71.4437 55.7344 71.0986 55.8307 70.8486 56.0234C70.5986 56.2161 70.4229 56.4219 70.3213 56.6406L69.4463 56.3281C69.6025 55.9635 69.8109 55.6797 70.0713 55.4766C70.3343 55.2708 70.6208 55.1276 70.9307 55.0469C71.2432 54.9635 71.5505 54.9219 71.8525 54.9219C72.0452 54.9219 72.2666 54.9453 72.5166 54.9922C72.7692 55.0365 73.0127 55.1289 73.2471 55.2695C73.484 55.4102 73.6807 55.6224 73.8369 55.9062C73.9932 56.1901 74.0713 56.5703 74.0713 57.0469V61H73.1494V60.1875H73.1025C73.04 60.3177 72.9359 60.457 72.79 60.6055C72.6442 60.7539 72.4502 60.8802 72.208 60.9844C71.9658 61.0885 71.6702 61.1406 71.3213 61.1406ZM71.4619 60.3125C71.8265 60.3125 72.1338 60.2409 72.3838 60.0977C72.6364 59.9544 72.8265 59.7695 72.9541 59.543C73.0843 59.3164 73.1494 59.0781 73.1494 58.8281V57.9844C73.1104 58.0312 73.0244 58.0742 72.8916 58.1133C72.7614 58.1497 72.6104 58.1823 72.4385 58.2109C72.2692 58.237 72.1038 58.2604 71.9424 58.2812C71.7835 58.2995 71.6546 58.3151 71.5557 58.3281C71.3161 58.3594 71.0921 58.4102 70.8838 58.4805C70.6781 58.5482 70.5114 58.651 70.3838 58.7891C70.2588 58.9245 70.1963 59.1094 70.1963 59.3437C70.1963 59.6641 70.3148 59.9062 70.5518 60.0703C70.7913 60.2318 71.0947 60.3125 71.4619 60.3125ZM75.7539 61V55H76.6445V55.9062H76.707C76.8164 55.6094 77.0143 55.3685 77.3008 55.1836C77.5872 54.9987 77.9102 54.9062 78.2695 54.9062C78.3372 54.9062 78.4219 54.9076 78.5234 54.9102C78.625 54.9128 78.7018 54.9167 78.7539 54.9219V55.8594C78.7227 55.8516 78.651 55.8398 78.5391 55.8242C78.4297 55.806 78.3138 55.7969 78.1914 55.7969C77.8997 55.7969 77.6393 55.8581 77.4102 55.9805C77.1836 56.1003 77.0039 56.2669 76.8711 56.4805C76.7409 56.6914 76.6758 56.9323 76.6758 57.2031V61H75.7539Z" fill="white"/>
<defs>
<filter id="filter0_d_0_1" x="863.891" y="213.644" width="274.905" height="272.641" filterUnits="userSpaceOnUse" color-interpolation-filters="sRGB">
<feFlood flood-opacity="0" result="BackgroundImageFix"/>
<feColorMatrix in="SourceAlpha" type="matrix" values="0 0 0 0 0 0 0 0 0 0 0 0 0 0 0 0 0 0 127 0" result="hardAlpha"/>
<feOffset/>
<feGaussianBlur stdDeviation="7.65"/>
<feComposite in2="hardAlpha" operator="out"/>
<feColorMatrix type="matrix" values="0 0 0 0 0 0 0 0 0 0 0 0 0 0 0 0 0 0 0.25 0"/>
<feBlend mode="normal" in2="BackgroundImageFix" result="effect1_dropShadow_0_1"/>
<feBlend mode="normal" in="SourceGraphic" in2="effect1_dropShadow_0_1" result="shape"/>
</filter>
<filter id="filter1_d_0_1" x="591.981" y="273.068" width="275.221" height="282.602" filterUnits="userSpaceOnUse" color-interpolation-filters="sRGB">
<feFlood flood-opacity="0" result="BackgroundImageFix"/>
<feColorMatrix in="SourceAlpha" type="matrix" values="0 0 0 0 0 0 0 0 0 0 0 0 0 0 0 0 0 0 127 0" result="hardAlpha"/>
<feOffset/>
<feGaussianBlur stdDeviation="7.65"/>
<feComposite in2="hardAlpha" operator="out"/>
<feColorMatrix type="matrix" values="0 0 0 0 0 0 0 0 0 0 0 0 0 0 0 0 0 0 0.25 0"/>
<feBlend mode="normal" in2="BackgroundImageFix" result="effect1_dropShadow_0_1"/>
<feBlend mode="normal" in="SourceGraphic" in2="effect1_dropShadow_0_1" result="shape"/>
</filter>
<filter id="filter2_d_0_1" x="1136.06" y="273.068" width="275.225" height="282.602" filterUnits="userSpaceOnUse" color-interpolation-filters="sRGB">
<feFlood flood-opacity="0" result="BackgroundImageFix"/>
<feColorMatrix in="SourceAlpha" type="matrix" values="0 0 0 0 0 0 0 0 0 0 0 0 0 0 0 0 0 0 127 0" result="hardAlpha"/>
<feOffset/>
<feGaussianBlur stdDeviation="7.65"/>
<feComposite in2="hardAlpha" operator="out"/>
<feColorMatrix type="matrix" values="0 0 0 0 0 0 0 0 0 0 0 0 0 0 0 0 0 0 0.25 0"/>
<feBlend mode="normal" in2="BackgroundImageFix" result="effect1_dropShadow_0_1"/>
<feBlend mode="normal" in="SourceGraphic" in2="effect1_dropShadow_0_1" result="shape"/>
</filter>
</defs>
</svg>
