<svg width="2000" height="1160" viewBox="0 0 2000 1160" fill="none" xmlns="http://www.w3.org/2000/svg">
<g filter="url(#filter0_d_0_1)">
<path d="M997.36 250.038C999.707 245.8 1005.85 245.947 1007.99 250.293L1035.37 305.864C1036.2 307.54 1037.75 308.735 1039.59 309.098L1100.64 321.203C1105.42 322.149 1107.14 328.081 1103.61 331.435L1058.16 374.689C1056.59 376.179 1055.95 378.396 1056.47 380.493L1072.6 444.94C1073.88 450.052 1068.42 454.212 1063.83 451.622L1005.87 418.906C1004.04 417.872 1001.8 417.872 999.97 418.906L941.071 452.15C936.629 454.657 931.283 450.831 932.224 445.818L944.535 380.228C944.903 378.272 944.276 376.261 942.862 374.86L898.988 331.371C895.579 327.993 897.32 322.178 902.024 321.229L962.249 309.071C963.974 308.723 965.458 307.635 966.311 306.096L997.36 250.038Z" fill="#E9E9E9"/>
<path d="M989.486 245.677C995.354 235.082 1010.71 235.451 1016.06 246.315L1042.79 300.557L1102.39 312.374C1114.32 314.739 1118.63 329.572 1109.82 337.955L1065.63 380.004L1081.33 442.755C1084.53 455.535 1070.88 465.935 1059.41 459.46L1002.92 427.575L945.494 459.988C934.391 466.255 921.027 456.69 923.379 444.158L935.396 380.131L892.651 337.764C884.13 329.317 888.482 314.78 900.243 312.406L959.108 300.523L989.486 245.677Z" stroke="#F3F3F3" stroke-width="18"/>
</g>
<g filter="url(#filter1_d_0_1)">
<path d="M689.242 311.693C689.811 306.882 695.552 304.693 699.179 307.905L745.56 348.973C746.958 350.211 748.853 350.728 750.686 350.37L811.781 338.457C816.556 337.526 820.395 342.365 818.403 346.803L792.707 404.048C791.821 406.02 792.065 408.315 793.345 410.057L832.674 463.6C835.794 467.847 832.315 473.765 827.087 473.105L761.052 464.769C758.967 464.506 756.896 465.353 755.592 467.002L713.664 520.072C710.503 524.074 704.106 522.556 703.079 517.56L689.641 452.191C689.24 450.242 687.899 448.618 686.06 447.856L628.986 424.216C624.552 422.38 623.962 416.339 627.957 413.679L679.096 379.625C680.56 378.65 681.523 377.081 681.729 375.334L689.242 311.693Z" fill="#E9E9E9"/>
<path d="M680.304 310.638C681.724 298.61 696.077 293.138 705.145 301.167L750.416 341.252L810.058 329.623C821.995 327.295 831.595 339.394 826.615 350.489L801.633 406.139L839.927 458.272C847.726 468.89 839.03 483.684 825.96 482.034L761.604 473.91L720.726 525.651C712.822 535.656 696.831 531.862 694.264 519.373L681.145 455.562L625.542 432.532C614.457 427.94 612.982 412.838 622.968 406.188L672.953 372.903L680.304 310.638Z" stroke="#F3F3F3" stroke-width="18"/>
</g>
<g filter="url(#filter2_d_0_1)">
<path d="M1314.03 311.694C1313.46 306.883 1307.72 304.694 1304.09 307.906L1257.71 348.974C1256.31 350.212 1254.41 350.729 1252.58 350.371L1191.49 338.458C1186.71 337.527 1182.87 342.366 1184.86 346.804L1210.56 404.049C1211.45 406.021 1211.2 408.316 1209.92 410.058L1170.59 463.601C1167.47 467.848 1170.95 473.766 1176.18 473.106L1242.22 464.77C1244.3 464.507 1246.37 465.354 1247.68 467.003L1289.6 520.073C1292.77 524.074 1299.16 522.557 1300.19 517.561L1313.63 452.192C1314.03 450.243 1315.37 448.619 1317.21 447.857L1374.28 424.217C1378.72 422.381 1379.31 416.34 1375.31 413.68L1324.17 379.626C1322.71 378.651 1321.74 377.082 1321.54 375.335L1314.03 311.694Z" fill="#E9E9E9"/>
<path d="M1322.96 310.639C1321.54 298.611 1307.19 293.139 1298.12 301.168L1252.85 341.253L1193.21 329.624C1181.27 327.296 1171.67 339.395 1176.65 350.49L1201.63 406.14L1163.34 458.273C1155.54 468.891 1164.24 483.685 1177.31 482.035L1241.66 473.911L1282.54 525.652C1290.45 535.657 1306.44 531.863 1309 519.374L1322.12 455.563L1377.73 432.533C1388.81 427.941 1390.29 412.839 1380.3 406.189L1330.31 372.904L1322.96 310.639Z" stroke="#F3F3F3" stroke-width="18"/>
</g>
<g filter="url(#filter3_di_0_1)">
<mask id="path-8-inside-1_0_1" fill="white">
<path d="M680.456 314.808C681.277 307.249 687.434 302.265 694.099 301.881L764.277 466.71C763.311 466.793 762.414 467.274 761.81 468.053L722.64 518.646C715.152 528.318 699.79 524.944 697.045 513.024L683.748 455.283C683.489 454.159 682.692 453.235 681.619 452.812L628.9 432.06C617.966 427.755 616.425 412.914 626.241 406.454L672.53 375.994C673.402 375.42 673.973 374.487 674.086 373.449L680.456 314.808Z"/>
</mask>
<path d="M680.456 314.808C681.277 307.249 687.434 302.265 694.099 301.881L764.277 466.71C763.311 466.793 762.414 467.274 761.81 468.053L722.64 518.646C715.152 528.318 699.79 524.944 697.045 513.024L683.748 455.283C683.489 454.159 682.692 453.235 681.619 452.812L628.9 432.06C617.966 427.755 616.425 412.914 626.241 406.454L672.53 375.994C673.402 375.42 673.973 374.487 674.086 373.449L680.456 314.808Z" fill="#FFEF9B"/>
<path d="M680.456 314.808L669.52 313.62L669.52 313.62L680.456 314.808ZM694.099 301.881L704.22 297.572L701.19 290.454L693.467 290.899L694.099 301.881ZM764.277 466.71L765.221 477.67L780.344 476.367L774.398 462.401L764.277 466.71ZM761.81 468.053L753.113 461.318L753.112 461.319L761.81 468.053ZM722.64 518.646L713.942 511.912L713.942 511.912L722.64 518.646ZM697.045 513.024L707.764 510.555L707.764 510.555L697.045 513.024ZM683.748 455.283L694.468 452.815L694.467 452.813L683.748 455.283ZM681.619 452.812L685.65 442.577L685.648 442.577L681.619 452.812ZM628.9 432.06L624.871 442.295L624.871 442.295L628.9 432.06ZM626.241 406.454L632.288 415.643L632.288 415.643L626.241 406.454ZM672.53 375.994L678.577 385.183L678.578 385.182L672.53 375.994ZM674.086 373.449L685.021 374.638L685.021 374.637L674.086 373.449ZM680.456 314.808L691.391 315.996C691.499 315 691.911 314.312 692.465 313.811C693.08 313.256 693.905 312.91 694.732 312.862L694.099 301.881L693.467 290.899C681.916 291.564 670.972 300.253 669.52 313.62L680.456 314.808ZM694.099 301.881L683.978 306.19L754.156 471.019L764.277 466.71L774.398 462.401L704.22 297.572L694.099 301.881ZM764.277 466.71L763.333 455.751C759.339 456.095 755.618 458.085 753.113 461.318L761.81 468.053L770.507 474.789C769.21 476.464 767.284 477.492 765.221 477.67L764.277 466.71ZM761.81 468.053L753.112 461.319L713.942 511.912L722.64 518.646L731.338 525.38L770.508 474.787L761.81 468.053ZM722.64 518.646L713.942 511.912C712.135 514.247 708.427 513.432 707.764 510.555L697.045 513.024L686.325 515.492C691.153 536.455 718.169 542.39 731.338 525.38L722.64 518.646ZM697.045 513.024L707.764 510.555L694.468 452.815L683.748 455.283L673.029 457.752L686.325 515.492L697.045 513.024ZM683.748 455.283L694.467 452.813C693.394 448.154 690.093 444.327 685.65 442.577L681.619 452.812L677.589 463.047C675.292 462.143 673.585 460.164 673.029 457.753L683.748 455.283ZM681.619 452.812L685.648 442.577L632.929 421.824L628.9 432.06L624.871 442.295L677.59 463.048L681.619 452.812ZM628.9 432.06L632.93 421.824C630.29 420.785 629.918 417.202 632.288 415.643L626.241 406.454L620.194 397.265C602.931 408.625 605.642 434.726 624.871 442.295L628.9 432.06ZM626.241 406.454L632.288 415.643L678.577 385.183L672.53 375.994L666.483 366.805L620.194 397.265L626.241 406.454ZM672.53 375.994L678.578 385.182C682.186 382.807 684.553 378.943 685.021 374.638L674.086 373.449L663.15 372.26C663.393 370.031 664.618 368.033 666.482 366.806L672.53 375.994ZM674.086 373.449L685.021 374.637L691.391 315.996L680.456 314.808L669.52 313.62L663.15 372.261L674.086 373.449Z" fill="#FFCA41" mask="url(#path-8-inside-1_0_1)"/>
</g>
<ellipse cx="728.54" cy="478.857" rx="4.69886" ry="4.5102" transform="rotate(-24.2222 728.54 478.857)" fill="white"/>
<ellipse cx="736.352" cy="466.441" rx="7.51818" ry="7.21633" transform="rotate(-24.2222 736.352 466.441)" fill="white"/>
<rect x="40" y="4" width="51.2969" height="30" rx="3" fill="#444444"/>
<rect x="40.5" y="4.5" width="50.2969" height="29" rx="2.5" stroke="white" stroke-opacity="0.0980392"/>
<path d="M49.4375 22.1094C48.849 22.1094 48.3477 21.9492 47.9336 21.6289C47.5195 21.306 47.2031 20.8385 46.9844 20.2266C46.7656 19.612 46.6563 18.8698 46.6563 18C46.6563 17.1354 46.7656 16.3971 46.9844 15.7852C47.2057 15.1706 47.5234 14.7018 47.9375 14.3789C48.3542 14.0534 48.8542 13.8906 49.4375 13.8906C50.0208 13.8906 50.5195 14.0534 50.9336 14.3789C51.3503 14.7018 51.668 15.1706 51.8867 15.7852C52.1081 16.3971 52.2188 17.1354 52.2188 18C52.2188 18.8698 52.1094 19.612 51.8906 20.2266C51.6719 20.8385 51.3555 21.306 50.9414 21.6289C50.5273 21.9492 50.026 22.1094 49.4375 22.1094ZM49.4375 21.25C50.0208 21.25 50.474 20.9687 50.7969 20.4062C51.1198 19.8437 51.2813 19.0417 51.2813 18C51.2813 17.3073 51.207 16.7174 51.0586 16.2305C50.9128 15.7435 50.7018 15.3724 50.4258 15.1172C50.1523 14.862 49.8229 14.7344 49.4375 14.7344C48.8594 14.7344 48.4076 15.0195 48.082 15.5898C47.7565 16.1576 47.5938 16.9609 47.5938 18C47.5938 18.6927 47.6667 19.2812 47.8125 19.7656C47.9583 20.25 48.168 20.6185 48.4414 20.8711C48.7174 21.1237 49.0495 21.25 49.4375 21.25ZM54.1113 22.0625C53.9186 22.0625 53.7533 21.9935 53.6152 21.8555C53.4772 21.7174 53.4082 21.5521 53.4082 21.3594C53.4082 21.1667 53.4772 21.0013 53.6152 20.8633C53.7533 20.7253 53.9186 20.6562 54.1113 20.6562C54.304 20.6562 54.4694 20.7253 54.6074 20.8633C54.7454 21.0013 54.8145 21.1667 54.8145 21.3594C54.8145 21.487 54.7819 21.6042 54.7168 21.7109C54.6543 21.8177 54.5697 21.9036 54.4629 21.9687C54.3587 22.0313 54.2415 22.0625 54.1113 22.0625ZM58.792 22.1094C58.3337 22.1094 57.9209 22.0182 57.5537 21.8359C57.1865 21.6536 56.8923 21.4036 56.6709 21.0859C56.4495 20.7682 56.3285 20.4062 56.3076 20H57.2451C57.2816 20.362 57.4456 20.6615 57.7373 20.8984C58.0316 21.1328 58.3831 21.25 58.792 21.25C59.1201 21.25 59.4118 21.1732 59.667 21.0195C59.9248 20.8659 60.1266 20.6549 60.2725 20.3867C60.4209 20.1159 60.4951 19.8099 60.4951 19.4687C60.4951 19.1198 60.4183 18.8086 60.2646 18.5352C60.1136 18.2591 59.9053 18.0417 59.6396 17.8828C59.374 17.724 59.0706 17.6432 58.7295 17.6406C58.4847 17.638 58.2334 17.6758 57.9756 17.7539C57.7178 17.8294 57.5055 17.9271 57.3389 18.0469L56.4326 17.9375L56.917 14H61.0732V14.8594H57.7295L57.4482 17.2187H57.4951C57.6592 17.0885 57.8649 16.9805 58.1123 16.8945C58.3597 16.8086 58.6175 16.7656 58.8857 16.7656C59.3753 16.7656 59.8115 16.8828 60.1943 17.1172C60.5798 17.349 60.8818 17.6667 61.1006 18.0703C61.3219 18.474 61.4326 18.9349 61.4326 19.4531C61.4326 19.9635 61.318 20.4193 61.0889 20.8203C60.8623 21.2187 60.5498 21.5339 60.1514 21.7656C59.7529 21.9948 59.2998 22.1094 58.792 22.1094ZM70.3438 17.3437L69.5156 17.5781C69.4635 17.4401 69.3867 17.306 69.2852 17.1758C69.1862 17.043 69.0508 16.9336 68.8789 16.8477C68.707 16.7617 68.487 16.7187 68.2188 16.7187C67.8516 16.7187 67.5456 16.8034 67.3008 16.9727C67.0586 17.1393 66.9375 17.3516 66.9375 17.6094C66.9375 17.8385 67.0208 18.0195 67.1875 18.1523C67.3542 18.2852 67.6146 18.3958 67.9688 18.4844L68.8594 18.7031C69.3958 18.8333 69.7956 19.0326 70.0586 19.3008C70.3216 19.5664 70.4531 19.9089 70.4531 20.3281C70.4531 20.6719 70.3542 20.9792 70.1563 21.25C69.9609 21.5208 69.6875 21.7344 69.3359 21.8906C68.9844 22.0469 68.5755 22.125 68.1094 22.125C67.4974 22.125 66.9909 21.9922 66.5898 21.7266C66.1888 21.4609 65.9349 21.0729 65.8281 20.5625L66.7031 20.3437C66.7865 20.6667 66.944 20.9089 67.1758 21.0703C67.4102 21.2318 67.7161 21.3125 68.0938 21.3125C68.5234 21.3125 68.8646 21.2214 69.1172 21.0391C69.3724 20.8542 69.5 20.6328 69.5 20.375C69.5 20.1667 69.4271 19.9922 69.2813 19.8516C69.1354 19.7083 68.9115 19.6016 68.6094 19.5312L67.6094 19.2969C67.0599 19.1667 66.6562 18.9648 66.3984 18.6914C66.1432 18.4154 66.0156 18.0703 66.0156 17.6562C66.0156 17.3177 66.1107 17.0182 66.3008 16.7578C66.4935 16.4974 66.7552 16.293 67.0859 16.1445C67.4193 15.9961 67.7969 15.9219 68.2188 15.9219C68.8125 15.9219 69.2786 16.0521 69.6172 16.3125C69.9583 16.5729 70.2005 16.9167 70.3438 17.3437ZM74.4502 16V16.7812H71.3408V16H74.4502ZM72.2471 14.5625H73.1689V20.2812C73.1689 20.5417 73.2067 20.737 73.2822 20.8672C73.3604 20.9948 73.4593 21.0807 73.5791 21.125C73.7015 21.1667 73.8304 21.1875 73.9658 21.1875C74.0674 21.1875 74.1507 21.1823 74.2158 21.1719C74.2809 21.1589 74.333 21.1484 74.3721 21.1406L74.5596 21.9687C74.4971 21.9922 74.4098 22.0156 74.2979 22.0391C74.1859 22.0651 74.0439 22.0781 73.8721 22.0781C73.6117 22.0781 73.3564 22.0221 73.1064 21.9102C72.859 21.7982 72.6533 21.6276 72.4893 21.3984C72.3278 21.1693 72.2471 20.8802 72.2471 20.5312V14.5625ZM77.6025 22.1406C77.2223 22.1406 76.8773 22.069 76.5674 21.9258C76.2575 21.7799 76.0114 21.5703 75.8291 21.2969C75.6468 21.0208 75.5557 20.6875 75.5557 20.2969C75.5557 19.9531 75.6234 19.6745 75.7588 19.4609C75.8942 19.2448 76.0752 19.0755 76.3018 18.9531C76.5283 18.8307 76.7783 18.7396 77.0518 18.6797C77.3278 18.6172 77.6051 18.5677 77.8838 18.5313C78.2484 18.4844 78.5439 18.4492 78.7705 18.4258C78.9997 18.3997 79.1663 18.3568 79.2705 18.2969C79.3773 18.237 79.4307 18.1328 79.4307 17.9844V17.9531C79.4307 17.5677 79.3252 17.2682 79.1143 17.0547C78.9059 16.8411 78.5895 16.7344 78.165 16.7344C77.7249 16.7344 77.3799 16.8307 77.1299 17.0234C76.8799 17.2161 76.7041 17.4219 76.6025 17.6406L75.7275 17.3281C75.8838 16.9635 76.0921 16.6797 76.3525 16.4766C76.6156 16.2708 76.902 16.1276 77.2119 16.0469C77.5244 15.9635 77.8317 15.9219 78.1338 15.9219C78.3265 15.9219 78.5479 15.9453 78.7979 15.9922C79.0505 16.0365 79.2939 16.1289 79.5283 16.2695C79.7653 16.4102 79.9619 16.6224 80.1182 16.9062C80.2744 17.1901 80.3525 17.5703 80.3525 18.0469V22H79.4307V21.1875H79.3838C79.3213 21.3177 79.2171 21.457 79.0713 21.6055C78.9255 21.7539 78.7314 21.8802 78.4893 21.9844C78.2471 22.0885 77.9515 22.1406 77.6025 22.1406ZM77.7432 21.3125C78.1077 21.3125 78.415 21.2409 78.665 21.0977C78.9176 20.9544 79.1077 20.7695 79.2354 20.543C79.3656 20.3164 79.4307 20.0781 79.4307 19.8281V18.9844C79.3916 19.0312 79.3057 19.0742 79.1729 19.1133C79.0426 19.1497 78.8916 19.1823 78.7197 19.2109C78.5505 19.237 78.3851 19.2604 78.2236 19.2812C78.0648 19.2995 77.9359 19.3151 77.8369 19.3281C77.5973 19.3594 77.3734 19.4102 77.165 19.4805C76.9593 19.5482 76.7926 19.651 76.665 19.7891C76.54 19.9245 76.4775 20.1094 76.4775 20.3437C76.4775 20.6641 76.596 20.9062 76.833 21.0703C77.0726 21.2318 77.376 21.3125 77.7432 21.3125ZM82.0352 22V16H82.9258V16.9062H82.9883C83.0977 16.6094 83.2956 16.3685 83.582 16.1836C83.8685 15.9987 84.1914 15.9062 84.5508 15.9062C84.6185 15.9062 84.7031 15.9076 84.8047 15.9102C84.9063 15.9128 84.9831 15.9167 85.0352 15.9219V16.8594C85.0039 16.8516 84.9323 16.8398 84.8203 16.8242C84.7109 16.806 84.5951 16.7969 84.4727 16.7969C84.181 16.7969 83.9206 16.8581 83.6914 16.9805C83.4648 17.1003 83.2852 17.2669 83.1523 17.4805C83.0221 17.6914 82.957 17.9323 82.957 18.2031V22H82.0352Z" fill="white"/>
<defs>
<filter id="filter0_d_0_1" x="863.891" y="213.644" width="274.905" height="272.641" filterUnits="userSpaceOnUse" color-interpolation-filters="sRGB">
<feFlood flood-opacity="0" result="BackgroundImageFix"/>
<feColorMatrix in="SourceAlpha" type="matrix" values="0 0 0 0 0 0 0 0 0 0 0 0 0 0 0 0 0 0 127 0" result="hardAlpha"/>
<feOffset/>
<feGaussianBlur stdDeviation="7.65"/>
<feComposite in2="hardAlpha" operator="out"/>
<feColorMatrix type="matrix" values="0 0 0 0 0 0 0 0 0 0 0 0 0 0 0 0 0 0 0.25 0"/>
<feBlend mode="normal" in2="BackgroundImageFix" result="effect1_dropShadow_0_1"/>
<feBlend mode="normal" in="SourceGraphic" in2="effect1_dropShadow_0_1" result="shape"/>
</filter>
<filter id="filter1_d_0_1" x="591.981" y="273.067" width="275.221" height="282.602" filterUnits="userSpaceOnUse" color-interpolation-filters="sRGB">
<feFlood flood-opacity="0" result="BackgroundImageFix"/>
<feColorMatrix in="SourceAlpha" type="matrix" values="0 0 0 0 0 0 0 0 0 0 0 0 0 0 0 0 0 0 127 0" result="hardAlpha"/>
<feOffset/>
<feGaussianBlur stdDeviation="7.65"/>
<feComposite in2="hardAlpha" operator="out"/>
<feColorMatrix type="matrix" values="0 0 0 0 0 0 0 0 0 0 0 0 0 0 0 0 0 0 0.25 0"/>
<feBlend mode="normal" in2="BackgroundImageFix" result="effect1_dropShadow_0_1"/>
<feBlend mode="normal" in="SourceGraphic" in2="effect1_dropShadow_0_1" result="shape"/>
</filter>
<filter id="filter2_d_0_1" x="1136.06" y="273.068" width="275.225" height="282.602" filterUnits="userSpaceOnUse" color-interpolation-filters="sRGB">
<feFlood flood-opacity="0" result="BackgroundImageFix"/>
<feColorMatrix in="SourceAlpha" type="matrix" values="0 0 0 0 0 0 0 0 0 0 0 0 0 0 0 0 0 0 127 0" result="hardAlpha"/>
<feOffset/>
<feGaussianBlur stdDeviation="7.65"/>
<feComposite in2="hardAlpha" operator="out"/>
<feColorMatrix type="matrix" values="0 0 0 0 0 0 0 0 0 0 0 0 0 0 0 0 0 0 0.25 0"/>
<feBlend mode="normal" in2="BackgroundImageFix" result="effect1_dropShadow_0_1"/>
<feBlend mode="normal" in="SourceGraphic" in2="effect1_dropShadow_0_1" result="shape"/>
</filter>
<filter id="filter3_di_0_1" x="615.711" y="294.881" width="158.566" height="237.397" filterUnits="userSpaceOnUse" color-interpolation-filters="sRGB">
<feFlood flood-opacity="0" result="BackgroundImageFix"/>
<feColorMatrix in="SourceAlpha" type="matrix" values="0 0 0 0 0 0 0 0 0 0 0 0 0 0 0 0 0 0 127 0" result="hardAlpha"/>
<feOffset dy="4"/>
<feGaussianBlur stdDeviation="2"/>
<feComposite in2="hardAlpha" operator="out"/>
<feColorMatrix type="matrix" values="0 0 0 0 0 0 0 0 0 0 0 0 0 0 0 0 0 0 0.25 0"/>
<feBlend mode="normal" in2="BackgroundImageFix" result="effect1_dropShadow_0_1"/>
<feBlend mode="normal" in="SourceGraphic" in2="effect1_dropShadow_0_1" result="shape"/>
<feColorMatrix in="SourceAlpha" type="matrix" values="0 0 0 0 0 0 0 0 0 0 0 0 0 0 0 0 0 0 127 0" result="hardAlpha"/>
<feOffset dx="10" dy="-7"/>
<feGaussianBlur stdDeviation="15"/>
<feComposite in2="hardAlpha" operator="arithmetic" k2="-1" k3="1"/>
<feColorMatrix type="matrix" values="0 0 0 0 1 0 0 0 0 0.703526 0 0 0 0 0.288462 0 0 0 1 0"/>
<feBlend mode="normal" in2="shape" result="effect2_innerShadow_0_1"/>
</filter>
</defs>
</svg>
