<svg width="2000" height="1160" viewBox="0 0 2000 1160" fill="none" xmlns="http://www.w3.org/2000/svg">
<g filter="url(#filter0_d_0_1)">
<path d="M997.36 250.038C999.707 245.8 1005.85 245.947 1007.99 250.293L1035.37 305.864C1036.2 307.54 1037.75 308.735 1039.59 309.098L1100.64 321.203C1105.42 322.149 1107.14 328.081 1103.61 331.435L1058.16 374.689C1056.59 376.179 1055.95 378.396 1056.47 380.493L1072.6 444.94C1073.88 450.052 1068.42 454.212 1063.83 451.622L1005.87 418.906C1004.04 417.872 1001.8 417.872 999.97 418.906L941.071 452.15C936.629 454.657 931.283 450.831 932.224 445.818L944.535 380.228C944.903 378.272 944.276 376.261 942.862 374.86L898.988 331.371C895.579 327.993 897.32 322.178 902.024 321.229L962.249 309.071C963.974 308.723 965.458 307.635 966.311 306.096L997.36 250.038Z" fill="#E9E9E9"/>
<path d="M989.486 245.677C995.354 235.082 1010.71 235.451 1016.06 246.315L1042.79 300.557L1102.39 312.374C1114.32 314.739 1118.63 329.572 1109.82 337.955L1065.63 380.004L1081.33 442.755C1084.53 455.535 1070.88 465.935 1059.41 459.46L1002.92 427.575L945.494 459.988C934.391 466.255 921.027 456.69 923.379 444.158L935.396 380.131L892.651 337.764C884.13 329.317 888.482 314.78 900.243 312.406L959.108 300.523L989.486 245.677Z" stroke="#F3F3F3" stroke-width="18"/>
</g>
<g filter="url(#filter1_d_0_1)">
<path d="M680.304 310.639C681.724 298.611 696.077 293.139 705.145 301.168L750.416 341.253L810.058 329.624C821.995 327.296 831.595 339.395 826.615 350.49L801.633 406.14L839.927 458.273C847.726 468.891 839.03 483.685 825.96 482.035L761.604 473.911L720.726 525.652C712.822 535.657 696.831 531.863 694.264 519.374L681.145 455.563L625.542 432.533C614.457 427.941 612.982 412.839 622.968 406.189L672.953 372.904L680.304 310.639Z" stroke="#F3F3F3" stroke-width="18" shape-rendering="crispEdges"/>
</g>
<g filter="url(#filter2_di_0_1)">
<path d="M688.57 317.392C689.422 310.176 698.034 306.892 703.475 311.709L744.451 347.992C746.549 349.849 749.391 350.624 752.14 350.088L806.1 339.566C813.262 338.17 819.022 345.429 816.033 352.085L793.423 402.454C792.096 405.412 792.461 408.855 794.381 411.468L828.542 457.975C833.221 464.345 828.003 473.222 820.161 472.232L762.733 464.982C759.605 464.587 756.498 465.858 754.543 468.332L717.66 515.016C712.917 521.019 703.323 518.743 701.782 511.249L689.909 453.495C689.338 450.713 687.487 448.365 684.916 447.159L634.646 423.575C628.186 420.544 627.654 411.559 633.712 407.787L677.731 380.376C680.053 378.931 681.591 376.508 681.912 373.792L688.57 317.392Z" fill="#FFEF9B"/>
<path d="M688.57 317.392C689.422 310.176 698.034 306.892 703.475 311.709L744.451 347.992C746.549 349.849 749.391 350.624 752.14 350.088L806.1 339.566C813.262 338.17 819.022 345.429 816.033 352.085L793.423 402.454C792.096 405.412 792.461 408.855 794.381 411.468L828.542 457.975C833.221 464.345 828.003 473.222 820.161 472.232L762.733 464.982C759.605 464.587 756.498 465.858 754.543 468.332L717.66 515.016C712.917 521.019 703.323 518.743 701.782 511.249L689.909 453.495C689.338 450.713 687.487 448.365 684.916 447.159L634.646 423.575C628.186 420.544 627.654 411.559 633.712 407.787L677.731 380.376C680.053 378.931 681.591 376.508 681.912 373.792L688.57 317.392Z" stroke="#FFCA41" stroke-width="11"/>
</g>
<path d="M750.85 359.087L753.835 358.765C756.878 358.437 759.802 360.049 761.148 362.799C763.189 366.965 760.861 371.951 756.357 373.062L746.682 375.449C741.578 376.709 736.218 374.77 733.101 370.538L725.198 359.809C722.96 356.77 723.521 352.505 726.47 350.149C729.172 347.99 733.044 348.117 735.598 350.45L741.818 356.13C744.265 358.365 747.555 359.442 750.85 359.087Z" fill="white"/>
<circle cx="771.964" cy="365.8" r="6.76531" transform="rotate(-22.2472 771.964 365.8)" fill="white"/>
<circle cx="730.499" cy="472.91" r="4.5102" transform="rotate(-22.2472 730.499 472.91)" fill="white"/>
<circle cx="738.28" cy="460.957" r="7.21633" transform="rotate(-22.2472 738.28 460.957)" fill="white"/>
<g filter="url(#filter3_d_0_1)">
<path d="M1314.03 311.694C1313.46 306.883 1307.72 304.694 1304.09 307.906L1257.71 348.974C1256.31 350.212 1254.41 350.729 1252.58 350.371L1191.49 338.458C1186.71 337.527 1182.87 342.366 1184.86 346.804L1210.56 404.049C1211.45 406.021 1211.2 408.316 1209.92 410.058L1170.59 463.601C1167.47 467.848 1170.95 473.766 1176.18 473.106L1242.22 464.77C1244.3 464.507 1246.37 465.354 1247.68 467.003L1289.6 520.073C1292.77 524.074 1299.16 522.557 1300.19 517.561L1313.63 452.192C1314.03 450.243 1315.37 448.619 1317.21 447.857L1374.28 424.217C1378.72 422.381 1379.31 416.34 1375.31 413.68L1324.17 379.626C1322.71 378.651 1321.74 377.082 1321.54 375.335L1314.03 311.694Z" fill="#E9E9E9"/>
<path d="M1322.96 310.639C1321.54 298.611 1307.19 293.139 1298.12 301.168L1252.85 341.253L1193.21 329.624C1181.27 327.296 1171.67 339.395 1176.65 350.49L1201.63 406.14L1163.34 458.273C1155.54 468.891 1164.24 483.685 1177.31 482.035L1241.66 473.911L1282.54 525.652C1290.45 535.657 1306.44 531.863 1309 519.374L1322.12 455.563L1377.73 432.533C1388.81 427.941 1390.29 412.839 1380.3 406.189L1330.31 372.904L1322.96 310.639Z" stroke="#F3F3F3" stroke-width="18"/>
</g>
<rect x="43" y="43" width="40.25" height="30" rx="3" fill="#444444"/>
<rect x="43.5" y="43.5" width="39.25" height="29" rx="2.5" stroke="white" stroke-opacity="0.0980392"/>
<path d="M52.6406 53V61H51.6719V54.0156H51.625L49.6719 55.3125V54.3281L51.6719 53H52.6406ZM62.3008 56.3437L61.4727 56.5781C61.4206 56.4401 61.3438 56.306 61.2422 56.1758C61.1432 56.043 61.0078 55.9336 60.8359 55.8477C60.6641 55.7617 60.444 55.7187 60.1758 55.7187C59.8086 55.7187 59.5026 55.8034 59.2578 55.9727C59.0156 56.1393 58.8945 56.3516 58.8945 56.6094C58.8945 56.8385 58.9779 57.0195 59.1445 57.1523C59.3112 57.2852 59.5716 57.3958 59.9258 57.4844L60.8164 57.7031C61.3529 57.8333 61.7526 58.0326 62.0156 58.3008C62.2786 58.5664 62.4102 58.9089 62.4102 59.3281C62.4102 59.6719 62.3112 59.9792 62.1133 60.25C61.918 60.5208 61.6445 60.7344 61.293 60.8906C60.9414 61.0469 60.5326 61.125 60.0664 61.125C59.4544 61.125 58.9479 60.9922 58.5469 60.7266C58.1458 60.4609 57.8919 60.0729 57.7852 59.5625L58.6602 59.3437C58.7435 59.6667 58.901 59.9089 59.1328 60.0703C59.3672 60.2318 59.6732 60.3125 60.0508 60.3125C60.4805 60.3125 60.8216 60.2214 61.0742 60.0391C61.3294 59.8542 61.457 59.6328 61.457 59.375C61.457 59.1667 61.3841 58.9922 61.2383 58.8516C61.0924 58.7083 60.8685 58.6016 60.5664 58.5312L59.5664 58.2969C59.0169 58.1667 58.6133 57.9648 58.3555 57.6914C58.1003 57.4154 57.9727 57.0703 57.9727 56.6562C57.9727 56.3177 58.0677 56.0182 58.2578 55.7578C58.4505 55.4974 58.7122 55.293 59.043 55.1445C59.3763 54.9961 59.7539 54.9219 60.1758 54.9219C60.7695 54.9219 61.2357 55.0521 61.5742 55.3125C61.9154 55.5729 62.1576 55.9167 62.3008 56.3437ZM66.4072 55V55.7812H63.2979V55H66.4072ZM64.2041 53.5625H65.126V59.2812C65.126 59.5417 65.1637 59.737 65.2393 59.8672C65.3174 59.9948 65.4163 60.0807 65.5361 60.125C65.6585 60.1667 65.7874 60.1875 65.9229 60.1875C66.0244 60.1875 66.1077 60.1823 66.1729 60.1719C66.238 60.1589 66.29 60.1484 66.3291 60.1406L66.5166 60.9687C66.4541 60.9922 66.3669 61.0156 66.2549 61.0391C66.1429 61.0651 66.001 61.0781 65.8291 61.0781C65.5687 61.0781 65.3135 61.0221 65.0635 60.9102C64.8161 60.7982 64.6104 60.6276 64.4463 60.3984C64.2848 60.1693 64.2041 59.8802 64.2041 59.5312V53.5625ZM69.5596 61.1406C69.1794 61.1406 68.8343 61.069 68.5244 60.9258C68.2145 60.7799 67.9684 60.5703 67.7861 60.2969C67.6038 60.0208 67.5127 59.6875 67.5127 59.2969C67.5127 58.9531 67.5804 58.6745 67.7158 58.4609C67.8512 58.2448 68.0322 58.0755 68.2588 57.9531C68.4854 57.8307 68.7354 57.7396 69.0088 57.6797C69.2848 57.6172 69.5622 57.5677 69.8408 57.5313C70.2054 57.4844 70.501 57.4492 70.7275 57.4258C70.9567 57.3997 71.1234 57.3568 71.2275 57.2969C71.3343 57.237 71.3877 57.1328 71.3877 56.9844V56.9531C71.3877 56.5677 71.2822 56.2682 71.0713 56.0547C70.863 55.8411 70.5465 55.7344 70.1221 55.7344C69.682 55.7344 69.3369 55.8307 69.0869 56.0234C68.8369 56.2161 68.6611 56.4219 68.5596 56.6406L67.6846 56.3281C67.8408 55.9635 68.0492 55.6797 68.3096 55.4766C68.5726 55.2708 68.859 55.1276 69.1689 55.0469C69.4814 54.9635 69.7887 54.9219 70.0908 54.9219C70.2835 54.9219 70.5049 54.9453 70.7549 54.9922C71.0075 55.0365 71.251 55.1289 71.4854 55.2695C71.7223 55.4102 71.9189 55.6224 72.0752 55.9062C72.2314 56.1901 72.3096 56.5703 72.3096 57.0469V61H71.3877V60.1875H71.3408C71.2783 60.3177 71.1742 60.457 71.0283 60.6055C70.8825 60.7539 70.6885 60.8802 70.4463 60.9844C70.2041 61.0885 69.9085 61.1406 69.5596 61.1406ZM69.7002 60.3125C70.0648 60.3125 70.3721 60.2409 70.6221 60.0977C70.8747 59.9544 71.0648 59.7695 71.1924 59.543C71.3226 59.3164 71.3877 59.0781 71.3877 58.8281V57.9844C71.3486 58.0312 71.2627 58.0742 71.1299 58.1133C70.9997 58.1497 70.8486 58.1823 70.6768 58.2109C70.5075 58.237 70.3421 58.2604 70.1807 58.2812C70.0218 58.2995 69.8929 58.3151 69.7939 58.3281C69.5544 58.3594 69.3304 58.4102 69.1221 58.4805C68.9163 58.5482 68.7497 58.651 68.6221 58.7891C68.4971 58.9245 68.4346 59.1094 68.4346 59.3437C68.4346 59.6641 68.5531 59.9062 68.79 60.0703C69.0296 60.2318 69.333 60.3125 69.7002 60.3125ZM73.9922 61V55H74.8828V55.9062H74.9453C75.0547 55.6094 75.2526 55.3685 75.5391 55.1836C75.8255 54.9987 76.1484 54.9062 76.5078 54.9062C76.5755 54.9062 76.6602 54.9076 76.7617 54.9102C76.8633 54.9128 76.9401 54.9167 76.9922 54.9219V55.8594C76.9609 55.8516 76.8893 55.8398 76.7773 55.8242C76.668 55.806 76.5521 55.7969 76.4297 55.7969C76.138 55.7969 75.8776 55.8581 75.6484 55.9805C75.4219 56.1003 75.2422 56.2669 75.1094 56.4805C74.9792 56.6914 74.9141 56.9323 74.9141 57.2031V61H73.9922Z" fill="white"/>
<defs>
<filter id="filter0_d_0_1" x="863.891" y="213.644" width="274.905" height="272.641" filterUnits="userSpaceOnUse" color-interpolation-filters="sRGB">
<feFlood flood-opacity="0" result="BackgroundImageFix"/>
<feColorMatrix in="SourceAlpha" type="matrix" values="0 0 0 0 0 0 0 0 0 0 0 0 0 0 0 0 0 0 127 0" result="hardAlpha"/>
<feOffset/>
<feGaussianBlur stdDeviation="7.65"/>
<feComposite in2="hardAlpha" operator="out"/>
<feColorMatrix type="matrix" values="0 0 0 0 0 0 0 0 0 0 0 0 0 0 0 0 0 0 0.25 0"/>
<feBlend mode="normal" in2="BackgroundImageFix" result="effect1_dropShadow_0_1"/>
<feBlend mode="normal" in="SourceGraphic" in2="effect1_dropShadow_0_1" result="shape"/>
</filter>
<filter id="filter1_d_0_1" x="591.981" y="273.068" width="275.221" height="282.602" filterUnits="userSpaceOnUse" color-interpolation-filters="sRGB">
<feFlood flood-opacity="0" result="BackgroundImageFix"/>
<feColorMatrix in="SourceAlpha" type="matrix" values="0 0 0 0 0 0 0 0 0 0 0 0 0 0 0 0 0 0 127 0" result="hardAlpha"/>
<feOffset/>
<feGaussianBlur stdDeviation="7.65"/>
<feComposite in2="hardAlpha" operator="out"/>
<feColorMatrix type="matrix" values="0 0 0 0 0 0 0 0 0 0 0 0 0 0 0 0 0 0 0.25 0"/>
<feBlend mode="normal" in2="BackgroundImageFix" result="effect1_dropShadow_0_1"/>
<feBlend mode="normal" in="SourceGraphic" in2="effect1_dropShadow_0_1" result="shape"/>
</filter>
<filter id="filter2_di_0_1" x="619.969" y="296.93" width="225.859" height="235.018" filterUnits="userSpaceOnUse" color-interpolation-filters="sRGB">
<feFlood flood-opacity="0" result="BackgroundImageFix"/>
<feColorMatrix in="SourceAlpha" type="matrix" values="0 0 0 0 0 0 0 0 0 0 0 0 0 0 0 0 0 0 127 0" result="hardAlpha"/>
<feOffset dy="4"/>
<feGaussianBlur stdDeviation="2"/>
<feComposite in2="hardAlpha" operator="out"/>
<feColorMatrix type="matrix" values="0 0 0 0 0 0 0 0 0 0 0 0 0 0 0 0 0 0 0.25 0"/>
<feBlend mode="normal" in2="BackgroundImageFix" result="effect1_dropShadow_0_1"/>
<feBlend mode="normal" in="SourceGraphic" in2="effect1_dropShadow_0_1" result="shape"/>
<feColorMatrix in="SourceAlpha" type="matrix" values="0 0 0 0 0 0 0 0 0 0 0 0 0 0 0 0 0 0 127 0" result="hardAlpha"/>
<feOffset dx="10" dy="-7"/>
<feGaussianBlur stdDeviation="15"/>
<feComposite in2="hardAlpha" operator="arithmetic" k2="-1" k3="1"/>
<feColorMatrix type="matrix" values="0 0 0 0 1 0 0 0 0 0.703526 0 0 0 0 0.288462 0 0 0 1 0"/>
<feBlend mode="normal" in2="shape" result="effect2_innerShadow_0_1"/>
</filter>
<filter id="filter3_d_0_1" x="1136.06" y="273.068" width="275.225" height="282.602" filterUnits="userSpaceOnUse" color-interpolation-filters="sRGB">
<feFlood flood-opacity="0" result="BackgroundImageFix"/>
<feColorMatrix in="SourceAlpha" type="matrix" values="0 0 0 0 0 0 0 0 0 0 0 0 0 0 0 0 0 0 127 0" result="hardAlpha"/>
<feOffset/>
<feGaussianBlur stdDeviation="7.65"/>
<feComposite in2="hardAlpha" operator="out"/>
<feColorMatrix type="matrix" values="0 0 0 0 0 0 0 0 0 0 0 0 0 0 0 0 0 0 0.25 0"/>
<feBlend mode="normal" in2="BackgroundImageFix" result="effect1_dropShadow_0_1"/>
<feBlend mode="normal" in="SourceGraphic" in2="effect1_dropShadow_0_1" result="shape"/>
</filter>
</defs>
</svg>
