<svg width="2000" height="1160" viewBox="0 0 2000 1160" fill="none" xmlns="http://www.w3.org/2000/svg">
<g filter="url(#filter0_d_0_1)">
<path d="M997.36 250.038C999.707 245.8 1005.85 245.947 1007.99 250.293L1035.37 305.864C1036.2 307.54 1037.75 308.735 1039.59 309.098L1100.64 321.203C1105.42 322.149 1107.14 328.081 1103.61 331.435L1058.16 374.689C1056.59 376.179 1055.95 378.396 1056.47 380.493L1072.6 444.94C1073.88 450.052 1068.42 454.212 1063.83 451.622L1005.87 418.906C1004.04 417.872 1001.8 417.872 999.97 418.906L941.071 452.15C936.629 454.657 931.283 450.831 932.224 445.818L944.535 380.228C944.903 378.272 944.276 376.261 942.862 374.86L898.988 331.371C895.579 327.993 897.32 322.178 902.024 321.229L962.249 309.071C963.974 308.723 965.458 307.635 966.311 306.096L997.36 250.038Z" fill="#E9E9E9"/>
<path d="M989.486 245.677C995.354 235.082 1010.71 235.451 1016.06 246.315L1042.79 300.557L1102.39 312.374C1114.32 314.739 1118.63 329.572 1109.82 337.955L1065.63 380.004L1081.33 442.755C1084.53 455.535 1070.88 465.935 1059.41 459.46L1002.92 427.575L945.494 459.988C934.391 466.255 921.027 456.69 923.379 444.158L935.396 380.131L892.651 337.764C884.13 329.317 888.482 314.78 900.243 312.406L959.108 300.523L989.486 245.677Z" stroke="#F3F3F3" stroke-width="18"/>
</g>
<g filter="url(#filter1_d_0_1)">
<path d="M680.304 310.639C681.724 298.611 696.077 293.139 705.145 301.168L750.416 341.253L810.058 329.624C821.995 327.296 831.595 339.395 826.615 350.49L801.633 406.14L839.927 458.273C847.726 468.891 839.03 483.685 825.96 482.035L761.604 473.911L720.726 525.652C712.822 535.657 696.831 531.863 694.264 519.374L681.145 455.563L625.542 432.533C614.457 427.941 612.982 412.839 622.968 406.189L672.953 372.904L680.304 310.639Z" stroke="#F3F3F3" stroke-width="18" shape-rendering="crispEdges"/>
</g>
<g filter="url(#filter2_di_0_1)">
<path d="M688.57 317.392C689.422 310.176 698.034 306.892 703.475 311.709L744.451 347.992C746.549 349.849 749.391 350.624 752.14 350.088L806.1 339.566C813.262 338.17 819.022 345.429 816.033 352.085L793.423 402.454C792.096 405.412 792.461 408.855 794.381 411.468L828.542 457.975C833.221 464.345 828.003 473.222 820.161 472.232L762.733 464.982C759.605 464.587 756.498 465.858 754.543 468.332L717.66 515.016C712.917 521.019 703.323 518.743 701.782 511.249L689.909 453.495C689.338 450.713 687.487 448.365 684.916 447.159L634.646 423.575C628.186 420.544 627.654 411.559 633.712 407.787L677.731 380.376C680.053 378.931 681.591 376.508 681.912 373.792L688.57 317.392Z" fill="#FFEF9B"/>
<path d="M688.57 317.392C689.422 310.176 698.034 306.892 703.475 311.709L744.451 347.992C746.549 349.849 749.391 350.624 752.14 350.088L806.1 339.566C813.262 338.17 819.022 345.429 816.033 352.085L793.423 402.454C792.096 405.412 792.461 408.855 794.381 411.468L828.542 457.975C833.221 464.345 828.003 473.222 820.161 472.232L762.733 464.982C759.605 464.587 756.498 465.858 754.543 468.332L717.66 515.016C712.917 521.019 703.323 518.743 701.782 511.249L689.909 453.495C689.338 450.713 687.487 448.365 684.916 447.159L634.646 423.575C628.186 420.544 627.654 411.559 633.712 407.787L677.731 380.376C680.053 378.931 681.591 376.508 681.912 373.792L688.57 317.392Z" stroke="#FFCA41" stroke-width="11"/>
</g>
<path d="M750.85 359.087L753.835 358.765C756.878 358.437 759.802 360.049 761.148 362.799C763.189 366.965 760.861 371.951 756.357 373.062L746.682 375.449C741.578 376.709 736.218 374.77 733.101 370.538L725.198 359.809C722.96 356.77 723.521 352.505 726.47 350.149C729.172 347.99 733.044 348.117 735.598 350.45L741.818 356.13C744.265 358.365 747.555 359.442 750.85 359.087Z" fill="white"/>
<circle cx="771.964" cy="365.8" r="6.76531" transform="rotate(-22.2472 771.964 365.8)" fill="white"/>
<circle cx="730.499" cy="472.91" r="4.5102" transform="rotate(-22.2472 730.499 472.91)" fill="white"/>
<circle cx="738.28" cy="460.956" r="7.21633" transform="rotate(-22.2472 738.28 460.956)" fill="white"/>
<g filter="url(#filter3_d_0_1)">
<path d="M1314.03 311.694C1313.46 306.883 1307.72 304.694 1304.09 307.905L1257.71 348.974C1256.31 350.212 1254.41 350.728 1252.58 350.371L1191.49 338.457C1186.71 337.526 1182.87 342.366 1184.86 346.804L1210.56 404.048C1211.45 406.02 1211.2 408.316 1209.92 410.057L1170.59 463.601C1167.47 467.848 1170.95 473.765 1176.18 473.105L1242.22 464.769C1244.3 464.506 1246.37 465.353 1247.68 467.003L1289.6 520.072C1292.77 524.074 1299.16 522.556 1300.19 517.561L1313.63 452.192C1314.03 450.242 1315.37 448.618 1317.21 447.857L1374.28 424.217C1378.72 422.38 1379.31 416.34 1375.31 413.679L1324.17 379.625C1322.71 378.65 1321.74 377.082 1321.54 375.335L1314.03 311.694Z" fill="#E9E9E9"/>
<path d="M1322.96 310.638C1321.54 298.611 1307.19 293.138 1298.12 301.167L1252.85 341.253L1193.21 329.623C1181.27 327.296 1171.67 339.395 1176.65 350.489L1201.63 406.139L1163.34 458.273C1155.54 468.89 1164.24 483.684 1177.31 482.034L1241.66 473.91L1282.54 525.652C1290.45 535.656 1306.44 531.862 1309 519.373L1322.12 455.562L1377.73 432.532C1388.81 427.941 1390.29 412.838 1380.3 406.188L1330.31 372.903L1322.96 310.638Z" stroke="#F3F3F3" stroke-width="18"/>
</g>
<g filter="url(#filter4_di_0_1)">
<path d="M994.325 255.057C997.846 248.7 1007.06 248.921 1010.27 255.44L1034.46 304.536C1035.7 307.048 1038.04 308.842 1040.78 309.386L1094.71 320.077C1101.87 321.496 1104.45 330.395 1099.16 335.425L1059.17 373.484C1056.82 375.719 1055.85 379.044 1056.64 382.189L1070.65 438.168C1072.57 445.836 1064.38 452.076 1057.5 448.19L1007.09 419.738C1004.34 418.188 1000.99 418.188 998.24 419.738L946.427 448.983C939.765 452.743 931.747 447.004 933.158 439.485L944.035 381.534C944.559 378.744 943.735 375.869 941.812 373.78L904.214 332.919C899.382 327.668 902.291 319.151 909.326 317.953L960.446 309.248C963.143 308.789 965.484 307.129 966.809 304.737L994.325 255.057Z" fill="#FFEF9B"/>
<path d="M994.325 255.057C997.846 248.7 1007.06 248.921 1010.27 255.44L1034.46 304.536C1035.7 307.048 1038.04 308.842 1040.78 309.386L1094.71 320.077C1101.87 321.496 1104.45 330.395 1099.16 335.425L1059.17 373.484C1056.82 375.719 1055.85 379.044 1056.64 382.189L1070.65 438.168C1072.57 445.836 1064.38 452.076 1057.5 448.19L1007.09 419.738C1004.34 418.188 1000.99 418.188 998.24 419.738L946.427 448.983C939.765 452.743 931.747 447.004 933.158 439.485L944.035 381.534C944.559 378.744 943.735 375.869 941.812 373.78L904.214 332.919C899.382 327.668 902.291 319.151 909.326 317.953L960.446 309.248C963.143 308.789 965.484 307.129 966.809 304.737L994.325 255.057Z" stroke="#FFCA41" stroke-width="11"/>
</g>
<path d="M1036.18 317.227L1039.07 318.059C1042.01 318.908 1044.1 321.507 1044.31 324.561C1044.62 329.19 1040.58 332.924 1035.99 332.247L1026.13 330.793C1020.93 330.027 1016.7 326.203 1015.42 321.105L1012.17 308.183C1011.25 304.523 1013.38 300.788 1017 299.724C1020.32 298.749 1023.85 300.333 1025.34 303.458L1028.94 311.071C1030.36 314.066 1033 316.308 1036.18 317.227Z" fill="white"/>
<circle cx="1053.18" cy="331.434" r="6.76531" fill="white"/>
<circle cx="974.254" cy="414.873" r="4.5102" fill="white"/>
<circle cx="985.98" cy="406.755" r="7.21633" fill="white"/>
<rect x="40" y="4" width="47.5469" height="30" rx="3" fill="#444444"/>
<rect x="40.5" y="4.5" width="46.5469" height="29" rx="2.5" stroke="white" stroke-opacity="0.0980392"/>
<path d="M46.8281 22V21.2969L49.4687 18.4062C49.7786 18.0677 50.0339 17.7734 50.2344 17.5234C50.4349 17.2708 50.5833 17.0339 50.6797 16.8125C50.7786 16.5885 50.8281 16.3542 50.8281 16.1094C50.8281 15.8281 50.7604 15.5846 50.625 15.3789C50.4922 15.1732 50.3099 15.0143 50.0781 14.9023C49.8464 14.7904 49.5859 14.7344 49.2969 14.7344C48.9896 14.7344 48.7214 14.7982 48.4922 14.9258C48.2656 15.0508 48.0898 15.2266 47.9648 15.4531C47.8424 15.6797 47.7813 15.9453 47.7813 16.25H46.8594C46.8594 15.7812 46.9674 15.3698 47.1836 15.0156C47.3997 14.6615 47.694 14.3854 48.0664 14.1875C48.4414 13.9896 48.862 13.8906 49.3281 13.8906C49.7969 13.8906 50.2122 13.9896 50.5742 14.1875C50.9362 14.3854 51.2201 14.6523 51.4258 14.9883C51.6315 15.3242 51.7344 15.6979 51.7344 16.1094C51.7344 16.4036 51.681 16.6914 51.5742 16.9727C51.4701 17.2513 51.2878 17.5625 51.0273 17.9062C50.7695 18.2474 50.4115 18.6641 49.9531 19.1562L48.1563 21.0781V21.1406H51.875V22H46.8281ZM60.8477 17.3437L60.0195 17.5781C59.9674 17.4401 59.8906 17.306 59.7891 17.1758C59.6901 17.043 59.5547 16.9336 59.3828 16.8477C59.2109 16.7617 58.9909 16.7187 58.7227 16.7187C58.3555 16.7187 58.0495 16.8034 57.8047 16.9727C57.5625 17.1393 57.4414 17.3516 57.4414 17.6094C57.4414 17.8385 57.5247 18.0195 57.6914 18.1523C57.8581 18.2852 58.1185 18.3958 58.4727 18.4844L59.3633 18.7031C59.8997 18.8333 60.2995 19.0326 60.5625 19.3008C60.8255 19.5664 60.957 19.9089 60.957 20.3281C60.957 20.6719 60.8581 20.9792 60.6602 21.25C60.4648 21.5208 60.1914 21.7344 59.8398 21.8906C59.4883 22.0469 59.0794 22.125 58.6133 22.125C58.0013 22.125 57.4948 21.9922 57.0938 21.7266C56.6927 21.4609 56.4388 21.0729 56.332 20.5625L57.207 20.3437C57.2904 20.6667 57.4479 20.9089 57.6797 21.0703C57.9141 21.2318 58.2201 21.3125 58.5977 21.3125C59.0273 21.3125 59.3685 21.2214 59.6211 21.0391C59.8763 20.8542 60.0039 20.6328 60.0039 20.375C60.0039 20.1667 59.931 19.9922 59.7852 19.8516C59.6393 19.7083 59.4154 19.6016 59.1133 19.5312L58.1133 19.2969C57.5638 19.1667 57.1602 18.9648 56.9023 18.6914C56.6471 18.4154 56.5195 18.0703 56.5195 17.6562C56.5195 17.3177 56.6146 17.0182 56.8047 16.7578C56.9974 16.4974 57.2591 16.293 57.5898 16.1445C57.9232 15.9961 58.3008 15.9219 58.7227 15.9219C59.3164 15.9219 59.7826 16.0521 60.1211 16.3125C60.4622 16.5729 60.7044 16.9167 60.8477 17.3437ZM64.9541 16V16.7812H61.8447V16H64.9541ZM62.751 14.5625H63.6729V20.2812C63.6729 20.5417 63.7106 20.737 63.7861 20.8672C63.8643 20.9948 63.9632 21.0807 64.083 21.125C64.2054 21.1667 64.3343 21.1875 64.4697 21.1875C64.5713 21.1875 64.6546 21.1823 64.7197 21.1719C64.7848 21.1589 64.8369 21.1484 64.876 21.1406L65.0635 21.9687C65.001 21.9922 64.9137 22.0156 64.8018 22.0391C64.6898 22.0651 64.5479 22.0781 64.376 22.0781C64.1156 22.0781 63.8604 22.0221 63.6104 21.9102C63.363 21.7982 63.1572 21.6276 62.9932 21.3984C62.8317 21.1693 62.751 20.8802 62.751 20.5312V14.5625ZM68.1064 22.1406C67.7262 22.1406 67.3812 22.069 67.0713 21.9258C66.7614 21.7799 66.5153 21.5703 66.333 21.2969C66.1507 21.0208 66.0596 20.6875 66.0596 20.2969C66.0596 19.9531 66.1273 19.6745 66.2627 19.4609C66.3981 19.2448 66.5791 19.0755 66.8057 18.9531C67.0322 18.8307 67.2822 18.7396 67.5557 18.6797C67.8317 18.6172 68.109 18.5677 68.3877 18.5313C68.7523 18.4844 69.0479 18.4492 69.2744 18.4258C69.5036 18.3997 69.6702 18.3568 69.7744 18.2969C69.8812 18.237 69.9346 18.1328 69.9346 17.9844V17.9531C69.9346 17.5677 69.8291 17.2682 69.6182 17.0547C69.4098 16.8411 69.0934 16.7344 68.6689 16.7344C68.2288 16.7344 67.8838 16.8307 67.6338 17.0234C67.3838 17.2161 67.208 17.4219 67.1064 17.6406L66.2314 17.3281C66.3877 16.9635 66.596 16.6797 66.8564 16.4766C67.1195 16.2708 67.4059 16.1276 67.7158 16.0469C68.0283 15.9635 68.3356 15.9219 68.6377 15.9219C68.8304 15.9219 69.0518 15.9453 69.3018 15.9922C69.5544 16.0365 69.7979 16.1289 70.0322 16.2695C70.2692 16.4102 70.4658 16.6224 70.6221 16.9062C70.7783 17.1901 70.8564 17.5703 70.8564 18.0469V22H69.9346V21.1875H69.8877C69.8252 21.3177 69.721 21.457 69.5752 21.6055C69.4294 21.7539 69.2354 21.8802 68.9932 21.9844C68.751 22.0885 68.4554 22.1406 68.1064 22.1406ZM68.2471 21.3125C68.6117 21.3125 68.9189 21.2409 69.1689 21.0977C69.4215 20.9544 69.6117 20.7695 69.7393 20.543C69.8695 20.3164 69.9346 20.0781 69.9346 19.8281V18.9844C69.8955 19.0312 69.8096 19.0742 69.6768 19.1133C69.5465 19.1497 69.3955 19.1823 69.2236 19.2109C69.0544 19.237 68.889 19.2604 68.7275 19.2812C68.5687 19.2995 68.4398 19.3151 68.3408 19.3281C68.1012 19.3594 67.8773 19.4102 67.6689 19.4805C67.4632 19.5482 67.2965 19.651 67.1689 19.7891C67.0439 19.9245 66.9814 20.1094 66.9814 20.3437C66.9814 20.6641 67.0999 20.9062 67.3369 21.0703C67.5765 21.2318 67.8799 21.3125 68.2471 21.3125ZM72.5391 22V16H73.4297V16.9062H73.4922C73.6016 16.6094 73.7995 16.3685 74.0859 16.1836C74.3724 15.9987 74.6953 15.9062 75.0547 15.9062C75.1224 15.9062 75.207 15.9076 75.3086 15.9102C75.4102 15.9128 75.487 15.9167 75.5391 15.9219V16.8594C75.5078 16.8516 75.4362 16.8398 75.3242 16.8242C75.2148 16.806 75.099 16.7969 74.9766 16.7969C74.6849 16.7969 74.4245 16.8581 74.1953 16.9805C73.9688 17.1003 73.7891 17.2669 73.6563 17.4805C73.526 17.6914 73.4609 17.9323 73.4609 18.2031V22H72.5391ZM80.8818 17.3437L80.0537 17.5781C80.0016 17.4401 79.9248 17.306 79.8232 17.1758C79.7243 17.043 79.5889 16.9336 79.417 16.8477C79.2451 16.7617 79.0251 16.7187 78.7568 16.7187C78.3896 16.7187 78.0837 16.8034 77.8389 16.9727C77.5967 17.1393 77.4756 17.3516 77.4756 17.6094C77.4756 17.8385 77.5589 18.0195 77.7256 18.1523C77.8923 18.2852 78.1527 18.3958 78.5068 18.4844L79.3975 18.7031C79.9339 18.8333 80.3337 19.0326 80.5967 19.3008C80.8597 19.5664 80.9912 19.9089 80.9912 20.3281C80.9912 20.6719 80.8923 20.9792 80.6943 21.25C80.499 21.5208 80.2256 21.7344 79.874 21.8906C79.5225 22.0469 79.1136 22.125 78.6475 22.125C78.0355 22.125 77.529 21.9922 77.1279 21.7266C76.7269 21.4609 76.473 21.0729 76.3662 20.5625L77.2412 20.3437C77.3245 20.6667 77.4821 20.9089 77.7139 21.0703C77.9482 21.2318 78.2542 21.3125 78.6318 21.3125C79.0615 21.3125 79.4027 21.2214 79.6553 21.0391C79.9105 20.8542 80.0381 20.6328 80.0381 20.375C80.0381 20.1667 79.9652 19.9922 79.8193 19.8516C79.6735 19.7083 79.4495 19.6016 79.1475 19.5312L78.1475 19.2969C77.598 19.1667 77.1943 18.9648 76.9365 18.6914C76.6813 18.4154 76.5537 18.0703 76.5537 17.6562C76.5537 17.3177 76.6488 17.0182 76.8389 16.7578C77.0316 16.4974 77.2933 16.293 77.624 16.1445C77.9574 15.9961 78.335 15.9219 78.7568 15.9219C79.3506 15.9219 79.8167 16.0521 80.1553 16.3125C80.4964 16.5729 80.7386 16.9167 80.8818 17.3437Z" fill="white"/>
<defs>
<filter id="filter0_d_0_1" x="863.891" y="213.644" width="274.905" height="272.641" filterUnits="userSpaceOnUse" color-interpolation-filters="sRGB">
<feFlood flood-opacity="0" result="BackgroundImageFix"/>
<feColorMatrix in="SourceAlpha" type="matrix" values="0 0 0 0 0 0 0 0 0 0 0 0 0 0 0 0 0 0 127 0" result="hardAlpha"/>
<feOffset/>
<feGaussianBlur stdDeviation="7.65"/>
<feComposite in2="hardAlpha" operator="out"/>
<feColorMatrix type="matrix" values="0 0 0 0 0 0 0 0 0 0 0 0 0 0 0 0 0 0 0.25 0"/>
<feBlend mode="normal" in2="BackgroundImageFix" result="effect1_dropShadow_0_1"/>
<feBlend mode="normal" in="SourceGraphic" in2="effect1_dropShadow_0_1" result="shape"/>
</filter>
<filter id="filter1_d_0_1" x="591.981" y="273.068" width="275.221" height="282.602" filterUnits="userSpaceOnUse" color-interpolation-filters="sRGB">
<feFlood flood-opacity="0" result="BackgroundImageFix"/>
<feColorMatrix in="SourceAlpha" type="matrix" values="0 0 0 0 0 0 0 0 0 0 0 0 0 0 0 0 0 0 127 0" result="hardAlpha"/>
<feOffset/>
<feGaussianBlur stdDeviation="7.65"/>
<feComposite in2="hardAlpha" operator="out"/>
<feColorMatrix type="matrix" values="0 0 0 0 0 0 0 0 0 0 0 0 0 0 0 0 0 0 0.25 0"/>
<feBlend mode="normal" in2="BackgroundImageFix" result="effect1_dropShadow_0_1"/>
<feBlend mode="normal" in="SourceGraphic" in2="effect1_dropShadow_0_1" result="shape"/>
</filter>
<filter id="filter2_di_0_1" x="619.969" y="296.93" width="225.859" height="235.018" filterUnits="userSpaceOnUse" color-interpolation-filters="sRGB">
<feFlood flood-opacity="0" result="BackgroundImageFix"/>
<feColorMatrix in="SourceAlpha" type="matrix" values="0 0 0 0 0 0 0 0 0 0 0 0 0 0 0 0 0 0 127 0" result="hardAlpha"/>
<feOffset dy="4"/>
<feGaussianBlur stdDeviation="2"/>
<feComposite in2="hardAlpha" operator="out"/>
<feColorMatrix type="matrix" values="0 0 0 0 0 0 0 0 0 0 0 0 0 0 0 0 0 0 0.25 0"/>
<feBlend mode="normal" in2="BackgroundImageFix" result="effect1_dropShadow_0_1"/>
<feBlend mode="normal" in="SourceGraphic" in2="effect1_dropShadow_0_1" result="shape"/>
<feColorMatrix in="SourceAlpha" type="matrix" values="0 0 0 0 0 0 0 0 0 0 0 0 0 0 0 0 0 0 127 0" result="hardAlpha"/>
<feOffset dx="10" dy="-7"/>
<feGaussianBlur stdDeviation="15"/>
<feComposite in2="hardAlpha" operator="arithmetic" k2="-1" k3="1"/>
<feColorMatrix type="matrix" values="0 0 0 0 1 0 0 0 0 0.703526 0 0 0 0 0.288462 0 0 0 1 0"/>
<feBlend mode="normal" in2="shape" result="effect2_innerShadow_0_1"/>
</filter>
<filter id="filter3_d_0_1" x="1136.06" y="273.068" width="275.225" height="282.601" filterUnits="userSpaceOnUse" color-interpolation-filters="sRGB">
<feFlood flood-opacity="0" result="BackgroundImageFix"/>
<feColorMatrix in="SourceAlpha" type="matrix" values="0 0 0 0 0 0 0 0 0 0 0 0 0 0 0 0 0 0 127 0" result="hardAlpha"/>
<feOffset/>
<feGaussianBlur stdDeviation="7.65"/>
<feComposite in2="hardAlpha" operator="out"/>
<feColorMatrix type="matrix" values="0 0 0 0 0 0 0 0 0 0 0 0 0 0 0 0 0 0 0.25 0"/>
<feBlend mode="normal" in2="BackgroundImageFix" result="effect1_dropShadow_0_1"/>
<feBlend mode="normal" in="SourceGraphic" in2="effect1_dropShadow_0_1" result="shape"/>
</filter>
<filter id="filter4_di_0_1" x="892.322" y="237.917" width="225.15" height="225.765" filterUnits="userSpaceOnUse" color-interpolation-filters="sRGB">
<feFlood flood-opacity="0" result="BackgroundImageFix"/>
<feColorMatrix in="SourceAlpha" type="matrix" values="0 0 0 0 0 0 0 0 0 0 0 0 0 0 0 0 0 0 127 0" result="hardAlpha"/>
<feOffset dy="4"/>
<feGaussianBlur stdDeviation="2"/>
<feComposite in2="hardAlpha" operator="out"/>
<feColorMatrix type="matrix" values="0 0 0 0 0 0 0 0 0 0 0 0 0 0 0 0 0 0 0.25 0"/>
<feBlend mode="normal" in2="BackgroundImageFix" result="effect1_dropShadow_0_1"/>
<feBlend mode="normal" in="SourceGraphic" in2="effect1_dropShadow_0_1" result="shape"/>
<feColorMatrix in="SourceAlpha" type="matrix" values="0 0 0 0 0 0 0 0 0 0 0 0 0 0 0 0 0 0 127 0" result="hardAlpha"/>
<feOffset dx="10" dy="-7"/>
<feGaussianBlur stdDeviation="15"/>
<feComposite in2="hardAlpha" operator="arithmetic" k2="-1" k3="1"/>
<feColorMatrix type="matrix" values="0 0 0 0 1 0 0 0 0 0.703526 0 0 0 0 0.288462 0 0 0 1 0"/>
<feBlend mode="normal" in2="shape" result="effect2_innerShadow_0_1"/>
</filter>
</defs>
</svg>
