<svg width="2000" height="1160" viewBox="0 0 2000 1160" fill="none" xmlns="http://www.w3.org/2000/svg">
<g filter="url(#filter0_d_0_1)">
<path d="M997.36 250.038C999.707 245.8 1005.85 245.947 1007.99 250.293L1035.37 305.864C1036.2 307.54 1037.75 308.735 1039.59 309.098L1100.64 321.203C1105.42 322.149 1107.14 328.081 1103.61 331.435L1058.16 374.689C1056.59 376.179 1055.95 378.396 1056.47 380.493L1072.6 444.94C1073.88 450.052 1068.42 454.212 1063.83 451.622L1005.87 418.906C1004.04 417.872 1001.8 417.872 999.97 418.906L941.071 452.15C936.629 454.657 931.283 450.831 932.224 445.818L944.535 380.228C944.903 378.272 944.276 376.261 942.862 374.86L898.988 331.371C895.579 327.993 897.32 322.178 902.024 321.229L962.249 309.071C963.974 308.723 965.458 307.635 966.311 306.096L997.36 250.038Z" fill="#E9E9E9"/>
<path d="M989.486 245.677C995.354 235.082 1010.71 235.451 1016.06 246.315L1042.79 300.557L1102.39 312.374C1114.32 314.739 1118.63 329.572 1109.82 337.955L1065.63 380.004L1081.33 442.755C1084.53 455.535 1070.88 465.935 1059.41 459.46L1002.92 427.575L945.494 459.988C934.391 466.255 921.027 456.69 923.379 444.158L935.396 380.131L892.651 337.764C884.13 329.317 888.482 314.78 900.243 312.406L959.108 300.523L989.486 245.677Z" stroke="#F3F3F3" stroke-width="18"/>
</g>
<g filter="url(#filter1_d_0_1)">
<path d="M680.304 310.639C681.724 298.611 696.077 293.139 705.145 301.168L750.416 341.253L810.058 329.624C821.995 327.296 831.595 339.395 826.615 350.49L801.633 406.14L839.927 458.273C847.726 468.891 839.03 483.685 825.96 482.035L761.604 473.911L720.726 525.652C712.822 535.657 696.831 531.863 694.264 519.374L681.145 455.563L625.542 432.533C614.457 427.941 612.982 412.839 622.968 406.189L672.953 372.904L680.304 310.639Z" stroke="#F3F3F3" stroke-width="18" shape-rendering="crispEdges"/>
</g>
<g filter="url(#filter2_di_0_1)">
<path d="M688.57 317.392C689.422 310.176 698.034 306.892 703.475 311.709L744.451 347.992C746.549 349.849 749.391 350.624 752.14 350.088L806.1 339.566C813.262 338.17 819.022 345.429 816.033 352.085L793.423 402.454C792.096 405.412 792.461 408.855 794.381 411.468L828.542 457.975C833.221 464.345 828.003 473.222 820.161 472.232L762.733 464.982C759.605 464.587 756.498 465.858 754.543 468.332L717.66 515.016C712.917 521.019 703.323 518.743 701.782 511.249L689.909 453.495C689.338 450.713 687.487 448.365 684.916 447.159L634.646 423.575C628.186 420.544 627.654 411.559 633.712 407.787L677.731 380.376C680.053 378.931 681.591 376.508 681.912 373.792L688.57 317.392Z" fill="#FFEF9B"/>
<path d="M688.57 317.392C689.422 310.176 698.034 306.892 703.475 311.709L744.451 347.992C746.549 349.849 749.391 350.624 752.14 350.088L806.1 339.566C813.262 338.17 819.022 345.429 816.033 352.085L793.423 402.454C792.096 405.412 792.461 408.855 794.381 411.468L828.542 457.975C833.221 464.345 828.003 473.222 820.161 472.232L762.733 464.982C759.605 464.587 756.498 465.858 754.543 468.332L717.66 515.016C712.917 521.019 703.323 518.743 701.782 511.249L689.909 453.495C689.338 450.713 687.487 448.365 684.916 447.159L634.646 423.575C628.186 420.544 627.654 411.559 633.712 407.787L677.731 380.376C680.053 378.931 681.591 376.508 681.912 373.792L688.57 317.392Z" stroke="#FFCA41" stroke-width="11"/>
</g>
<path d="M750.85 359.087L753.835 358.765C756.878 358.437 759.802 360.049 761.148 362.799C763.189 366.965 760.861 371.951 756.357 373.062L746.682 375.449C741.578 376.709 736.218 374.77 733.101 370.538L725.198 359.809C722.96 356.77 723.521 352.505 726.47 350.149C729.172 347.99 733.044 348.117 735.598 350.45L741.818 356.13C744.265 358.365 747.555 359.442 750.85 359.087Z" fill="white"/>
<circle cx="771.964" cy="365.8" r="6.76531" transform="rotate(-22.2472 771.964 365.8)" fill="white"/>
<circle cx="730.501" cy="472.91" r="4.5102" transform="rotate(-22.2472 730.501 472.91)" fill="white"/>
<circle cx="738.28" cy="460.957" r="7.21633" transform="rotate(-22.2472 738.28 460.957)" fill="white"/>
<g filter="url(#filter3_d_0_1)">
<path d="M1314.03 311.694C1313.46 306.883 1307.72 304.694 1304.09 307.906L1257.71 348.974C1256.31 350.212 1254.41 350.729 1252.58 350.371L1191.49 338.458C1186.71 337.527 1182.87 342.366 1184.86 346.804L1210.56 404.049C1211.45 406.021 1211.2 408.316 1209.92 410.058L1170.59 463.601C1167.47 467.848 1170.95 473.766 1176.18 473.106L1242.22 464.77C1244.3 464.507 1246.37 465.354 1247.68 467.003L1289.6 520.073C1292.77 524.074 1299.16 522.557 1300.19 517.561L1313.63 452.192C1314.03 450.243 1315.37 448.619 1317.21 447.857L1374.28 424.217C1378.72 422.381 1379.31 416.34 1375.31 413.68L1324.17 379.626C1322.71 378.651 1321.74 377.082 1321.54 375.335L1314.03 311.694Z" fill="#E9E9E9"/>
<path d="M1322.96 310.639C1321.54 298.611 1307.19 293.139 1298.12 301.168L1252.85 341.253L1193.21 329.624C1181.27 327.296 1171.67 339.395 1176.65 350.49L1201.63 406.14L1163.34 458.273C1155.54 468.891 1164.24 483.685 1177.31 482.035L1241.66 473.911L1282.54 525.652C1290.45 535.657 1306.44 531.863 1309 519.374L1322.12 455.563L1377.73 432.533C1388.81 427.941 1390.29 412.839 1380.3 406.189L1330.31 372.904L1322.96 310.639Z" stroke="#F3F3F3" stroke-width="18"/>
</g>
<g filter="url(#filter4_di_0_1)">
<path d="M994.325 255.057C997.846 248.7 1007.06 248.921 1010.27 255.44L1034.46 304.536C1035.7 307.048 1038.04 308.842 1040.78 309.386L1094.71 320.077C1101.87 321.496 1104.45 330.395 1099.16 335.425L1059.17 373.484C1056.82 375.719 1055.85 379.044 1056.64 382.189L1070.65 438.168C1072.57 445.836 1064.38 452.076 1057.5 448.19L1007.09 419.738C1004.34 418.188 1000.99 418.188 998.24 419.738L946.427 448.983C939.765 452.743 931.747 447.004 933.158 439.485L944.035 381.534C944.559 378.744 943.735 375.869 941.812 373.78L904.214 332.919C899.382 327.668 902.291 319.151 909.326 317.953L960.446 309.248C963.143 308.789 965.484 307.129 966.809 304.737L994.325 255.057Z" fill="#FFEF9B"/>
<path d="M994.325 255.057C997.846 248.7 1007.06 248.921 1010.27 255.44L1034.46 304.536C1035.7 307.048 1038.04 308.842 1040.78 309.386L1094.71 320.077C1101.87 321.496 1104.45 330.395 1099.16 335.425L1059.17 373.484C1056.82 375.719 1055.85 379.044 1056.64 382.189L1070.65 438.168C1072.57 445.836 1064.38 452.076 1057.5 448.19L1007.09 419.738C1004.34 418.188 1000.99 418.188 998.24 419.738L946.427 448.983C939.765 452.743 931.747 447.004 933.158 439.485L944.035 381.534C944.559 378.744 943.735 375.869 941.812 373.78L904.214 332.919C899.382 327.668 902.291 319.151 909.326 317.953L960.446 309.248C963.143 308.789 965.484 307.129 966.809 304.737L994.325 255.057Z" stroke="#FFCA41" stroke-width="11"/>
</g>
<path d="M1036.18 317.227L1039.07 318.059C1042.01 318.907 1044.1 321.506 1044.31 324.561C1044.62 329.19 1040.58 332.923 1035.99 332.247L1026.13 330.793C1020.93 330.026 1016.7 326.203 1015.42 321.105L1012.17 308.183C1011.25 304.522 1013.38 300.788 1017 299.723C1020.32 298.748 1023.85 300.332 1025.34 303.458L1028.94 311.07C1030.36 314.066 1033 316.308 1036.18 317.227Z" fill="white"/>
<circle cx="1053.18" cy="331.434" r="6.76531" fill="white"/>
<circle cx="974.254" cy="414.872" r="4.5102" fill="white"/>
<circle cx="985.98" cy="406.754" r="7.21633" fill="white"/>
<g filter="url(#filter5_di_0_1)">
<mask id="path-17-inside-1_0_1" fill="white">
<path d="M1297.54 304.8C1303.49 300.067 1311.36 300.937 1316.32 305.405L1248.52 471.228C1247.79 470.6 1246.81 470.3 1245.83 470.419L1182.32 478.165C1170.18 479.645 1161.77 466.352 1168.31 456.016L1200 405.951C1200.62 404.976 1200.72 403.759 1200.26 402.699L1177.93 350.63C1173.3 339.83 1182.76 328.295 1194.26 330.728L1248.47 342.205C1249.49 342.421 1250.56 342.17 1251.37 341.521L1297.54 304.8Z"/>
</mask>
<path d="M1297.54 304.8C1303.49 300.067 1311.36 300.937 1316.32 305.405L1248.52 471.228C1247.79 470.6 1246.81 470.3 1245.83 470.419L1182.32 478.165C1170.18 479.645 1161.77 466.352 1168.31 456.016L1200 405.951C1200.62 404.976 1200.72 403.759 1200.26 402.699L1177.93 350.63C1173.3 339.83 1182.76 328.295 1194.26 330.728L1248.47 342.205C1249.49 342.421 1250.56 342.17 1251.37 341.521L1297.54 304.8Z" fill="#FFEF9B"/>
<path d="M1297.54 304.8L1290.69 296.191L1290.69 296.191L1297.54 304.8ZM1316.32 305.405L1326.5 309.568L1329.43 302.407L1323.68 297.23L1316.32 305.405ZM1248.52 471.228L1241.4 479.607L1252.96 489.441L1258.71 475.391L1248.52 471.228ZM1245.83 470.419L1244.5 459.5L1244.5 459.5L1245.83 470.419ZM1182.32 478.165L1180.99 467.245L1180.99 467.245L1182.32 478.165ZM1168.31 456.016L1177.61 461.899L1177.61 461.899L1168.31 456.016ZM1200 405.951L1209.3 411.834L1209.3 411.833L1200 405.951ZM1200.26 402.699L1210.37 398.365L1210.37 398.363L1200.26 402.699ZM1177.93 350.63L1167.82 354.965L1167.82 354.966L1177.93 350.63ZM1194.26 330.728L1191.98 341.49L1191.98 341.49L1194.26 330.728ZM1248.47 342.205L1246.19 352.966L1246.19 352.967L1248.47 342.205ZM1251.37 341.521L1258.22 350.13L1258.22 350.129L1251.37 341.521ZM1297.54 304.8L1304.38 313.409C1305.17 312.785 1305.95 312.594 1306.69 312.635C1307.52 312.681 1308.34 313.025 1308.96 313.579L1316.32 305.405L1323.68 297.23C1315.08 289.489 1301.21 287.821 1290.69 296.191L1297.54 304.8ZM1316.32 305.405L1306.14 301.242L1238.34 467.065L1248.52 471.228L1258.71 475.391L1326.5 309.568L1316.32 305.405ZM1248.52 471.228L1255.65 462.848C1252.6 460.251 1248.56 459.005 1244.5 459.5L1245.83 470.419L1247.16 481.339C1245.06 481.595 1242.98 480.949 1241.4 479.607L1248.52 471.228ZM1245.83 470.419L1244.5 459.5L1180.99 467.245L1182.32 478.165L1183.65 489.084L1247.17 481.338L1245.83 470.419ZM1182.32 478.165L1180.99 467.245C1178.06 467.603 1176.03 464.394 1177.61 461.899L1168.31 456.016L1159.02 450.133C1147.51 468.31 1162.3 491.688 1183.65 489.084L1182.32 478.165ZM1168.31 456.016L1177.61 461.899L1209.3 411.834L1200 405.951L1190.71 400.068L1159.02 450.133L1168.31 456.016ZM1200 405.951L1209.3 411.833C1211.85 407.792 1212.25 402.754 1210.37 398.365L1200.26 402.699L1190.15 407.034C1189.18 404.765 1189.38 402.16 1190.71 400.069L1200 405.951ZM1200.26 402.699L1210.37 398.363L1188.04 346.294L1177.93 350.63L1167.82 354.966L1190.15 407.035L1200.26 402.699ZM1177.93 350.63L1188.04 346.294C1186.92 343.687 1189.21 340.902 1191.98 341.49L1194.26 330.728L1196.54 319.967C1176.32 315.687 1159.67 335.973 1167.82 354.965L1177.93 350.63ZM1194.26 330.728L1191.98 341.49L1246.19 352.966L1248.47 342.205L1250.75 331.443L1196.54 319.967L1194.26 330.728ZM1248.47 342.205L1246.19 352.967C1250.42 353.861 1254.83 352.825 1258.22 350.13L1251.37 341.521L1244.53 332.911C1246.28 331.516 1248.56 330.981 1250.75 331.443L1248.47 342.205ZM1251.37 341.521L1258.22 350.129L1304.38 313.408L1297.54 304.8L1290.69 296.191L1244.53 332.912L1251.37 341.521Z" fill="#FFCA41" mask="url(#path-17-inside-1_0_1)"/>
</g>
<ellipse cx="1214.75" cy="454.369" rx="4.69886" ry="4.5102" transform="rotate(21.0774 1214.75 454.369)" fill="white"/>
<ellipse cx="1229.07" cy="451.187" rx="7.51818" ry="7.21633" transform="rotate(21.0774 1229.07 451.187)" fill="white"/>
<rect x="40" y="4" width="57.1094" height="30" rx="3" fill="#444444"/>
<rect x="40.5" y="4.5" width="56.1094" height="29" rx="2.5" stroke="white" stroke-opacity="0.0980392"/>
<path d="M46.8281 22V21.2969L49.4687 18.4062C49.7786 18.0677 50.0339 17.7734 50.2344 17.5234C50.4349 17.2708 50.5833 17.0339 50.6797 16.8125C50.7786 16.5885 50.8281 16.3542 50.8281 16.1094C50.8281 15.8281 50.7604 15.5846 50.625 15.3789C50.4922 15.1732 50.3099 15.0143 50.0781 14.9023C49.8464 14.7904 49.5859 14.7344 49.2969 14.7344C48.9896 14.7344 48.7214 14.7982 48.4922 14.9258C48.2656 15.0508 48.0898 15.2266 47.9648 15.4531C47.8424 15.6797 47.7813 15.9453 47.7813 16.25H46.8594C46.8594 15.7812 46.9674 15.3698 47.1836 15.0156C47.3997 14.6615 47.694 14.3854 48.0664 14.1875C48.4414 13.9896 48.862 13.8906 49.3281 13.8906C49.7969 13.8906 50.2122 13.9896 50.5742 14.1875C50.9362 14.3854 51.2201 14.6523 51.4258 14.9883C51.6315 15.3242 51.7344 15.6979 51.7344 16.1094C51.7344 16.4036 51.681 16.6914 51.5742 16.9727C51.4701 17.2513 51.2878 17.5625 51.0273 17.9062C50.7695 18.2474 50.4115 18.6641 49.9531 19.1562L48.1563 21.0781V21.1406H51.875V22H46.8281ZM54.1758 22.0625C53.9831 22.0625 53.8177 21.9935 53.6797 21.8555C53.5417 21.7174 53.4727 21.5521 53.4727 21.3594C53.4727 21.1667 53.5417 21.0013 53.6797 20.8633C53.8177 20.7253 53.9831 20.6562 54.1758 20.6562C54.3685 20.6562 54.5339 20.7253 54.6719 20.8633C54.8099 21.0013 54.8789 21.1667 54.8789 21.3594C54.8789 21.487 54.8464 21.6042 54.7812 21.7109C54.7188 21.8177 54.6341 21.9036 54.5273 21.9687C54.4232 22.0313 54.306 22.0625 54.1758 22.0625ZM58.8564 22.1094C58.3981 22.1094 57.9854 22.0182 57.6182 21.8359C57.251 21.6536 56.9567 21.4036 56.7354 21.0859C56.514 20.7682 56.3929 20.4062 56.3721 20H57.3096C57.346 20.362 57.5101 20.6615 57.8018 20.8984C58.096 21.1328 58.4476 21.25 58.8564 21.25C59.1846 21.25 59.4762 21.1732 59.7314 21.0195C59.9893 20.8659 60.1911 20.6549 60.3369 20.3867C60.4854 20.1159 60.5596 19.8099 60.5596 19.4687C60.5596 19.1198 60.4827 18.8086 60.3291 18.5352C60.1781 18.2591 59.9697 18.0417 59.7041 17.8828C59.4385 17.724 59.1351 17.6432 58.7939 17.6406C58.5492 17.638 58.2979 17.6758 58.04 17.7539C57.7822 17.8294 57.57 17.9271 57.4033 18.0469L56.4971 17.9375L56.9814 14H61.1377V14.8594H57.7939L57.5127 17.2187H57.5596C57.7236 17.0885 57.9294 16.9805 58.1768 16.8945C58.4242 16.8086 58.682 16.7656 58.9502 16.7656C59.4398 16.7656 59.876 16.8828 60.2588 17.1172C60.6442 17.349 60.9463 17.6667 61.165 18.0703C61.3864 18.474 61.4971 18.9349 61.4971 19.4531C61.4971 19.9635 61.3825 20.4193 61.1533 20.8203C60.9268 21.2187 60.6143 21.5339 60.2158 21.7656C59.8174 21.9948 59.3643 22.1094 58.8564 22.1094ZM70.4082 17.3437L69.5801 17.5781C69.528 17.4401 69.4512 17.306 69.3496 17.1758C69.2507 17.043 69.1152 16.9336 68.9434 16.8477C68.7715 16.7617 68.5514 16.7187 68.2832 16.7187C67.916 16.7187 67.61 16.8034 67.3652 16.9727C67.123 17.1393 67.002 17.3516 67.002 17.6094C67.002 17.8385 67.0853 18.0195 67.252 18.1523C67.4186 18.2852 67.679 18.3958 68.0332 18.4844L68.9238 18.7031C69.4603 18.8333 69.86 19.0326 70.123 19.3008C70.3861 19.5664 70.5176 19.9089 70.5176 20.3281C70.5176 20.6719 70.4186 20.9792 70.2207 21.25C70.0254 21.5208 69.752 21.7344 69.4004 21.8906C69.0488 22.0469 68.64 22.125 68.1738 22.125C67.5618 22.125 67.0553 21.9922 66.6543 21.7266C66.2533 21.4609 65.9993 21.0729 65.8926 20.5625L66.7676 20.3437C66.8509 20.6667 67.0085 20.9089 67.2402 21.0703C67.4746 21.2318 67.7806 21.3125 68.1582 21.3125C68.5879 21.3125 68.929 21.2214 69.1816 21.0391C69.4368 20.8542 69.5645 20.6328 69.5645 20.375C69.5645 20.1667 69.4915 19.9922 69.3457 19.8516C69.1999 19.7083 68.9759 19.6016 68.6738 19.5312L67.6738 19.2969C67.1243 19.1667 66.7207 18.9648 66.4629 18.6914C66.2077 18.4154 66.0801 18.0703 66.0801 17.6562C66.0801 17.3177 66.1751 17.0182 66.3652 16.7578C66.5579 16.4974 66.8197 16.293 67.1504 16.1445C67.4837 15.9961 67.8613 15.9219 68.2832 15.9219C68.877 15.9219 69.3431 16.0521 69.6816 16.3125C70.0228 16.5729 70.265 16.9167 70.4082 17.3437ZM74.5146 16V16.7812H71.4053V16H74.5146ZM72.3115 14.5625H73.2334V20.2812C73.2334 20.5417 73.2712 20.737 73.3467 20.8672C73.4248 20.9948 73.5238 21.0807 73.6436 21.125C73.766 21.1667 73.8949 21.1875 74.0303 21.1875C74.1318 21.1875 74.2152 21.1823 74.2803 21.1719C74.3454 21.1589 74.3975 21.1484 74.4365 21.1406L74.624 21.9687C74.5615 21.9922 74.4743 22.0156 74.3623 22.0391C74.2503 22.0651 74.1084 22.0781 73.9365 22.0781C73.6761 22.0781 73.4209 22.0221 73.1709 21.9102C72.9235 21.7982 72.7178 21.6276 72.5537 21.3984C72.3923 21.1693 72.3115 20.8802 72.3115 20.5312V14.5625ZM77.667 22.1406C77.2868 22.1406 76.9417 22.069 76.6318 21.9258C76.3219 21.7799 76.0758 21.5703 75.8936 21.2969C75.7113 21.0208 75.6201 20.6875 75.6201 20.2969C75.6201 19.9531 75.6878 19.6745 75.8232 19.4609C75.9587 19.2448 76.1396 19.0755 76.3662 18.9531C76.5928 18.8307 76.8428 18.7396 77.1162 18.6797C77.3923 18.6172 77.6696 18.5677 77.9482 18.5313C78.3128 18.4844 78.6084 18.4492 78.835 18.4258C79.0641 18.3997 79.2308 18.3568 79.335 18.2969C79.4417 18.237 79.4951 18.1328 79.4951 17.9844V17.9531C79.4951 17.5677 79.3896 17.2682 79.1787 17.0547C78.9704 16.8411 78.654 16.7344 78.2295 16.7344C77.7894 16.7344 77.4443 16.8307 77.1943 17.0234C76.9443 17.2161 76.7686 17.4219 76.667 17.6406L75.792 17.3281C75.9482 16.9635 76.1566 16.6797 76.417 16.4766C76.68 16.2708 76.9665 16.1276 77.2764 16.0469C77.5889 15.9635 77.8962 15.9219 78.1982 15.9219C78.391 15.9219 78.6123 15.9453 78.8623 15.9922C79.1149 16.0365 79.3584 16.1289 79.5928 16.2695C79.8298 16.4102 80.0264 16.6224 80.1826 16.9062C80.3389 17.1901 80.417 17.5703 80.417 18.0469V22H79.4951V21.1875H79.4482C79.3857 21.3177 79.2816 21.457 79.1357 21.6055C78.9899 21.7539 78.7959 21.8802 78.5537 21.9844C78.3115 22.0885 78.016 22.1406 77.667 22.1406ZM77.8076 21.3125C78.1722 21.3125 78.4795 21.2409 78.7295 21.0977C78.9821 20.9544 79.1722 20.7695 79.2998 20.543C79.43 20.3164 79.4951 20.0781 79.4951 19.8281V18.9844C79.4561 19.0312 79.3701 19.0742 79.2373 19.1133C79.1071 19.1497 78.9561 19.1823 78.7842 19.2109C78.6149 19.237 78.4495 19.2604 78.2881 19.2812C78.1292 19.2995 78.0003 19.3151 77.9014 19.3281C77.6618 19.3594 77.4378 19.4102 77.2295 19.4805C77.0238 19.5482 76.8571 19.651 76.7295 19.7891C76.6045 19.9245 76.542 20.1094 76.542 20.3437C76.542 20.6641 76.6605 20.9062 76.8975 21.0703C77.137 21.2318 77.4404 21.3125 77.8076 21.3125ZM82.0996 22V16H82.9902V16.9062H83.0527C83.1621 16.6094 83.36 16.3685 83.6465 16.1836C83.9329 15.9987 84.2559 15.9062 84.6152 15.9062C84.6829 15.9062 84.7676 15.9076 84.8691 15.9102C84.9707 15.9128 85.0475 15.9167 85.0996 15.9219V16.8594C85.0684 16.8516 84.9967 16.8398 84.8848 16.8242C84.7754 16.806 84.6595 16.7969 84.5371 16.7969C84.2454 16.7969 83.985 16.8581 83.7559 16.9805C83.5293 17.1003 83.3496 17.2669 83.2168 17.4805C83.0866 17.6914 83.0215 17.9323 83.0215 18.2031V22H82.0996ZM90.4424 17.3437L89.6143 17.5781C89.5622 17.4401 89.4854 17.306 89.3838 17.1758C89.2848 17.043 89.1494 16.9336 88.9775 16.8477C88.8057 16.7617 88.5856 16.7187 88.3174 16.7187C87.9502 16.7187 87.6442 16.8034 87.3994 16.9727C87.1572 17.1393 87.0361 17.3516 87.0361 17.6094C87.0361 17.8385 87.1195 18.0195 87.2861 18.1523C87.4528 18.2852 87.7132 18.3958 88.0674 18.4844L88.958 18.7031C89.4945 18.8333 89.8942 19.0326 90.1572 19.3008C90.4202 19.5664 90.5518 19.9089 90.5518 20.3281C90.5518 20.6719 90.4528 20.9792 90.2549 21.25C90.0596 21.5208 89.7861 21.7344 89.4346 21.8906C89.083 22.0469 88.6742 22.125 88.208 22.125C87.596 22.125 87.0895 21.9922 86.6885 21.7266C86.2874 21.4609 86.0335 21.0729 85.9268 20.5625L86.8018 20.3437C86.8851 20.6667 87.0426 20.9089 87.2744 21.0703C87.5088 21.2318 87.8148 21.3125 88.1924 21.3125C88.6221 21.3125 88.9632 21.2214 89.2158 21.0391C89.471 20.8542 89.5986 20.6328 89.5986 20.375C89.5986 20.1667 89.5257 19.9922 89.3799 19.8516C89.234 19.7083 89.0101 19.6016 88.708 19.5312L87.708 19.2969C87.1585 19.1667 86.7549 18.9648 86.4971 18.6914C86.2419 18.4154 86.1143 18.0703 86.1143 17.6562C86.1143 17.3177 86.2093 17.0182 86.3994 16.7578C86.5921 16.4974 86.8538 16.293 87.1846 16.1445C87.5179 15.9961 87.8955 15.9219 88.3174 15.9219C88.9111 15.9219 89.3773 16.0521 89.7158 16.3125C90.057 16.5729 90.2992 16.9167 90.4424 17.3437Z" fill="white"/>
<defs>
<filter id="filter0_d_0_1" x="863.891" y="213.644" width="274.907" height="272.641" filterUnits="userSpaceOnUse" color-interpolation-filters="sRGB">
<feFlood flood-opacity="0" result="BackgroundImageFix"/>
<feColorMatrix in="SourceAlpha" type="matrix" values="0 0 0 0 0 0 0 0 0 0 0 0 0 0 0 0 0 0 127 0" result="hardAlpha"/>
<feOffset/>
<feGaussianBlur stdDeviation="7.65"/>
<feComposite in2="hardAlpha" operator="out"/>
<feColorMatrix type="matrix" values="0 0 0 0 0 0 0 0 0 0 0 0 0 0 0 0 0 0 0.25 0"/>
<feBlend mode="normal" in2="BackgroundImageFix" result="effect1_dropShadow_0_1"/>
<feBlend mode="normal" in="SourceGraphic" in2="effect1_dropShadow_0_1" result="shape"/>
</filter>
<filter id="filter1_d_0_1" x="591.979" y="273.068" width="275.223" height="282.602" filterUnits="userSpaceOnUse" color-interpolation-filters="sRGB">
<feFlood flood-opacity="0" result="BackgroundImageFix"/>
<feColorMatrix in="SourceAlpha" type="matrix" values="0 0 0 0 0 0 0 0 0 0 0 0 0 0 0 0 0 0 127 0" result="hardAlpha"/>
<feOffset/>
<feGaussianBlur stdDeviation="7.65"/>
<feComposite in2="hardAlpha" operator="out"/>
<feColorMatrix type="matrix" values="0 0 0 0 0 0 0 0 0 0 0 0 0 0 0 0 0 0 0.25 0"/>
<feBlend mode="normal" in2="BackgroundImageFix" result="effect1_dropShadow_0_1"/>
<feBlend mode="normal" in="SourceGraphic" in2="effect1_dropShadow_0_1" result="shape"/>
</filter>
<filter id="filter2_di_0_1" x="619.969" y="296.93" width="225.859" height="235.018" filterUnits="userSpaceOnUse" color-interpolation-filters="sRGB">
<feFlood flood-opacity="0" result="BackgroundImageFix"/>
<feColorMatrix in="SourceAlpha" type="matrix" values="0 0 0 0 0 0 0 0 0 0 0 0 0 0 0 0 0 0 127 0" result="hardAlpha"/>
<feOffset dy="4"/>
<feGaussianBlur stdDeviation="2"/>
<feComposite in2="hardAlpha" operator="out"/>
<feColorMatrix type="matrix" values="0 0 0 0 0 0 0 0 0 0 0 0 0 0 0 0 0 0 0.25 0"/>
<feBlend mode="normal" in2="BackgroundImageFix" result="effect1_dropShadow_0_1"/>
<feBlend mode="normal" in="SourceGraphic" in2="effect1_dropShadow_0_1" result="shape"/>
<feColorMatrix in="SourceAlpha" type="matrix" values="0 0 0 0 0 0 0 0 0 0 0 0 0 0 0 0 0 0 127 0" result="hardAlpha"/>
<feOffset dx="10" dy="-7"/>
<feGaussianBlur stdDeviation="15"/>
<feComposite in2="hardAlpha" operator="arithmetic" k2="-1" k3="1"/>
<feColorMatrix type="matrix" values="0 0 0 0 1 0 0 0 0 0.703526 0 0 0 0 0.288462 0 0 0 1 0"/>
<feBlend mode="normal" in2="shape" result="effect2_innerShadow_0_1"/>
</filter>
<filter id="filter3_d_0_1" x="1136.07" y="273.068" width="275.223" height="282.602" filterUnits="userSpaceOnUse" color-interpolation-filters="sRGB">
<feFlood flood-opacity="0" result="BackgroundImageFix"/>
<feColorMatrix in="SourceAlpha" type="matrix" values="0 0 0 0 0 0 0 0 0 0 0 0 0 0 0 0 0 0 127 0" result="hardAlpha"/>
<feOffset/>
<feGaussianBlur stdDeviation="7.65"/>
<feComposite in2="hardAlpha" operator="out"/>
<feColorMatrix type="matrix" values="0 0 0 0 0 0 0 0 0 0 0 0 0 0 0 0 0 0 0.25 0"/>
<feBlend mode="normal" in2="BackgroundImageFix" result="effect1_dropShadow_0_1"/>
<feBlend mode="normal" in="SourceGraphic" in2="effect1_dropShadow_0_1" result="shape"/>
</filter>
<filter id="filter4_di_0_1" x="892.322" y="237.917" width="225.15" height="225.765" filterUnits="userSpaceOnUse" color-interpolation-filters="sRGB">
<feFlood flood-opacity="0" result="BackgroundImageFix"/>
<feColorMatrix in="SourceAlpha" type="matrix" values="0 0 0 0 0 0 0 0 0 0 0 0 0 0 0 0 0 0 127 0" result="hardAlpha"/>
<feOffset dy="4"/>
<feGaussianBlur stdDeviation="2"/>
<feComposite in2="hardAlpha" operator="out"/>
<feColorMatrix type="matrix" values="0 0 0 0 0 0 0 0 0 0 0 0 0 0 0 0 0 0 0.25 0"/>
<feBlend mode="normal" in2="BackgroundImageFix" result="effect1_dropShadow_0_1"/>
<feBlend mode="normal" in="SourceGraphic" in2="effect1_dropShadow_0_1" result="shape"/>
<feColorMatrix in="SourceAlpha" type="matrix" values="0 0 0 0 0 0 0 0 0 0 0 0 0 0 0 0 0 0 127 0" result="hardAlpha"/>
<feOffset dx="10" dy="-7"/>
<feGaussianBlur stdDeviation="15"/>
<feComposite in2="hardAlpha" operator="arithmetic" k2="-1" k3="1"/>
<feColorMatrix type="matrix" values="0 0 0 0 1 0 0 0 0 0.703526 0 0 0 0 0.288462 0 0 0 1 0"/>
<feBlend mode="normal" in2="shape" result="effect2_innerShadow_0_1"/>
</filter>
<filter id="filter5_di_0_1" x="1162.03" y="294.63" width="164.289" height="191.648" filterUnits="userSpaceOnUse" color-interpolation-filters="sRGB">
<feFlood flood-opacity="0" result="BackgroundImageFix"/>
<feColorMatrix in="SourceAlpha" type="matrix" values="0 0 0 0 0 0 0 0 0 0 0 0 0 0 0 0 0 0 127 0" result="hardAlpha"/>
<feOffset dy="4"/>
<feGaussianBlur stdDeviation="2"/>
<feComposite in2="hardAlpha" operator="out"/>
<feColorMatrix type="matrix" values="0 0 0 0 0 0 0 0 0 0 0 0 0 0 0 0 0 0 0.25 0"/>
<feBlend mode="normal" in2="BackgroundImageFix" result="effect1_dropShadow_0_1"/>
<feBlend mode="normal" in="SourceGraphic" in2="effect1_dropShadow_0_1" result="shape"/>
<feColorMatrix in="SourceAlpha" type="matrix" values="0 0 0 0 0 0 0 0 0 0 0 0 0 0 0 0 0 0 127 0" result="hardAlpha"/>
<feOffset dx="10" dy="-7"/>
<feGaussianBlur stdDeviation="15"/>
<feComposite in2="hardAlpha" operator="arithmetic" k2="-1" k3="1"/>
<feColorMatrix type="matrix" values="0 0 0 0 1 0 0 0 0 0.703526 0 0 0 0 0.288462 0 0 0 1 0"/>
<feBlend mode="normal" in2="shape" result="effect2_innerShadow_0_1"/>
</filter>
</defs>
</svg>
