<svg width="2000" height="1160" viewBox="0 0 2000 1160" fill="none" xmlns="http://www.w3.org/2000/svg">
<g filter="url(#filter0_d_0_1)">
<path d="M997.36 250.038C999.707 245.8 1005.85 245.947 1007.99 250.293L1035.37 305.864C1036.2 307.54 1037.75 308.735 1039.59 309.098L1100.64 321.203C1105.42 322.149 1107.14 328.081 1103.61 331.435L1058.16 374.689C1056.59 376.179 1055.95 378.396 1056.47 380.493L1072.6 444.94C1073.88 450.052 1068.42 454.212 1063.83 451.622L1005.87 418.906C1004.04 417.872 1001.8 417.872 999.97 418.906L941.071 452.15C936.629 454.657 931.283 450.831 932.224 445.818L944.535 380.228C944.903 378.272 944.276 376.261 942.862 374.86L898.988 331.371C895.579 327.993 897.32 322.178 902.024 321.229L962.249 309.071C963.974 308.723 965.458 307.635 966.311 306.096L997.36 250.038Z" fill="#E9E9E9"/>
<path d="M989.486 245.677C995.354 235.082 1010.71 235.451 1016.06 246.315L1042.79 300.557L1102.39 312.374C1114.32 314.739 1118.63 329.572 1109.82 337.955L1065.63 380.004L1081.33 442.755C1084.53 455.535 1070.88 465.935 1059.41 459.46L1002.92 427.575L945.494 459.988C934.391 466.255 921.027 456.69 923.379 444.158L935.396 380.131L892.651 337.764C884.13 329.317 888.482 314.78 900.243 312.406L959.108 300.523L989.486 245.677Z" stroke="#F3F3F3" stroke-width="18"/>
</g>
<g filter="url(#filter1_d_0_1)">
<path d="M680.304 310.639C681.724 298.611 696.077 293.139 705.145 301.168L750.416 341.253L810.058 329.624C821.995 327.296 831.595 339.395 826.615 350.49L801.633 406.14L839.927 458.273C847.726 468.891 839.03 483.685 825.96 482.035L761.604 473.911L720.726 525.652C712.822 535.657 696.831 531.863 694.264 519.374L681.145 455.563L625.542 432.533C614.457 427.941 612.982 412.839 622.968 406.189L672.953 372.904L680.304 310.639Z" stroke="#F3F3F3" stroke-width="18" shape-rendering="crispEdges"/>
</g>
<g filter="url(#filter2_di_0_1)">
<path d="M688.57 317.392C689.422 310.176 698.034 306.892 703.475 311.709L744.451 347.992C746.549 349.849 749.391 350.624 752.14 350.088L806.1 339.566C813.262 338.17 819.022 345.429 816.033 352.085L793.423 402.454C792.096 405.412 792.461 408.855 794.381 411.468L828.542 457.975C833.221 464.345 828.003 473.222 820.161 472.232L762.733 464.982C759.605 464.587 756.498 465.858 754.543 468.332L717.66 515.016C712.917 521.019 703.323 518.743 701.782 511.249L689.909 453.495C689.338 450.713 687.487 448.365 684.916 447.159L634.646 423.575C628.186 420.544 627.654 411.559 633.712 407.787L677.731 380.376C680.053 378.931 681.591 376.508 681.912 373.792L688.57 317.392Z" fill="#FFEF9B"/>
<path d="M688.57 317.392C689.422 310.176 698.034 306.892 703.475 311.709L744.451 347.992C746.549 349.849 749.391 350.624 752.14 350.088L806.1 339.566C813.262 338.17 819.022 345.429 816.033 352.085L793.423 402.454C792.096 405.412 792.461 408.855 794.381 411.468L828.542 457.975C833.221 464.345 828.003 473.222 820.161 472.232L762.733 464.982C759.605 464.587 756.498 465.858 754.543 468.332L717.66 515.016C712.917 521.019 703.323 518.743 701.782 511.249L689.909 453.495C689.338 450.713 687.487 448.365 684.916 447.159L634.646 423.575C628.186 420.544 627.654 411.559 633.712 407.787L677.731 380.376C680.053 378.931 681.591 376.508 681.912 373.792L688.57 317.392Z" stroke="#FFCA41" stroke-width="11"/>
</g>
<path d="M750.85 359.087L753.835 358.765C756.878 358.437 759.802 360.049 761.148 362.799C763.189 366.965 760.861 371.951 756.357 373.062L746.682 375.449C741.578 376.709 736.218 374.77 733.101 370.538L725.198 359.809C722.96 356.77 723.521 352.505 726.47 350.149C729.172 347.99 733.044 348.117 735.598 350.45L741.818 356.13C744.265 358.365 747.555 359.442 750.85 359.087Z" fill="white"/>
<circle cx="771.964" cy="365.8" r="6.76531" transform="rotate(-22.2472 771.964 365.8)" fill="white"/>
<circle cx="730.501" cy="472.91" r="4.5102" transform="rotate(-22.2472 730.501 472.91)" fill="white"/>
<circle cx="738.28" cy="460.957" r="7.21633" transform="rotate(-22.2472 738.28 460.957)" fill="white"/>
<g filter="url(#filter3_d_0_1)">
<path d="M1314.03 311.694C1313.46 306.883 1307.72 304.694 1304.09 307.906L1257.71 348.974C1256.31 350.212 1254.41 350.729 1252.58 350.371L1191.49 338.458C1186.71 337.527 1182.87 342.366 1184.86 346.804L1210.56 404.049C1211.45 406.021 1211.2 408.316 1209.92 410.058L1170.59 463.601C1167.47 467.848 1170.95 473.766 1176.18 473.106L1242.22 464.77C1244.3 464.507 1246.37 465.354 1247.68 467.003L1289.6 520.073C1292.77 524.074 1299.16 522.557 1300.19 517.561L1313.63 452.192C1314.03 450.243 1315.37 448.619 1317.21 447.857L1374.28 424.217C1378.72 422.381 1379.31 416.34 1375.31 413.68L1324.17 379.626C1322.71 378.651 1321.74 377.082 1321.54 375.335L1314.03 311.694Z" fill="#E9E9E9"/>
<path d="M1322.96 310.639C1321.54 298.611 1307.19 293.139 1298.12 301.168L1252.85 341.253L1193.21 329.624C1181.27 327.296 1171.67 339.395 1176.65 350.49L1201.63 406.14L1163.34 458.273C1155.54 468.891 1164.24 483.685 1177.31 482.035L1241.66 473.911L1282.54 525.652C1290.45 535.657 1306.44 531.863 1309 519.374L1322.12 455.563L1377.73 432.533C1388.81 427.941 1390.29 412.839 1380.3 406.189L1330.31 372.904L1322.96 310.639Z" stroke="#F3F3F3" stroke-width="18"/>
</g>
<g filter="url(#filter4_di_0_1)">
<mask id="path-12-inside-1_0_1" fill="white">
<path d="M993.382 249.515C997.099 242.882 1004.72 240.708 1011 242.965L1011 422.113C1010.08 421.811 1009.06 421.902 1008.2 422.382L952.345 453.587C941.667 459.553 928.854 450.43 930.998 438.388L941.383 380.053C941.585 378.918 941.214 377.755 940.392 376.946L900.016 337.2C891.642 328.956 896.037 314.697 907.6 312.599L962.122 302.706C963.149 302.52 964.039 301.885 964.55 300.974L993.382 249.515Z"/>
</mask>
<path d="M993.382 249.515C997.099 242.882 1004.72 240.708 1011 242.965L1011 422.113C1010.08 421.811 1009.06 421.902 1008.2 422.382L952.345 453.587C941.667 459.553 928.854 450.43 930.998 438.388L941.383 380.053C941.585 378.918 941.214 377.755 940.392 376.946L900.016 337.2C891.642 328.956 896.037 314.697 907.6 312.599L962.122 302.706C963.149 302.52 964.039 301.885 964.55 300.974L993.382 249.515Z" fill="#FFEF9B"/>
<path d="M993.382 249.515L983.786 244.138L983.786 244.138L993.382 249.515ZM1011 242.965L1022 242.965L1022 235.23L1014.72 232.614L1011 242.965ZM1011 422.113L1007.57 432.566L1022 437.292L1022 422.113L1011 422.113ZM1008.2 422.382L1002.84 412.778L1002.84 412.779L1008.2 422.382ZM952.345 453.587L946.981 443.984L946.981 443.984L952.345 453.587ZM930.998 438.388L941.828 440.315L941.828 440.315L930.998 438.388ZM941.383 380.053L952.213 381.981L952.213 381.98L941.383 380.053ZM940.392 376.946L948.11 369.107L948.109 369.106L940.392 376.946ZM900.016 337.2L892.299 345.039L892.299 345.039L900.016 337.2ZM907.6 312.599L909.563 323.422L909.564 323.422L907.6 312.599ZM962.122 302.706L964.085 313.53L964.087 313.529L962.122 302.706ZM964.55 300.974L974.146 306.352L974.146 306.351L964.55 300.974ZM993.382 249.515L1002.98 254.892C1003.47 254.018 1004.12 253.547 1004.82 253.303C1005.61 253.032 1006.5 253.037 1007.28 253.317L1011 242.965L1014.72 232.614C1003.83 228.701 990.358 232.408 983.786 244.138L993.382 249.515ZM1011 242.965L999.999 242.966L1000 422.113L1011 422.113L1022 422.113L1022 242.965L1011 242.965ZM1011 422.113L1014.42 411.659C1010.61 410.411 1006.41 410.784 1002.84 412.778L1008.2 422.382L1013.57 431.986C1011.72 433.019 1009.54 433.21 1007.57 432.566L1011 422.113ZM1008.2 422.382L1002.84 412.779L946.981 443.984L952.345 453.587L957.71 463.191L1013.57 431.985L1008.2 422.382ZM952.345 453.587L946.981 443.984C944.403 445.424 941.31 443.222 941.828 440.315L930.998 438.388L920.168 436.46C916.398 457.638 938.93 473.682 957.71 463.191L952.345 453.587ZM930.998 438.388L941.828 440.315L952.213 381.981L941.383 380.053L930.553 378.125L920.168 436.46L930.998 438.388ZM941.383 380.053L952.213 381.98C953.051 377.272 951.513 372.458 948.11 369.107L940.392 376.946L932.674 384.784C930.916 383.052 930.12 380.563 930.553 378.126L941.383 380.053ZM940.392 376.946L948.109 369.106L907.733 329.361L900.016 337.2L892.299 345.039L932.676 384.785L940.392 376.946ZM900.016 337.2L907.733 329.361C905.711 327.371 906.772 323.929 909.563 323.422L907.6 312.599L905.636 301.776C885.302 305.465 877.572 330.542 892.299 345.039L900.016 337.2ZM907.6 312.599L909.564 323.422L964.085 313.53L962.122 302.706L960.158 291.883L905.636 301.776L907.6 312.599ZM962.122 302.706L964.087 313.529C968.337 312.757 972.029 310.129 974.146 306.352L964.55 300.974L954.954 295.596C956.05 293.64 957.96 292.282 960.156 291.883L962.122 302.706ZM964.55 300.974L974.146 306.351L1002.98 254.892L993.382 249.515L983.786 244.138L954.954 295.597L964.55 300.974Z" fill="#FFCA41" mask="url(#path-12-inside-1_0_1)"/>
</g>
<ellipse cx="973.359" cy="419.289" rx="4.69886" ry="4.5102" transform="rotate(-1.15981 973.359 419.289)" fill="white"/>
<ellipse cx="985.411" cy="410.924" rx="7.51818" ry="7.21633" transform="rotate(-1.15981 985.411 410.924)" fill="white"/>
<rect x="43" y="43" width="55.0938" height="30" rx="3" fill="#444444"/>
<rect x="43.5" y="43.5" width="54.0938" height="29" rx="2.5" stroke="white" stroke-opacity="0.0980392"/>
<path d="M52.6406 53V61H51.6719V54.0156H51.625L49.6719 55.3125V54.3281L51.6719 53H52.6406ZM55.1563 61.0625C54.9635 61.0625 54.7982 60.9935 54.6602 60.8555C54.5221 60.7174 54.4531 60.5521 54.4531 60.3594C54.4531 60.1667 54.5221 60.0013 54.6602 59.8633C54.7982 59.7253 54.9635 59.6562 55.1563 59.6562C55.349 59.6562 55.5143 59.7253 55.6523 59.8633C55.7904 60.0013 55.8594 60.1667 55.8594 60.3594C55.8594 60.487 55.8268 60.6042 55.7617 60.7109C55.6992 60.8177 55.6146 60.9036 55.5078 60.9687C55.4036 61.0313 55.2865 61.0625 55.1563 61.0625ZM59.8369 61.1094C59.3786 61.1094 58.9658 61.0182 58.5986 60.8359C58.2314 60.6536 57.9372 60.4036 57.7158 60.0859C57.4945 59.7682 57.3734 59.4062 57.3525 59H58.29C58.3265 59.362 58.4906 59.6615 58.7822 59.8984C59.0765 60.1328 59.4281 60.25 59.8369 60.25C60.165 60.25 60.4567 60.1732 60.7119 60.0195C60.9697 59.8659 61.1715 59.6549 61.3174 59.3867C61.4658 59.1159 61.54 58.8099 61.54 58.4687C61.54 58.1198 61.4632 57.8086 61.3096 57.5352C61.1585 57.2591 60.9502 57.0417 60.6846 56.8828C60.4189 56.724 60.1156 56.6432 59.7744 56.6406C59.5296 56.638 59.2783 56.6758 59.0205 56.7539C58.7627 56.8294 58.5505 56.9271 58.3838 57.0469L57.4775 56.9375L57.9619 53H62.1182V53.8594H58.7744L58.4932 56.2187H58.54C58.7041 56.0885 58.9098 55.9805 59.1572 55.8945C59.4046 55.8086 59.6624 55.7656 59.9307 55.7656C60.4202 55.7656 60.8564 55.8828 61.2393 56.1172C61.6247 56.349 61.9268 56.6667 62.1455 57.0703C62.3669 57.474 62.4775 57.9349 62.4775 58.4531C62.4775 58.9635 62.363 59.4193 62.1338 59.8203C61.9072 60.2187 61.5947 60.5339 61.1963 60.7656C60.7979 60.9948 60.3447 61.1094 59.8369 61.1094ZM71.3887 56.3437L70.5605 56.5781C70.5085 56.4401 70.4316 56.306 70.3301 56.1758C70.2311 56.043 70.0957 55.9336 69.9238 55.8477C69.752 55.7617 69.5319 55.7187 69.2637 55.7187C68.8965 55.7187 68.5905 55.8034 68.3457 55.9727C68.1035 56.1393 67.9824 56.3516 67.9824 56.6094C67.9824 56.8385 68.0658 57.0195 68.2324 57.1523C68.3991 57.2852 68.6595 57.3958 69.0137 57.4844L69.9043 57.7031C70.4408 57.8333 70.8405 58.0326 71.1035 58.3008C71.3665 58.5664 71.498 58.9089 71.498 59.3281C71.498 59.6719 71.3991 59.9792 71.2012 60.25C71.0059 60.5208 70.7324 60.7344 70.3809 60.8906C70.0293 61.0469 69.6204 61.125 69.1543 61.125C68.5423 61.125 68.0358 60.9922 67.6348 60.7266C67.2337 60.4609 66.9798 60.0729 66.873 59.5625L67.748 59.3437C67.8314 59.6667 67.9889 59.9089 68.2207 60.0703C68.4551 60.2318 68.7611 60.3125 69.1387 60.3125C69.5684 60.3125 69.9095 60.2214 70.1621 60.0391C70.4173 59.8542 70.5449 59.6328 70.5449 59.375C70.5449 59.1667 70.472 58.9922 70.3262 58.8516C70.1803 58.7083 69.9564 58.6016 69.6543 58.5312L68.6543 58.2969C68.1048 58.1667 67.7012 57.9648 67.4434 57.6914C67.1882 57.4154 67.0605 57.0703 67.0605 56.6562C67.0605 56.3177 67.1556 56.0182 67.3457 55.7578C67.5384 55.4974 67.8001 55.293 68.1309 55.1445C68.4642 54.9961 68.8418 54.9219 69.2637 54.9219C69.8574 54.9219 70.3236 55.0521 70.6621 55.3125C71.0033 55.5729 71.2454 55.9167 71.3887 56.3437ZM75.4951 55V55.7812H72.3857V55H75.4951ZM73.292 53.5625H74.2139V59.2812C74.2139 59.5417 74.2516 59.737 74.3271 59.8672C74.4053 59.9948 74.5042 60.0807 74.624 60.125C74.7464 60.1667 74.8753 60.1875 75.0107 60.1875C75.1123 60.1875 75.1956 60.1823 75.2607 60.1719C75.3258 60.1589 75.3779 60.1484 75.417 60.1406L75.6045 60.9687C75.542 60.9922 75.4548 61.0156 75.3428 61.0391C75.2308 61.0651 75.0889 61.0781 74.917 61.0781C74.6566 61.0781 74.4014 61.0221 74.1514 60.9102C73.904 60.7982 73.6982 60.6276 73.5342 60.3984C73.3727 60.1693 73.292 59.8802 73.292 59.5312V53.5625ZM78.6475 61.1406C78.2673 61.1406 77.9222 61.069 77.6123 60.9258C77.3024 60.7799 77.0563 60.5703 76.874 60.2969C76.6917 60.0208 76.6006 59.6875 76.6006 59.2969C76.6006 58.9531 76.6683 58.6745 76.8037 58.4609C76.9391 58.2448 77.1201 58.0755 77.3467 57.9531C77.5732 57.8307 77.8232 57.7396 78.0967 57.6797C78.3727 57.6172 78.6501 57.5677 78.9287 57.5313C79.2933 57.4844 79.5889 57.4492 79.8154 57.4258C80.0446 57.3997 80.2113 57.3568 80.3154 57.2969C80.4222 57.237 80.4756 57.1328 80.4756 56.9844V56.9531C80.4756 56.5677 80.3701 56.2682 80.1592 56.0547C79.9508 55.8411 79.6344 55.7344 79.21 55.7344C78.7699 55.7344 78.4248 55.8307 78.1748 56.0234C77.9248 56.2161 77.749 56.4219 77.6475 56.6406L76.7725 56.3281C76.9287 55.9635 77.137 55.6797 77.3975 55.4766C77.6605 55.2708 77.9469 55.1276 78.2568 55.0469C78.5693 54.9635 78.8766 54.9219 79.1787 54.9219C79.3714 54.9219 79.5928 54.9453 79.8428 54.9922C80.0954 55.0365 80.3389 55.1289 80.5732 55.2695C80.8102 55.4102 81.0068 55.6224 81.1631 55.9062C81.3193 56.1901 81.3975 56.5703 81.3975 57.0469V61H80.4756V60.1875H80.4287C80.3662 60.3177 80.262 60.457 80.1162 60.6055C79.9704 60.7539 79.7764 60.8802 79.5342 60.9844C79.292 61.0885 78.9964 61.1406 78.6475 61.1406ZM78.7881 60.3125C79.1527 60.3125 79.46 60.2409 79.71 60.0977C79.9626 59.9544 80.1527 59.7695 80.2803 59.543C80.4105 59.3164 80.4756 59.0781 80.4756 58.8281V57.9844C80.4365 58.0312 80.3506 58.0742 80.2178 58.1133C80.0876 58.1497 79.9365 58.1823 79.7646 58.2109C79.5954 58.237 79.43 58.2604 79.2686 58.2812C79.1097 58.2995 78.9808 58.3151 78.8818 58.3281C78.6423 58.3594 78.4183 58.4102 78.21 58.4805C78.0042 58.5482 77.8376 58.651 77.71 58.7891C77.585 58.9245 77.5225 59.1094 77.5225 59.3437C77.5225 59.6641 77.641 59.9062 77.8779 60.0703C78.1175 60.2318 78.4209 60.3125 78.7881 60.3125ZM83.0801 61V55H83.9707V55.9062H84.0332C84.1426 55.6094 84.3405 55.3685 84.627 55.1836C84.9134 54.9987 85.2363 54.9062 85.5957 54.9062C85.6634 54.9062 85.748 54.9076 85.8496 54.9102C85.9512 54.9128 86.028 54.9167 86.0801 54.9219V55.8594C86.0488 55.8516 85.9772 55.8398 85.8652 55.8242C85.7559 55.806 85.64 55.7969 85.5176 55.7969C85.2259 55.7969 84.9655 55.8581 84.7363 55.9805C84.5098 56.1003 84.3301 56.2669 84.1973 56.4805C84.0671 56.6914 84.002 56.9323 84.002 57.2031V61H83.0801ZM91.4229 56.3437L90.5947 56.5781C90.5426 56.4401 90.4658 56.306 90.3643 56.1758C90.2653 56.043 90.1299 55.9336 89.958 55.8477C89.7861 55.7617 89.5661 55.7187 89.2979 55.7187C88.9307 55.7187 88.6247 55.8034 88.3799 55.9727C88.1377 56.1393 88.0166 56.3516 88.0166 56.6094C88.0166 56.8385 88.0999 57.0195 88.2666 57.1523C88.4333 57.2852 88.6937 57.3958 89.0479 57.4844L89.9385 57.7031C90.4749 57.8333 90.8747 58.0326 91.1377 58.3008C91.4007 58.5664 91.5322 58.9089 91.5322 59.3281C91.5322 59.6719 91.4333 59.9792 91.2354 60.25C91.04 60.5208 90.7666 60.7344 90.415 60.8906C90.0635 61.0469 89.6546 61.125 89.1885 61.125C88.5765 61.125 88.07 60.9922 87.6689 60.7266C87.2679 60.4609 87.014 60.0729 86.9072 59.5625L87.7822 59.3437C87.8656 59.6667 88.0231 59.9089 88.2549 60.0703C88.4893 60.2318 88.7952 60.3125 89.1729 60.3125C89.6025 60.3125 89.9437 60.2214 90.1963 60.0391C90.4515 59.8542 90.5791 59.6328 90.5791 59.375C90.5791 59.1667 90.5062 58.9922 90.3604 58.8516C90.2145 58.7083 89.9906 58.6016 89.6885 58.5312L88.6885 58.2969C88.139 58.1667 87.7354 57.9648 87.4775 57.6914C87.2223 57.4154 87.0947 57.0703 87.0947 56.6562C87.0947 56.3177 87.1898 56.0182 87.3799 55.7578C87.5726 55.4974 87.8343 55.293 88.165 55.1445C88.4984 54.9961 88.876 54.9219 89.2979 54.9219C89.8916 54.9219 90.3577 55.0521 90.6963 55.3125C91.0374 55.5729 91.2796 55.9167 91.4229 56.3437Z" fill="white"/>
<defs>
<filter id="filter0_d_0_1" x="863.891" y="213.644" width="274.907" height="272.641" filterUnits="userSpaceOnUse" color-interpolation-filters="sRGB">
<feFlood flood-opacity="0" result="BackgroundImageFix"/>
<feColorMatrix in="SourceAlpha" type="matrix" values="0 0 0 0 0 0 0 0 0 0 0 0 0 0 0 0 0 0 127 0" result="hardAlpha"/>
<feOffset/>
<feGaussianBlur stdDeviation="7.65"/>
<feComposite in2="hardAlpha" operator="out"/>
<feColorMatrix type="matrix" values="0 0 0 0 0 0 0 0 0 0 0 0 0 0 0 0 0 0 0.25 0"/>
<feBlend mode="normal" in2="BackgroundImageFix" result="effect1_dropShadow_0_1"/>
<feBlend mode="normal" in="SourceGraphic" in2="effect1_dropShadow_0_1" result="shape"/>
</filter>
<filter id="filter1_d_0_1" x="591.979" y="273.068" width="275.223" height="282.602" filterUnits="userSpaceOnUse" color-interpolation-filters="sRGB">
<feFlood flood-opacity="0" result="BackgroundImageFix"/>
<feColorMatrix in="SourceAlpha" type="matrix" values="0 0 0 0 0 0 0 0 0 0 0 0 0 0 0 0 0 0 127 0" result="hardAlpha"/>
<feOffset/>
<feGaussianBlur stdDeviation="7.65"/>
<feComposite in2="hardAlpha" operator="out"/>
<feColorMatrix type="matrix" values="0 0 0 0 0 0 0 0 0 0 0 0 0 0 0 0 0 0 0.25 0"/>
<feBlend mode="normal" in2="BackgroundImageFix" result="effect1_dropShadow_0_1"/>
<feBlend mode="normal" in="SourceGraphic" in2="effect1_dropShadow_0_1" result="shape"/>
</filter>
<filter id="filter2_di_0_1" x="619.969" y="296.93" width="225.859" height="235.018" filterUnits="userSpaceOnUse" color-interpolation-filters="sRGB">
<feFlood flood-opacity="0" result="BackgroundImageFix"/>
<feColorMatrix in="SourceAlpha" type="matrix" values="0 0 0 0 0 0 0 0 0 0 0 0 0 0 0 0 0 0 127 0" result="hardAlpha"/>
<feOffset dy="4"/>
<feGaussianBlur stdDeviation="2"/>
<feComposite in2="hardAlpha" operator="out"/>
<feColorMatrix type="matrix" values="0 0 0 0 0 0 0 0 0 0 0 0 0 0 0 0 0 0 0.25 0"/>
<feBlend mode="normal" in2="BackgroundImageFix" result="effect1_dropShadow_0_1"/>
<feBlend mode="normal" in="SourceGraphic" in2="effect1_dropShadow_0_1" result="shape"/>
<feColorMatrix in="SourceAlpha" type="matrix" values="0 0 0 0 0 0 0 0 0 0 0 0 0 0 0 0 0 0 127 0" result="hardAlpha"/>
<feOffset dx="10" dy="-7"/>
<feGaussianBlur stdDeviation="15"/>
<feComposite in2="hardAlpha" operator="arithmetic" k2="-1" k3="1"/>
<feColorMatrix type="matrix" values="0 0 0 0 1 0 0 0 0 0.703526 0 0 0 0 0.288462 0 0 0 1 0"/>
<feBlend mode="normal" in2="shape" result="effect2_innerShadow_0_1"/>
</filter>
<filter id="filter3_d_0_1" x="1136.07" y="273.068" width="275.223" height="282.602" filterUnits="userSpaceOnUse" color-interpolation-filters="sRGB">
<feFlood flood-opacity="0" result="BackgroundImageFix"/>
<feColorMatrix in="SourceAlpha" type="matrix" values="0 0 0 0 0 0 0 0 0 0 0 0 0 0 0 0 0 0 127 0" result="hardAlpha"/>
<feOffset/>
<feGaussianBlur stdDeviation="7.65"/>
<feComposite in2="hardAlpha" operator="out"/>
<feColorMatrix type="matrix" values="0 0 0 0 0 0 0 0 0 0 0 0 0 0 0 0 0 0 0.25 0"/>
<feBlend mode="normal" in2="BackgroundImageFix" result="effect1_dropShadow_0_1"/>
<feBlend mode="normal" in="SourceGraphic" in2="effect1_dropShadow_0_1" result="shape"/>
</filter>
<filter id="filter4_di_0_1" x="891.676" y="235.104" width="129.324" height="228.36" filterUnits="userSpaceOnUse" color-interpolation-filters="sRGB">
<feFlood flood-opacity="0" result="BackgroundImageFix"/>
<feColorMatrix in="SourceAlpha" type="matrix" values="0 0 0 0 0 0 0 0 0 0 0 0 0 0 0 0 0 0 127 0" result="hardAlpha"/>
<feOffset dy="4"/>
<feGaussianBlur stdDeviation="2"/>
<feComposite in2="hardAlpha" operator="out"/>
<feColorMatrix type="matrix" values="0 0 0 0 0 0 0 0 0 0 0 0 0 0 0 0 0 0 0.25 0"/>
<feBlend mode="normal" in2="BackgroundImageFix" result="effect1_dropShadow_0_1"/>
<feBlend mode="normal" in="SourceGraphic" in2="effect1_dropShadow_0_1" result="shape"/>
<feColorMatrix in="SourceAlpha" type="matrix" values="0 0 0 0 0 0 0 0 0 0 0 0 0 0 0 0 0 0 127 0" result="hardAlpha"/>
<feOffset dx="10" dy="-7"/>
<feGaussianBlur stdDeviation="15"/>
<feComposite in2="hardAlpha" operator="arithmetic" k2="-1" k3="1"/>
<feColorMatrix type="matrix" values="0 0 0 0 1 0 0 0 0 0.703526 0 0 0 0 0.288462 0 0 0 1 0"/>
<feBlend mode="normal" in2="shape" result="effect2_innerShadow_0_1"/>
</filter>
</defs>
</svg>
