<svg width="2000" height="1160" viewBox="0 0 2000 1160" fill="none" xmlns="http://www.w3.org/2000/svg">
<g filter="url(#filter0_d_0_1)">
<rect x="1636.16" y="748.123" width="159.558" height="473.328" rx="56" transform="rotate(82.2762 1636.16 748.123)" stroke="#F3F3F3" stroke-width="14" shape-rendering="crispEdges"/>
</g>
<g filter="url(#filter1_d_0_1)">
<rect x="1629.16" y="755" width="145.558" height="459.328" rx="49" transform="rotate(82.2762 1629.16 755)" fill="#FFAACA"/>
<rect x="1623.16" y="762.877" width="131.558" height="445.328" rx="42" transform="rotate(82.2762 1623.16 762.877)" stroke="#F474A5" stroke-width="14"/>
</g>
<path d="M1208 864.5C1208 864.5 1210 850 1216.5 843.5C1223 837 1234 835 1234 835" stroke="white" stroke-width="14" stroke-linecap="round"/>
<path d="M1615 851C1615 851 1613 865.5 1606.5 872C1600 878.5 1589 880.5 1589 880.5" stroke="white" stroke-width="16" stroke-linecap="round"/>
<g filter="url(#filter2_i_0_1)">
<path d="M1292.57 898.428C1292.71 899.314 1290.79 900.057 1286.82 900.658C1282.86 901.259 1280.66 901.269 1280.23 900.687L1266.67 882.546L1269.65 902.225C1269.76 902.985 1267.86 903.662 1263.94 904.256C1260.06 904.844 1258.06 904.759 1257.94 903.999L1251.53 861.667C1251.43 861.034 1253.05 860.465 1256.38 859.96C1257.69 859.762 1259.23 859.658 1261 859.649C1262.8 859.592 1263.94 859.85 1264.42 860.426L1277.49 878.381L1274.48 858.512C1274.36 857.71 1276.26 857.012 1280.19 856.418C1284.11 855.823 1286.13 855.927 1286.25 856.728L1292.57 898.428ZM1315.66 869.037C1316.46 868.916 1317.08 870.332 1317.53 873.285C1317.66 874.171 1317.72 875.241 1317.69 876.497C1317.7 877.703 1317.46 878.345 1316.95 878.422L1308.91 879.64L1309.87 885.967L1321.52 884.203C1322.23 884.094 1322.86 884.949 1323.39 886.767C1323.64 887.549 1323.83 888.404 1323.98 889.332C1324.11 890.218 1324.16 891.397 1324.12 892.87C1324.09 894.343 1323.77 895.124 1323.18 895.213L1301.54 898.493C1299.94 898.736 1299.04 898.203 1298.84 896.895L1292.67 856.208C1292.51 855.111 1292.91 854.489 1293.88 854.342L1316.53 850.909C1317.42 850.775 1318.15 852.585 1318.72 856.34C1319.28 860.052 1319.12 861.975 1318.23 862.109L1306.53 863.883L1307.49 870.274L1315.66 869.037ZM1347.37 847.985C1347.68 846.642 1350.22 845.61 1354.99 844.888C1356.21 844.702 1357.73 844.581 1359.53 844.523C1361.37 844.417 1362.3 844.448 1362.33 844.617L1354.89 868.141L1369.2 887.398C1369.36 887.59 1368.48 887.939 1366.57 888.444C1364.66 888.906 1363.03 889.24 1361.68 889.445C1356.32 890.257 1353.28 889.984 1352.55 888.626L1345.98 877.259L1343.56 890.377C1343.32 891.622 1340.71 892.622 1335.73 893.376C1334.51 893.562 1332.98 893.707 1331.14 893.814C1329.3 893.92 1328.44 893.812 1328.56 893.491L1335.12 870.101L1321.7 850.773C1321.54 850.582 1322.38 850.261 1324.21 849.811C1326.08 849.312 1327.66 848.964 1328.97 848.766C1334.29 847.96 1337.31 848.278 1338.05 849.72L1344.03 859.689L1347.37 847.985ZM1392.43 883.683C1392.56 884.527 1390.54 885.265 1386.36 885.898C1382.18 886.531 1380.03 886.426 1379.9 885.582L1375.09 853.817L1367.5 854.968C1366.78 855.076 1366.13 854.183 1365.54 852.287C1365.27 851.378 1365.06 850.438 1364.91 849.468C1364.77 848.498 1364.69 847.539 1364.67 846.592C1364.67 844.607 1365.03 843.56 1365.75 843.451L1393.28 839.28C1393.99 839.171 1394.65 840.065 1395.24 841.96C1395.5 842.869 1395.71 843.809 1395.86 844.779C1396 845.749 1396.08 846.708 1396.1 847.655C1396.1 849.641 1395.74 850.688 1395.02 850.796L1387.62 851.918L1392.43 883.683ZM1416.03 877.324L1410.06 837.965C1409.93 837.08 1411.99 836.314 1416.25 835.668C1420.56 835.016 1422.78 835.133 1422.91 836.019L1427.61 867.025L1437.35 865.548C1438.11 865.433 1438.79 866.344 1439.39 868.282C1439.66 869.234 1439.87 870.215 1440.03 871.228C1440.18 872.24 1440.27 873.283 1440.31 874.357C1440.28 876.433 1439.88 877.529 1439.12 877.644L1419.63 880.597C1418.7 880.738 1417.91 880.47 1417.24 879.794C1416.58 879.118 1416.18 878.294 1416.03 877.324ZM1461.24 846.975C1462.05 846.853 1462.67 848.269 1463.12 851.222C1463.25 852.108 1463.31 853.179 1463.28 854.434C1463.29 855.641 1463.04 856.282 1462.54 856.359L1454.5 857.577L1455.46 863.905L1467.1 862.14C1467.82 862.032 1468.45 862.886 1468.98 864.704C1469.23 865.486 1469.42 866.341 1469.56 867.269C1469.7 868.155 1469.75 869.335 1469.71 870.807C1469.68 872.28 1469.36 873.061 1468.77 873.15L1447.13 876.43C1445.53 876.673 1444.63 876.141 1444.43 874.833L1438.26 834.145C1438.1 833.049 1438.5 832.427 1439.47 832.28L1462.12 828.847C1463.01 828.712 1463.74 830.522 1464.3 834.277C1464.87 837.989 1464.71 839.913 1463.82 840.047L1452.11 841.821L1453.08 848.212L1461.24 846.975ZM1466.88 828.968C1466.84 828.757 1467.72 828.429 1469.51 827.986C1471.34 827.494 1472.84 827.158 1474.02 826.979C1478.7 826.269 1481.24 826.51 1481.64 827.702L1491.3 854.719L1492.2 826.1C1492.27 824.839 1494.8 823.831 1499.77 823.076C1501 822.891 1502.55 822.742 1504.43 822.629C1506.31 822.517 1507.27 822.566 1507.3 822.777L1502.45 866.364C1502.38 867.064 1501.21 867.696 1498.92 868.258C1495.39 869.182 1492.13 869.761 1489.15 869.998C1486.2 870.186 1484.59 869.997 1484.34 869.432L1466.88 828.968ZM1534.29 835.906C1535.09 835.785 1535.71 837.2 1536.16 840.153C1536.29 841.039 1536.35 842.11 1536.32 843.365C1536.33 844.572 1536.08 845.214 1535.58 845.29L1527.54 846.508L1528.5 852.836L1540.14 851.071C1540.86 850.963 1541.49 851.817 1542.02 853.635C1542.27 854.417 1542.46 855.273 1542.6 856.201C1542.74 857.087 1542.79 858.266 1542.75 859.738C1542.72 861.211 1542.4 861.992 1541.81 862.082L1520.17 865.361C1518.57 865.604 1517.67 865.072 1517.47 863.764L1511.3 823.077C1511.14 821.98 1511.54 821.358 1512.51 821.211L1535.16 817.778C1536.05 817.644 1536.78 819.454 1537.35 823.208C1537.91 826.92 1537.75 828.844 1536.86 828.978L1525.15 830.752L1526.12 837.143L1534.29 835.906ZM1547.77 857.359L1541.81 818C1541.68 817.115 1543.74 816.349 1548 815.703C1552.3 815.051 1554.52 815.168 1554.66 816.054L1559.35 847.06L1569.1 845.583C1569.86 845.468 1570.54 846.379 1571.13 848.317C1571.41 849.268 1571.62 850.25 1571.77 851.263C1571.93 852.275 1572.02 853.318 1572.05 854.392C1572.02 856.468 1571.63 857.564 1570.87 857.679L1551.38 860.632C1550.45 860.773 1549.65 860.505 1548.99 859.829C1548.33 859.153 1547.92 858.329 1547.77 857.359Z" fill="#FF3884"/>
</g>
<defs>
<filter id="filter0_d_0_1" x="1163.13" y="748.134" width="498.457" height="229.702" filterUnits="userSpaceOnUse" color-interpolation-filters="sRGB">
<feFlood flood-opacity="0" result="BackgroundImageFix"/>
<feColorMatrix in="SourceAlpha" type="matrix" values="0 0 0 0 0 0 0 0 0 0 0 0 0 0 0 0 0 0 127 0" result="hardAlpha"/>
<feOffset dy="4"/>
<feGaussianBlur stdDeviation="2"/>
<feComposite in2="hardAlpha" operator="out"/>
<feColorMatrix type="matrix" values="0 0 0 0 0 0 0 0 0 0 0 0 0 0 0 0 0 0 0.25 0"/>
<feBlend mode="normal" in2="BackgroundImageFix" result="effect1_dropShadow_0_1"/>
<feBlend mode="normal" in="SourceGraphic" in2="effect1_dropShadow_0_1" result="shape"/>
</filter>
<filter id="filter1_d_0_1" x="1170.13" y="751.135" width="482.453" height="213.699" filterUnits="userSpaceOnUse" color-interpolation-filters="sRGB">
<feFlood flood-opacity="0" result="BackgroundImageFix"/>
<feColorMatrix in="SourceAlpha" type="matrix" values="0 0 0 0 0 0 0 0 0 0 0 0 0 0 0 0 0 0 127 0" result="hardAlpha"/>
<feOffset/>
<feGaussianBlur stdDeviation="5"/>
<feComposite in2="hardAlpha" operator="out"/>
<feColorMatrix type="matrix" values="0 0 0 0 0 0 0 0 0 0 0 0 0 0 0 0 0 0 0.38 0"/>
<feBlend mode="normal" in2="BackgroundImageFix" result="effect1_dropShadow_0_1"/>
<feBlend mode="normal" in="SourceGraphic" in2="effect1_dropShadow_0_1" result="shape"/>
</filter>
<filter id="filter2_i_0_1" x="1251.36" y="811.854" width="322.385" height="93.4746" filterUnits="userSpaceOnUse" color-interpolation-filters="sRGB">
<feFlood flood-opacity="0" result="BackgroundImageFix"/>
<feBlend mode="normal" in="SourceGraphic" in2="BackgroundImageFix" result="shape"/>
<feColorMatrix in="SourceAlpha" type="matrix" values="0 0 0 0 0 0 0 0 0 0 0 0 0 0 0 0 0 0 127 0" result="hardAlpha"/>
<feOffset dx="1" dy="-1"/>
<feGaussianBlur stdDeviation="2"/>
<feComposite in2="hardAlpha" operator="arithmetic" k2="-1" k3="1"/>
<feColorMatrix type="matrix" values="0 0 0 0 0.416666 0 0 0 0 0.416666 0 0 0 0 0.416666 0 0 0 0.56 0"/>
<feBlend mode="normal" in2="shape" result="effect1_innerShadow_0_1"/>
</filter>
</defs>
</svg>
