<svg width="645" height="310" viewBox="0 0 645 310" fill="none" xmlns="http://www.w3.org/2000/svg">
<g filter="url(#filter0_d_0_1)">
<rect x="559.697" y="75.274" width="159.558" height="473.328" rx="56" transform="rotate(89.997 559.697 75.274)" stroke="#F3F3F3" stroke-width="14" shape-rendering="crispEdges"/>
</g>
<g filter="url(#filter1_d_0_1)">
<rect x="551.84" y="81.1494" width="145.558" height="459.328" rx="49" transform="rotate(89.997 551.84 81.1494)" fill="#FFAACA"/>
<rect x="544.84" y="88.1498" width="131.558" height="445.328" rx="42" transform="rotate(89.997 544.84 88.1498)" stroke="#F474A5" stroke-width="14"/>
</g>
<path d="M119.785 133.075C119.785 133.075 123.714 118.975 131.029 113.408C138.344 107.84 149.512 107.336 149.512 107.336" stroke="white" stroke-width="14" stroke-linecap="round"/>
<path d="M524.91 174.377C524.91 174.377 520.981 188.477 513.666 194.044C506.351 199.612 495.183 200.116 495.183 200.116" stroke="white" stroke-width="16" stroke-linecap="round"/>
<g filter="url(#filter2_i_0_1)">
<path d="M199.035 178.058C199.049 178.954 197.051 179.434 193.041 179.496C189.031 179.559 186.85 179.273 186.498 178.639L175.499 158.84L175.811 178.742C175.823 179.51 173.845 179.925 169.878 179.987C165.953 180.048 163.984 179.695 163.972 178.927L163.302 136.116C163.292 135.476 164.973 135.13 168.343 135.077C169.665 135.057 171.203 135.16 172.956 135.389C174.751 135.574 175.846 135.984 176.24 136.618L186.787 156.167L186.473 136.074C186.46 135.263 188.437 134.827 192.405 134.765C196.372 134.703 198.362 135.077 198.375 135.887L199.035 178.058ZM225.859 152.035C226.67 152.023 227.098 153.51 227.145 156.496C227.159 157.392 227.069 158.46 226.875 159.701C226.723 160.898 226.391 161.5 225.879 161.508L217.752 161.635L217.852 168.035L229.627 167.85C230.352 167.839 230.858 168.77 231.143 170.643C231.284 171.452 231.361 172.325 231.376 173.264C231.39 174.16 231.28 175.335 231.047 176.789C230.814 178.244 230.398 178.976 229.801 178.985L207.916 179.328C206.295 179.353 205.474 178.704 205.453 177.382L204.809 136.235C204.792 135.126 205.274 134.563 206.255 134.548L229.164 134.19C230.06 134.176 230.538 136.067 230.597 139.864C230.656 143.618 230.237 145.502 229.342 145.516L217.503 145.701L217.604 152.165L225.859 152.035ZM260.11 135.434C260.602 134.146 263.258 133.464 268.079 133.389C269.316 133.369 270.832 133.452 272.628 133.638C274.465 133.78 275.385 133.936 275.387 134.106L264.855 156.418L276.449 177.423C276.58 177.634 275.666 177.862 273.707 178.106C271.748 178.307 270.085 178.419 268.72 178.44C263.302 178.525 260.326 177.846 259.791 176.404L254.8 164.256L250.646 176.931C250.238 178.132 247.517 178.772 242.483 178.851C241.246 178.87 239.709 178.809 237.872 178.667C236.035 178.525 235.199 178.303 235.365 178.002L245.001 155.704L234.304 134.749C234.173 134.538 235.044 134.332 236.919 134.132C238.835 133.889 240.455 133.757 241.777 133.736C247.153 133.652 250.108 134.374 250.644 135.902L255.228 146.583L260.11 135.434ZM299.971 176.863C299.984 177.716 297.879 178.176 293.655 178.242C289.432 178.308 287.314 177.915 287.3 177.061L286.798 144.937L279.118 145.057C278.393 145.069 277.866 144.096 277.537 142.138C277.394 141.201 277.315 140.242 277.3 139.261C277.284 138.28 277.333 137.319 277.446 136.379C277.714 134.411 278.211 133.422 278.936 133.411L306.773 132.975C307.498 132.964 308.025 133.937 308.355 135.895C308.497 136.831 308.576 137.79 308.592 138.772C308.607 139.753 308.558 140.714 308.445 141.654C308.177 143.621 307.68 144.611 306.955 144.622L299.468 144.739L299.971 176.863ZM324.208 173.732L323.585 133.928C323.571 133.033 325.719 132.551 330.027 132.483C334.379 132.415 336.562 132.829 336.576 133.725L337.066 165.081L346.921 164.927C347.689 164.915 348.238 165.909 348.568 167.91C348.711 168.889 348.791 169.89 348.807 170.914C348.823 171.938 348.775 172.984 348.664 174.053C348.355 176.106 347.816 177.139 347.048 177.151L327.339 177.459C326.4 177.474 325.648 177.101 325.081 176.342C324.514 175.583 324.223 174.713 324.208 173.732ZM373.091 149.732C373.902 149.719 374.33 151.206 374.377 154.192C374.391 155.088 374.301 156.156 374.107 157.397C373.955 158.594 373.623 159.197 373.111 159.205L364.984 159.332L365.084 165.731L376.859 165.547C377.584 165.535 378.09 166.466 378.375 168.339C378.516 169.148 378.593 170.022 378.608 170.96C378.622 171.856 378.512 173.031 378.279 174.486C378.046 175.94 377.63 176.672 377.033 176.681L355.148 177.024C353.527 177.049 352.706 176.401 352.685 175.078L352.041 133.931C352.024 132.822 352.506 132.26 353.487 132.244L376.396 131.886C377.292 131.872 377.77 133.763 377.829 137.56C377.888 141.314 377.469 143.199 376.574 143.213L364.735 143.398L364.836 149.861L373.091 149.732ZM381.091 132.645C381.088 132.431 382.002 132.225 383.834 132.026C385.708 131.783 387.242 131.652 388.436 131.634C393.172 131.559 395.656 132.139 395.888 133.373L401.832 161.444L406.575 133.206C406.812 131.965 409.447 131.305 414.481 131.226C415.718 131.207 417.277 131.268 419.157 131.409C421.036 131.55 421.978 131.728 421.981 131.941L411.317 174.481C411.158 175.166 409.906 175.634 407.563 175.884C403.943 176.324 400.638 176.462 397.648 176.295C394.701 176.085 393.137 175.683 392.957 175.088L381.091 132.645ZM446.957 148.576C447.768 148.563 448.196 150.05 448.243 153.037C448.257 153.932 448.167 155.001 447.973 156.241C447.821 157.438 447.489 158.041 446.977 158.049L438.85 158.176L438.95 164.575L450.725 164.391C451.45 164.38 451.955 165.311 452.241 167.184C452.381 167.992 452.459 168.866 452.474 169.804C452.488 170.7 452.378 171.875 452.145 173.33C451.912 174.784 451.496 175.516 450.899 175.526L429.014 175.868C427.393 175.894 426.572 175.245 426.551 173.922L425.907 132.775C425.89 131.666 426.372 131.104 427.353 131.089L450.262 130.73C451.158 130.716 451.636 132.608 451.695 136.405C451.754 140.159 451.335 142.043 450.44 142.057L438.601 142.242L438.702 148.705L446.957 148.576ZM457.442 171.647L456.819 131.844C456.805 130.948 458.952 130.466 463.261 130.399C467.613 130.331 469.795 130.745 469.809 131.641L470.3 162.997L480.155 162.843C480.923 162.83 481.472 163.825 481.802 165.825C481.945 166.804 482.025 167.806 482.041 168.83C482.057 169.854 482.009 170.9 481.898 171.968C481.589 174.021 481.05 175.054 480.282 175.066L460.572 175.374C459.634 175.389 458.881 175.017 458.315 174.258C457.748 173.498 457.457 172.628 457.442 171.647Z" fill="#FF3884"/>
</g>
<defs>
<filter id="filter0_d_0_1" x="75.3711" y="68.2773" width="495.332" height="181.576" filterUnits="userSpaceOnUse" color-interpolation-filters="sRGB">
<feFlood flood-opacity="0" result="BackgroundImageFix"/>
<feColorMatrix in="SourceAlpha" type="matrix" values="0 0 0 0 0 0 0 0 0 0 0 0 0 0 0 0 0 0 127 0" result="hardAlpha"/>
<feOffset dy="4"/>
<feGaussianBlur stdDeviation="2"/>
<feComposite in2="hardAlpha" operator="out"/>
<feColorMatrix type="matrix" values="0 0 0 0 0 0 0 0 0 0 0 0 0 0 0 0 0 0 0.25 0"/>
<feBlend mode="normal" in2="BackgroundImageFix" result="effect1_dropShadow_0_1"/>
<feBlend mode="normal" in="SourceGraphic" in2="effect1_dropShadow_0_1" result="shape"/>
</filter>
<filter id="filter1_d_0_1" x="82.5137" y="71.1523" width="479.332" height="165.576" filterUnits="userSpaceOnUse" color-interpolation-filters="sRGB">
<feFlood flood-opacity="0" result="BackgroundImageFix"/>
<feColorMatrix in="SourceAlpha" type="matrix" values="0 0 0 0 0 0 0 0 0 0 0 0 0 0 0 0 0 0 127 0" result="hardAlpha"/>
<feOffset/>
<feGaussianBlur stdDeviation="5"/>
<feComposite in2="hardAlpha" operator="out"/>
<feColorMatrix type="matrix" values="0 0 0 0 0 0 0 0 0 0 0 0 0 0 0 0 0 0 0.38 0"/>
<feBlend mode="normal" in2="BackgroundImageFix" result="effect1_dropShadow_0_1"/>
<feBlend mode="normal" in="SourceGraphic" in2="effect1_dropShadow_0_1" result="shape"/>
</filter>
<filter id="filter2_i_0_1" x="163.285" y="128.986" width="319.857" height="51.2842" filterUnits="userSpaceOnUse" color-interpolation-filters="sRGB">
<feFlood flood-opacity="0" result="BackgroundImageFix"/>
<feBlend mode="normal" in="SourceGraphic" in2="BackgroundImageFix" result="shape"/>
<feColorMatrix in="SourceAlpha" type="matrix" values="0 0 0 0 0 0 0 0 0 0 0 0 0 0 0 0 0 0 127 0" result="hardAlpha"/>
<feOffset dx="1" dy="-1"/>
<feGaussianBlur stdDeviation="2"/>
<feComposite in2="hardAlpha" operator="arithmetic" k2="-1" k3="1"/>
<feColorMatrix type="matrix" values="0 0 0 0 0.416666 0 0 0 0 0.416666 0 0 0 0 0.416666 0 0 0 0.56 0"/>
<feBlend mode="normal" in2="shape" result="effect1_innerShadow_0_1"/>
</filter>
</defs>
</svg>
