<svg width="410" height="215" viewBox="0 0 410 215" fill="none" xmlns="http://www.w3.org/2000/svg">
<g filter="url(#filter0_d_0_1)">
<rect x="337.965" y="62.3142" width="90.7539" height="266.242" rx="38" transform="rotate(90.064 337.965 62.3142)" stroke="#F3F3F3" stroke-width="10" shape-rendering="crispEdges"/>
</g>
<g filter="url(#filter1_d_0_1)">
<path d="M301.363 66.3311C320.141 66.3311 335.363 81.5534 335.363 100.331L335.363 114.836C335.363 133.614 320.141 148.836 301.363 148.836L109.007 148.836C90.2293 148.836 75.007 133.614 75.007 114.836L75.007 100.331C75.007 81.5533 90.2293 66.331 109.007 66.331L301.363 66.3311Z" fill="#FFD2E3"/>
<path d="M330.863 100.331L330.863 114.836C330.863 131.128 317.656 144.336 301.363 144.336L109.007 144.336C92.7145 144.336 79.5068 131.128 79.5068 114.836L79.5068 100.331C79.5068 84.0387 92.7145 70.8312 109.007 70.831L301.363 70.8311C317.656 70.8311 330.863 84.0387 330.863 100.331Z" stroke="#FFAACA" stroke-width="9"/>
</g>
<path d="M315.477 118.457C315.477 118.457 313.25 126.126 309.01 129.12C304.77 132.115 298.26 132.324 298.26 132.324" stroke="white" stroke-width="10" stroke-linecap="round"/>
<path d="M97.2451 97.9607C97.2451 97.9607 99.4719 90.292 103.712 87.2977C107.952 84.3033 114.462 84.0939 114.462 84.0939" stroke="white" stroke-width="10" stroke-linecap="round"/>
<g filter="url(#filter2_i_0_1)">
<path d="M158.554 120.417C158.554 120.843 157.287 121.057 154.754 121.057C152.194 121.057 150.914 120.857 150.914 120.457L150.914 94.3766C150.914 93.4432 151.407 92.9766 152.394 92.9766L160.034 92.9766C167.047 92.9766 170.554 95.7099 170.554 101.177C170.554 102.83 170.234 104.337 169.594 105.697C168.954 107.03 168.047 108.097 166.874 108.897L171.914 117.297C171.701 117.937 171.007 118.67 169.834 119.497C168.234 120.643 166.914 121.217 165.874 121.217C164.834 121.217 164.061 120.843 163.554 120.097L159.794 111.337L158.554 111.337L158.554 120.417ZM158.554 100.057L158.554 106.057L158.754 106.057C161.287 106.057 162.554 105.003 162.554 102.897C162.554 101.937 162.301 101.23 161.794 100.777C161.314 100.297 160.514 100.057 159.394 100.057L158.554 100.057ZM187.508 104.097C188.014 104.097 188.268 105.03 188.268 106.897C188.268 107.457 188.201 108.123 188.068 108.897C187.961 109.643 187.748 110.017 187.428 110.017L182.348 110.017L182.348 114.017L189.708 114.017C190.161 114.017 190.468 114.603 190.628 115.777C190.708 116.283 190.748 116.83 190.748 117.417C190.748 117.977 190.668 118.71 190.508 119.617C190.348 120.523 190.081 120.977 189.708 120.977L176.028 120.977C175.014 120.977 174.508 120.563 174.508 119.737L174.508 94.0166C174.508 93.3232 174.814 92.9766 175.428 92.9766L189.748 92.9766C190.308 92.9766 190.588 94.1632 190.588 96.5366C190.588 98.8832 190.308 100.057 189.748 100.057L182.348 100.057L182.348 104.097L187.508 104.097ZM206.274 120.337C206.274 120.87 204.954 121.137 202.314 121.137C199.674 121.137 198.354 120.87 198.354 120.337L198.354 100.257L193.554 100.257C193.101 100.257 192.781 99.6432 192.594 98.4166C192.514 97.8299 192.474 97.2299 192.474 96.6166C192.474 96.0032 192.514 95.4032 192.594 94.8166C192.781 93.5899 193.101 92.9766 193.554 92.9766L210.954 92.9766C211.408 92.9766 211.728 93.5899 211.914 94.8166C211.994 95.4032 212.034 96.0032 212.034 96.6166C212.034 97.2299 211.994 97.8299 211.914 98.4166C211.728 99.6432 211.408 100.257 210.954 100.257L206.274 100.257L206.274 120.337ZM221.952 120.417C221.952 120.843 220.686 121.057 218.152 121.057C215.592 121.057 214.312 120.857 214.312 120.457L214.312 94.3766C214.312 93.4432 214.806 92.9766 215.792 92.9766L223.432 92.9766C230.446 92.9766 233.952 95.7099 233.952 101.177C233.952 102.83 233.632 104.337 232.992 105.697C232.352 107.03 231.446 108.097 230.272 108.897L235.312 117.297C235.099 117.937 234.406 118.67 233.232 119.497C231.632 120.643 230.312 121.217 229.272 121.217C228.232 121.217 227.459 120.843 226.952 120.097L223.192 111.337L221.952 111.337L221.952 120.417ZM221.952 100.057L221.952 106.057L222.152 106.057C224.686 106.057 225.952 105.003 225.952 102.897C225.952 101.937 225.699 101.23 225.192 100.777C224.712 100.297 223.912 100.057 222.792 100.057L221.952 100.057ZM251.826 94.2966C252.173 93.3632 253.88 92.8966 256.946 92.8966C257.72 92.8966 258.626 92.9499 259.666 93.0566C260.733 93.1632 261.226 93.2966 261.146 93.4566L252.826 110.177L252.826 119.937C252.826 120.39 252.093 120.71 250.626 120.897C249.88 121.003 249.146 121.057 248.426 121.057C247.706 121.057 246.986 121.017 246.266 120.937C244.8 120.75 244.066 120.417 244.066 119.937L244.066 110.417L235.466 93.5366C235.36 93.3766 235.906 93.2299 237.106 93.0966C238.306 92.9366 239.32 92.8566 240.146 92.8566C243.426 92.8566 245.226 93.3366 245.546 94.2966L248.466 102.457L251.826 94.2966Z" fill="#FF82B2"/>
</g>
<defs>
<filter id="filter0_d_0_1" x="62.6641" y="57.0596" width="284.258" height="108.966" filterUnits="userSpaceOnUse" color-interpolation-filters="sRGB">
<feFlood flood-opacity="0" result="BackgroundImageFix"/>
<feColorMatrix in="SourceAlpha" type="matrix" values="0 0 0 0 0 0 0 0 0 0 0 0 0 0 0 0 0 0 127 0" result="hardAlpha"/>
<feOffset dy="4"/>
<feGaussianBlur stdDeviation="2"/>
<feComposite in2="hardAlpha" operator="out"/>
<feColorMatrix type="matrix" values="0 0 0 0 0 0 0 0 0 0 0 0 0 0 0 0 0 0 0.25 0"/>
<feBlend mode="normal" in2="BackgroundImageFix" result="effect1_dropShadow_0_1"/>
<feBlend mode="normal" in="SourceGraphic" in2="effect1_dropShadow_0_1" result="shape"/>
</filter>
<filter id="filter1_d_0_1" x="65.0068" y="56.3311" width="280.356" height="102.505" filterUnits="userSpaceOnUse" color-interpolation-filters="sRGB">
<feFlood flood-opacity="0" result="BackgroundImageFix"/>
<feColorMatrix in="SourceAlpha" type="matrix" values="0 0 0 0 0 0 0 0 0 0 0 0 0 0 0 0 0 0 127 0" result="hardAlpha"/>
<feOffset/>
<feGaussianBlur stdDeviation="5"/>
<feComposite in2="hardAlpha" operator="out"/>
<feColorMatrix type="matrix" values="0 0 0 0 0 0 0 0 0 0 0 0 0 0 0 0 0 0 0.38 0"/>
<feBlend mode="normal" in2="BackgroundImageFix" result="effect1_dropShadow_0_1"/>
<feBlend mode="normal" in="SourceGraphic" in2="effect1_dropShadow_0_1" result="shape"/>
</filter>
<filter id="filter2_i_0_1" x="150.914" y="91.8564" width="111.352" height="29.3604" filterUnits="userSpaceOnUse" color-interpolation-filters="sRGB">
<feFlood flood-opacity="0" result="BackgroundImageFix"/>
<feBlend mode="normal" in="SourceGraphic" in2="BackgroundImageFix" result="shape"/>
<feColorMatrix in="SourceAlpha" type="matrix" values="0 0 0 0 0 0 0 0 0 0 0 0 0 0 0 0 0 0 127 0" result="hardAlpha"/>
<feOffset dx="1" dy="-1"/>
<feGaussianBlur stdDeviation="2"/>
<feComposite in2="hardAlpha" operator="arithmetic" k2="-1" k3="1"/>
<feColorMatrix type="matrix" values="0 0 0 0 0.416666 0 0 0 0 0.416666 0 0 0 0 0.416666 0 0 0 0.56 0"/>
<feBlend mode="normal" in2="shape" result="effect1_innerShadow_0_1"/>
</filter>
</defs>
</svg>
