<svg width="2000" height="1160" viewBox="0 0 2000 1160" fill="none" xmlns="http://www.w3.org/2000/svg">
<g filter="url(#filter0_d_0_1)">
<rect x="1713.54" y="927.987" width="90.7539" height="266.242" rx="38" transform="rotate(86.2037 1713.54 927.987)" stroke="#F3F3F3" stroke-width="10" shape-rendering="crispEdges"/>
</g>
<g filter="url(#filter1_d_0_1)">
<path d="M1677.12 935.333C1695.86 934.09 1712.05 948.271 1713.3 967.007L1714.26 981.481C1715.5 1000.22 1701.32 1016.41 1682.58 1017.66L1490.65 1030.39C1471.91 1031.64 1455.71 1017.46 1454.47 998.719L1453.51 984.246C1452.27 965.509 1466.45 949.312 1485.19 948.069L1677.12 935.333Z" fill="#FFD2E3"/>
<path d="M1708.81 967.305L1709.77 981.778C1710.85 998.035 1698.54 1012.09 1682.28 1013.17L1490.35 1025.9C1474.09 1026.98 1460.04 1014.68 1458.96 998.421L1458 983.948C1456.92 967.691 1469.23 953.638 1485.48 952.559L1677.42 939.823C1693.67 938.745 1707.73 951.049 1708.81 967.305Z" stroke="#FFAACA" stroke-width="9"/>
</g>
<path d="M1694.88 985.517C1694.88 985.517 1693.17 993.318 1689.15 996.591C1685.12 999.864 1678.64 1000.51 1678.64 1000.51" stroke="white" stroke-width="10" stroke-linecap="round"/>
<path d="M1475.76 979.759C1475.76 979.759 1477.47 971.957 1481.5 968.684C1485.53 965.411 1492.01 964.764 1492.01 964.764" stroke="white" stroke-width="10" stroke-linecap="round"/>
<g filter="url(#filter2_i_0_1)">
<path d="M1538.52 1000.93C1538.55 1001.35 1537.31 1001.67 1534.78 1001.87C1532.23 1002.08 1530.94 1001.99 1530.91 1001.59L1528.77 975.598C1528.7 974.668 1529.15 974.162 1530.13 974.082L1537.75 973.457C1544.74 972.884 1548.46 975.321 1548.9 980.769C1549.04 982.417 1548.84 983.945 1548.32 985.353C1547.79 986.734 1546.97 987.871 1545.87 988.764L1551.58 996.724C1551.42 997.38 1550.79 998.167 1549.68 999.087C1548.18 1000.36 1546.91 1001.04 1545.88 1001.12C1544.84 1001.21 1544.04 1000.9 1543.47 1000.2L1539.01 991.775L1537.78 991.877L1538.52 1000.93ZM1536.85 980.634L1537.34 986.614L1537.54 986.598C1540.07 986.391 1541.24 985.237 1541.07 983.138C1540.99 982.181 1540.68 981.497 1540.14 981.087C1539.62 980.648 1538.81 980.474 1537.69 980.566L1536.85 980.634ZM1566.04 982.294C1566.55 982.252 1566.87 983.162 1567.03 985.022C1567.07 985.58 1567.06 986.25 1566.99 987.032C1566.95 987.785 1566.76 988.174 1566.44 988.2L1561.38 988.616L1561.71 992.602L1569.04 992C1569.5 991.963 1569.85 992.523 1570.1 993.679C1570.23 994.178 1570.31 994.719 1570.36 995.304C1570.4 995.862 1570.38 996.6 1570.3 997.516C1570.21 998.433 1569.98 998.907 1569.61 998.937L1555.98 1000.06C1554.97 1000.14 1554.43 999.768 1554.36 998.944L1552.26 973.31C1552.2 972.619 1552.48 972.249 1553.09 972.198L1567.36 971.028C1567.92 970.982 1568.3 972.142 1568.49 974.507C1568.68 976.846 1568.5 978.038 1567.94 978.084L1560.57 978.689L1560.9 982.715L1566.04 982.294ZM1586.07 996.945C1586.12 997.476 1584.82 997.85 1582.19 998.066C1579.56 998.282 1578.22 998.124 1578.18 997.592L1576.54 977.58L1571.75 977.972C1571.3 978.009 1570.93 977.424 1570.65 976.217C1570.52 975.639 1570.43 975.044 1570.38 974.433C1570.33 973.821 1570.32 973.22 1570.35 972.629C1570.44 971.391 1570.71 970.753 1571.16 970.716L1588.5 969.294C1588.95 969.257 1589.32 969.842 1589.61 971.049C1589.73 971.627 1589.82 972.222 1589.87 972.833C1589.92 973.445 1589.93 974.046 1589.9 974.637C1589.81 975.875 1589.55 976.512 1589.09 976.549L1584.43 976.932L1586.07 996.945ZM1601.7 995.743C1601.74 996.168 1600.49 996.484 1597.97 996.691C1595.42 996.901 1594.13 996.806 1594.09 996.407L1591.96 970.415C1591.88 969.484 1592.34 968.979 1593.32 968.898L1600.94 968.274C1607.93 967.7 1611.64 970.138 1612.09 975.586C1612.23 977.234 1612.03 978.762 1611.5 980.169C1610.97 981.551 1610.16 982.688 1609.05 983.581L1614.76 991.541C1614.6 992.196 1613.97 992.984 1612.87 993.904C1611.37 995.177 1610.1 995.857 1609.06 995.942C1608.03 996.027 1607.23 995.718 1606.66 995.015L1602.2 986.592L1600.96 986.693L1601.7 995.743ZM1600.04 975.451L1600.53 981.431L1600.73 981.414C1603.25 981.207 1604.43 980.054 1604.26 977.954C1604.18 976.998 1603.87 976.314 1603.33 975.904C1602.81 975.464 1601.99 975.291 1600.88 975.382L1600.04 975.451ZM1629.34 967.268C1629.61 966.309 1631.27 965.704 1634.33 965.454C1635.1 965.391 1636.01 965.37 1637.05 965.391C1638.13 965.41 1638.63 965.502 1638.56 965.669L1631.64 983.013L1632.43 992.74C1632.47 993.192 1631.77 993.571 1630.32 993.877C1629.59 994.044 1628.86 994.157 1628.14 994.216C1627.42 994.275 1626.7 994.294 1625.98 994.273C1624.5 994.207 1623.74 993.935 1623.7 993.456L1622.93 983.968L1612.97 967.848C1612.86 967.697 1613.39 967.506 1614.57 967.275C1615.76 967.018 1616.76 966.855 1617.58 966.787C1620.85 966.519 1622.69 966.851 1623.08 967.781L1626.66 975.675L1629.34 967.268Z" fill="#FF82B2"/>
</g>
<defs>
<filter id="filter0_d_0_1" x="1441.31" y="925.418" width="284.805" height="121.32" filterUnits="userSpaceOnUse" color-interpolation-filters="sRGB">
<feFlood flood-opacity="0" result="BackgroundImageFix"/>
<feColorMatrix in="SourceAlpha" type="matrix" values="0 0 0 0 0 0 0 0 0 0 0 0 0 0 0 0 0 0 127 0" result="hardAlpha"/>
<feOffset dy="4"/>
<feGaussianBlur stdDeviation="2"/>
<feComposite in2="hardAlpha" operator="out"/>
<feColorMatrix type="matrix" values="0 0 0 0 0 0 0 0 0 0 0 0 0 0 0 0 0 0 0.25 0"/>
<feBlend mode="normal" in2="BackgroundImageFix" result="effect1_dropShadow_0_1"/>
<feBlend mode="normal" in="SourceGraphic" in2="effect1_dropShadow_0_1" result="shape"/>
</filter>
<filter id="filter1_d_0_1" x="1443.44" y="925.257" width="280.896" height="115.212" filterUnits="userSpaceOnUse" color-interpolation-filters="sRGB">
<feFlood flood-opacity="0" result="BackgroundImageFix"/>
<feColorMatrix in="SourceAlpha" type="matrix" values="0 0 0 0 0 0 0 0 0 0 0 0 0 0 0 0 0 0 127 0" result="hardAlpha"/>
<feOffset/>
<feGaussianBlur stdDeviation="5"/>
<feComposite in2="hardAlpha" operator="out"/>
<feColorMatrix type="matrix" values="0 0 0 0 0 0 0 0 0 0 0 0 0 0 0 0 0 0 0.38 0"/>
<feBlend mode="normal" in2="BackgroundImageFix" result="effect1_dropShadow_0_1"/>
<feBlend mode="normal" in="SourceGraphic" in2="effect1_dropShadow_0_1" result="shape"/>
</filter>
<filter id="filter2_i_0_1" x="1528.65" y="964.061" width="113.301" height="38.2871" filterUnits="userSpaceOnUse" color-interpolation-filters="sRGB">
<feFlood flood-opacity="0" result="BackgroundImageFix"/>
<feBlend mode="normal" in="SourceGraphic" in2="BackgroundImageFix" result="shape"/>
<feColorMatrix in="SourceAlpha" type="matrix" values="0 0 0 0 0 0 0 0 0 0 0 0 0 0 0 0 0 0 127 0" result="hardAlpha"/>
<feOffset dx="1" dy="-1"/>
<feGaussianBlur stdDeviation="2"/>
<feComposite in2="hardAlpha" operator="arithmetic" k2="-1" k3="1"/>
<feColorMatrix type="matrix" values="0 0 0 0 0.416666 0 0 0 0 0.416666 0 0 0 0 0.416666 0 0 0 0.56 0"/>
<feBlend mode="normal" in2="shape" result="effect1_innerShadow_0_1"/>
</filter>
</defs>
</svg>
